<?xml version="1.0" encoding="utf-8"?>
<!-- Generator: Adobe Illustrator 16.0.0, SVG Export Plug-In . SVG Version: 6.00 Build 0)  -->
<!DOCTYPE svg PUBLIC "-//W3C//DTD SVG 1.1//EN" "http://www.w3.org/Graphics/SVG/1.1/DTD/svg11.dtd">
<svg version="1.1" id="Layer_1" xmlns="http://www.w3.org/2000/svg" xmlns:xlink="http://www.w3.org/1999/xlink" x="0px" y="0px"
	 width="560.677px" height="632.968px" viewBox="0 0 560.677 632.968" enable-background="new 0 0 560.677 632.968"
	 xml:space="preserve">
<g>
	<path fill-rule="evenodd" clip-rule="evenodd" d="M112.38,407.277c2.597-14.385,5.317-28.75,7.767-43.159
		c5.823-34.252,11.626-68.506,17.148-102.808c0.83-5.158,2.904-6.88,7.978-7.015c67.864-1.813,135.69-1.743,203.449,3.176
		c4.743,0.344,6.645,1.996,7.158,6.898c6.839,65.239,15.1,130.362,20.273,195.73c2.037,25.761-2.632,52.062-4.391,78.108
		c-0.732,10.857-6.796,17.675-17.396,19.381c-31.779,5.109-63.482,11.302-95.477,14.315c-49.794,4.694-99.482,1.229-148.538-8.777
		c-28.427-5.799-31.753-8.898-32.919-37.819c-1.523-37.753-3.06-75.675-1.162-113.353c2.472-49.101,8.299-98.033,12.723-147.033
		c0.172-1.901,0.76-3.763,1.208-5.898c6.177-0.644,12.185-1.272,19.183-2.002c0,50.303,0,100.174,0,150.047
		C110.382,407.136,111.381,407.207,112.38,407.277z"/>
	<path fill-rule="evenodd" clip-rule="evenodd" d="M49.994,157.968c8.26,11.343,16.914,22.726,24.9,34.559
		c1.924,2.85,2.542,7.271,2.234,10.838c-6.373,73.976-14.429,147.843-18.93,221.928c-2.436,40.079,0.337,80.56,2.287,120.786
		c1.071,22.104,5.795,27.136,27.569,31.22c29.188,5.473,58.618,10.44,88.172,13.033c64.822,5.687,128.849-0.545,191.988-16.488
		c7.89-1.992,12.637-5.949,14.159-13.157c4.237-20.058,8.773-40.123,11.537-60.411c4.824-35.413-1.775-70.494-5.522-105.548
		c-7.656-71.622-16.088-143.161-24.216-214.734c-0.623-5.489-1.364-10.967-2.137-17.143c-26.979-2.267-53.521-4.495-80.959-6.799
		c0.938-10.185,1.84-19.998,2.794-30.369c2.411-0.174,4.551-0.569,6.66-0.447c31.653,1.841,63.294,3.928,94.959,5.512
		c7.34,0.367,9.683,3.347,9.076,10.261c-0.56,6.357-0.699,12.774-0.611,19.16c0.075,5.371,2.553,8.356,8.543,9.099
		c16.547,2.056,32.999,4.858,49.511,7.208c46.595,6.627,76.06,33.682,87.327,78.296c17.735,70.229,4.398,135.128-39.869,192.911
		c-10.796,14.095-24.95,24.033-42.052,30.282c-33.382,12.202-34.872,14.974-36.933,50.704c-0.784,13.598-1.676,27.191-2.762,40.77
		c-1.284,16.054-10.012,26.668-25.489,30.156c-30.866,6.957-61.685,14.937-92.978,19.021c-78.063,10.185-155.301,2.44-232.04-13.917
		c-21.451-4.571-33.211-16.168-35.247-37.037c-3.397-34.841-6.748-69.745-8.186-104.703c-2.456-59.68,4.621-118.849,11.969-177.969
		c4.94-39.737,8.855-79.603,13.244-119.41C49.314,162.683,49.752,159.797,49.994,157.968z M430.376,437.965
		c18.763-2.232,31.866-11.351,41.554-24.839c29.016-40.4,37.027-85.317,24.062-132.987c-10.152-37.333-37.269-55.667-74.184-53.577
		c-15.97,0.905-17.148,2.253-15.984,18.41c0.16,2.216,0.39,4.43,0.667,6.634c5.971,47.67,11.917,95.343,17.957,143.005
		C426.253,408.845,428.329,423.042,430.376,437.965z M505.408,217.015c-13.075-24.27-56.282-40.232-79.052-27.868
		C455.67,193.736,481.569,202.402,505.408,217.015z"/>
	<path fill-rule="evenodd" clip-rule="evenodd" d="M258.073,42.656c23.798-8.607,45.063-4.138,64.91,10.183
		c2.025,1.461,6.253,0.766,9.156-0.028c33.379-9.143,63.785,8.277,71.162,40.966c2.961,13.113,0.065,21.094-11.553,28.262
		c-1.98-4.895-5.048-9.379-5.518-14.122c-3.271-33.031-30.714-48.872-61.563-35.156c-0.745,0.331-1.553,0.523-2.354,0.789
		c-18.48-16.833-39.613-21.219-63.436-14.22c-1.95,0.572-5.313-0.664-6.872-2.212c-23.9-23.759-69.967-30.232-99.178-13.514
		c-4.055,2.322-7.789,5.377-11.207,8.587c-3.192,3-5.767,6.657-8.731,10.166c-22.359-8.684-41.746-4.076-57.77,13.242
		c-14.703,15.888-14.786,33.316-1.41,50.233c1.865,2.359,2.132,6.006,3.044,9.086c2.647,8.939,4.619,18.143,8.024,26.782
		c4.296,10.901,13.487,15.375,24.834,16.959c4.91,0.685,9.942,3.039,14.116,5.833c5.976,4.001,11.208,9.111,16.771,13.729
		c19.123,15.88,43.615,12.982,58.523-6.915c0.5-0.667,1.018-1.324,1.499-2.005c8.009-11.376,18.973-19.457,31.78-23.195
		c11.432-3.337,18.017-11.427,19.629-22.601c1.607-11.153,1.391-22.567,1.976-33.89c7.845,0.305,13.373,4.736,16.812,14.168
		c10.032,27.507-5.253,53.252-34.863,57.814c-7.168,1.105-11.673,2.631-14.255,10.605c-2.097,6.477-7.227,12.565-12.378,17.357
		c-20.251,18.835-58.39,22.222-79.985,6.583c-6.911-5.005-10.432-14.878-17.499-19.421c-6.743-4.335-17.167-2.908-23.971-7.195
		c-6.516-4.104-11.743-11.662-15.269-18.819c-8.086-16.417-13.118-34.51-22.421-50.114C33.481,92.758,46.71,48.986,91.454,42.101
		c9.627-1.482,19.83,0.939,29.777,1.257c2.344,0.075,6.031-0.325,6.898-1.8c11.645-19.807,30.399-27.417,51.707-28.904
		c13.433-0.938,27.261-0.038,40.575,2.123C237.096,17.484,249.958,27.107,258.073,42.656z"/>
	<path fill-rule="evenodd" clip-rule="evenodd" d="M281.155,432.594c1.875,10.359-0.538,14.601-13.449,23.638
		C263.392,443.784,269.678,432.735,281.155,432.594z"/>
	<path fill-rule="evenodd" clip-rule="evenodd" d="M230.879,445.873c1.869,11.144-3,19.041-14.711,23.858
		C215.484,455.185,220.666,446.782,230.879,445.873z"/>
</g>
</svg>
