<?xml version="1.0" encoding="utf-8"?>
<!-- Generator: Adobe Illustrator 16.0.0, SVG Export Plug-In . SVG Version: 6.00 Build 0)  -->
<!DOCTYPE svg PUBLIC "-//W3C//DTD SVG 1.1//EN" "http://www.w3.org/Graphics/SVG/1.1/DTD/svg11.dtd">
<svg version="1.1" id="Layer_1" xmlns="http://www.w3.org/2000/svg" xmlns:xlink="http://www.w3.org/1999/xlink" x="0px" y="0px"
	 width="560px" height="560px" viewBox="0 0 560 560" enable-background="new 0 0 560 560" xml:space="preserve">
<g>
	<defs>
		<polygon id="SVGID_1_" points="282.946,513.881 370.146,513.881 410.71,150.796 282.946,150.796 155.187,150.796 195.75,513.881 
					"/>
	</defs>
	<clipPath id="SVGID_2_">
		<use xlink:href="#SVGID_1_"  overflow="visible"/>
	</clipPath>
	<g clip-path="url(#SVGID_2_)">
		<defs>
			<rect id="SVGID_3_" x="-2076.045" y="-1783.965" width="5436.358" height="3727.79"/>
		</defs>
		<clipPath id="SVGID_4_">
			<use xlink:href="#SVGID_3_"  overflow="visible"/>
		</clipPath>
		<rect x="135.771" y="131.38" clip-path="url(#SVGID_4_)" fill="#FBD800" width="294.354" height="401.917"/>
	</g>
</g>
<g>
	<defs>
		<polygon id="SVGID_5_" points="282.946,190.874 406.234,190.874 410.71,150.796 282.946,150.796 155.187,150.796 159.661,190.874 
					"/>
	</defs>
	<clipPath id="SVGID_6_">
		<use xlink:href="#SVGID_5_"  overflow="visible"/>
	</clipPath>
	<g clip-path="url(#SVGID_6_)">
		<defs>
			<rect id="SVGID_7_" x="-2076.045" y="-1783.965" width="5436.358" height="3727.79"/>
		</defs>
		<clipPath id="SVGID_8_">
			<use xlink:href="#SVGID_7_"  overflow="visible"/>
		</clipPath>
		<rect x="135.771" y="131.38" clip-path="url(#SVGID_8_)" fill="#FFFFFF" width="294.354" height="78.91"/>
	</g>
</g>
<g>
	<defs>
		<polygon id="SVGID_9_" points="191.78,478.324 195.754,513.879 282.95,513.879 370.142,513.879 374.116,478.324 282.95,478.324 		
			"/>
	</defs>
	<clipPath id="SVGID_10_">
		<use xlink:href="#SVGID_9_"  overflow="visible"/>
	</clipPath>
	<g clip-path="url(#SVGID_10_)">
		<defs>
			<rect id="SVGID_11_" x="-2076.045" y="-1783.965" width="5436.358" height="3727.79"/>
		</defs>
		<clipPath id="SVGID_12_">
			<use xlink:href="#SVGID_11_"  overflow="visible"/>
		</clipPath>
		<rect x="172.364" y="458.912" clip-path="url(#SVGID_12_)" fill="#FFFFFF" width="221.163" height="74.383"/>
	</g>
</g>
<g>
	<defs>
		<polygon id="SVGID_13_" points="370.365,150.796 329.798,513.881 370.146,513.881 410.71,150.796 		"/>
	</defs>
	<clipPath id="SVGID_14_">
		<use xlink:href="#SVGID_13_"  overflow="visible"/>
	</clipPath>
	<g clip-path="url(#SVGID_14_)">
		<defs>
			<rect id="SVGID_15_" x="-2076.045" y="-1783.965" width="5436.358" height="3727.79"/>
		</defs>
		<clipPath id="SVGID_16_">
			<use xlink:href="#SVGID_15_"  overflow="visible"/>
		</clipPath>
		<rect x="310.382" y="131.38" opacity="0.3" clip-path="url(#SVGID_16_)" fill="#88451F" width="119.743" height="401.917"/>
	</g>
</g>
<g>
	<defs>
		<path id="SVGID_17_" d="M370.146,523.9H195.75c-5.134,0-9.454-3.842-10.026-8.918L145.16,151.907
			c-0.319-2.84,0.596-5.669,2.514-7.789c1.911-2.124,4.637-3.341,7.512-3.341H410.71c2.874,0,5.604,1.217,7.516,3.341
			c1.915,2.12,2.829,4.949,2.511,7.789l-40.568,363.076C379.6,520.059,375.279,523.9,370.146,523.9z M204.784,503.863h156.33
			l38.326-343.049H166.453L204.784,503.863z"/>
	</defs>
	<clipPath id="SVGID_18_">
		<use xlink:href="#SVGID_17_"  overflow="visible"/>
	</clipPath>
	<g clip-path="url(#SVGID_18_)">
		<defs>
			<rect id="SVGID_19_" x="-2076.045" y="-1783.965" width="5436.358" height="3727.79"/>
		</defs>
		<clipPath id="SVGID_20_">
			<use xlink:href="#SVGID_19_"  overflow="visible"/>
		</clipPath>
		<rect x="125.68" y="121.361" clip-path="url(#SVGID_20_)" fill="#2E2E31" width="314.536" height="421.955"/>
	</g>
</g>
<g>
	<defs>
		<path id="SVGID_21_" d="M370.013,106.978c-1.824,0-3.587,0.261-5.336,0.534c0-0.182,0.028-0.356,0.028-0.534
			c0-20.391-16.642-36.917-37.164-36.917c-1.711,0-3.371,0.152-5.017,0.372c-7.276-14.406-22.241-24.319-39.574-24.319
			c-17.326,0-32.298,9.913-39.567,24.319c-1.649-0.22-3.313-0.372-5.021-0.372c-20.526,0-37.158,16.526-37.158,36.917
			c0,0.178,0.011,0.353,0.019,0.534c-1.749-0.273-3.504-0.534-5.339-0.534c-18.764,0-33.974,15.111-33.974,33.753
			c0,3.519,0.606,6.886,1.623,10.072h36.483v53.954c0,10.451,8.529,18.922,19.052,18.922c10.522,0,19.056-8.471,19.056-18.922
			v-53.954h164.213c1.009-3.193,1.653-6.545,1.653-10.072C403.99,122.089,388.775,106.978,370.013,106.978"/>
	</defs>
	<clipPath id="SVGID_22_">
		<use xlink:href="#SVGID_21_"  overflow="visible"/>
	</clipPath>
	<g clip-path="url(#SVGID_22_)">
		<defs>
			<rect id="SVGID_23_" x="-2076.045" y="-1783.965" width="5436.358" height="3727.79"/>
		</defs>
		<clipPath id="SVGID_24_">
			<use xlink:href="#SVGID_23_"  overflow="visible"/>
		</clipPath>
		<rect x="142.494" y="26.699" clip-path="url(#SVGID_24_)" fill="#FFFFFF" width="280.912" height="216.397"/>
	</g>
</g>
<g>
	<defs>
		<path id="SVGID_25_" d="M219.064,233.703c-16.071,0-29.135-12.984-29.135-28.941v-43.947h-26.401
			c-4.391,0-8.278-2.821-9.609-6.985c-1.398-4.346-2.097-8.756-2.097-13.105c0-22.889,17.777-41.724,40.34-43.617
			c4.54-20.985,23.246-36.814,45.649-37.062C247.839,45.123,264.585,36.1,282.946,36.1c18.365,0,35.114,9.023,45.141,23.945
			c22.408,0.254,41.114,16.077,45.653,37.07c22.556,1.885,40.334,20.727,40.334,43.609c0,4.297-0.698,8.578-2.117,13.079
			c-1.326,4.176-5.222,7.012-9.624,7.012H248.211v43.947C248.211,220.718,235.139,233.703,219.064,233.703z M171.998,140.777h28.019
			c5.568,0,10.088,4.482,10.088,10.019v53.965c0,4.903,4.02,8.904,8.96,8.904c4.946,0,8.972-4.001,8.972-8.904v-53.965
			c0-5.537,4.52-10.019,10.088-10.019h155.779v-0.053c0-13.083-10.721-23.731-23.895-23.731c-1.278,0-2.515,0.22-3.739,0.417
			c-2.893,0.44-5.889-0.371-8.134-2.275c-2.249-1.904-3.545-4.695-3.545-7.619c0-0.247,0.018-0.762,0.042-1.008
			c-0.016-14.361-12.158-26.431-27.096-26.431c-1.255,0-2.476,0.125-3.686,0.288c-4.236,0.554-8.418-1.623-10.349-5.438
			c-5.847-11.597-17.558-18.788-30.557-18.788c-12.996,0-24.695,7.191-30.549,18.788c-1.926,3.814-6.143,5.992-10.345,5.438
			c-1.221-0.163-2.435-0.288-3.694-0.288c-14.926,0-27.071,12.07-27.071,26.897c0.102,3-1.13,5.973-3.39,7.956
			c-2.256,1.983-5.279,2.958-8.255,2.48c-1.232-0.197-2.469-0.417-3.754-0.417c-13.175,0-23.89,10.648-23.89,23.731V140.777z"/>
	</defs>
	<clipPath id="SVGID_26_">
		<use xlink:href="#SVGID_25_"  overflow="visible"/>
	</clipPath>
	<g clip-path="url(#SVGID_26_)">
		<defs>
			<rect id="SVGID_27_" x="-2076.045" y="-1783.965" width="5436.358" height="3727.79"/>
		</defs>
		<clipPath id="SVGID_28_">
			<use xlink:href="#SVGID_27_"  overflow="visible"/>
		</clipPath>
		<rect x="132.407" y="16.684" clip-path="url(#SVGID_28_)" fill="#2E2E31" width="301.081" height="236.435"/>
	</g>
</g>
<g>
	<defs>
		<line id="SVGID_29_" x1="196.395" y1="478.324" x2="368.772" y2="478.324"/>
	</defs>
	<clipPath id="SVGID_30_">
		<use xlink:href="#SVGID_29_"  overflow="visible"/>
	</clipPath>
	<g clip-path="url(#SVGID_30_)">
		<defs>
			<rect id="SVGID_31_" x="-2076.045" y="-1783.965" width="5436.358" height="3727.79"/>
		</defs>
		<clipPath id="SVGID_32_">
			<use xlink:href="#SVGID_31_"  overflow="visible"/>
		</clipPath>
		<rect x="176.98" y="458.908" clip-path="url(#SVGID_32_)" fill="#FFFFFF" width="211.208" height="38.832"/>
	</g>
</g>
<g>
	<defs>
		<path id="SVGID_33_" d="M368.769,488.346H196.395c-5.566,0-10.086-4.49-10.086-10.021s4.52-10.02,10.086-10.02h172.374
			c5.566,0,10.088,4.488,10.088,10.02S374.335,488.346,368.769,488.346"/>
	</defs>
	<clipPath id="SVGID_34_">
		<use xlink:href="#SVGID_33_"  overflow="visible"/>
	</clipPath>
	<g clip-path="url(#SVGID_34_)">
		<defs>
			<rect id="SVGID_35_" x="-2076.045" y="-1783.965" width="5436.358" height="3727.79"/>
		</defs>
		<clipPath id="SVGID_36_">
			<use xlink:href="#SVGID_35_"  overflow="visible"/>
		</clipPath>
		<rect x="166.892" y="448.889" clip-path="url(#SVGID_36_)" fill="#2E2E31" width="231.379" height="58.873"/>
	</g>
</g>
</svg>
