<?xml version="1.0" encoding="utf-8"?>
<!-- Generator: Adobe Illustrator 16.0.0, SVG Export Plug-In . SVG Version: 6.00 Build 0)  -->
<!DOCTYPE svg PUBLIC "-//W3C//DTD SVG 1.1//EN" "http://www.w3.org/Graphics/SVG/1.1/DTD/svg11.dtd">
<svg version="1.1" id="b20fa69d-126b-479c-8485-104b5d95d423"
	 xmlns="http://www.w3.org/2000/svg" xmlns:xlink="http://www.w3.org/1999/xlink" x="0px" y="0px" width="1135.15px"
	 height="712.879px" viewBox="0 0 1135.15 712.879" enable-background="new 0 0 1135.15 712.879" xml:space="preserve">
<title>having fun</title>
<path opacity="0.3" fill="#FFAC63" d="M1128.04,491.071c-11.39,27.389-35.22,52.129-60.8,75.559
	c-22.486,20.602-46.54,40.508-72.16,59.721c-7.1,5.334-14.313,10.6-21.64,15.801l-5.09,3.59c-4.514,3.193-9.104,6.355-13.771,9.49
	l-0.56,0.379c-4.526,3.08-9.094,6.131-13.7,9.15c-15.069,9.9-31,19.73-48.609,27.869c-6,2.781-12.19,5.371-18.601,7.691
	c-3.467,1.26-7.007,2.439-10.62,3.539c-5.92,1.801-12,3.371-18.35,4.66c-1.06,0.221-2.13,0.43-3.2,0.631
	c-6.5,1.219-13.08,2.109-19.729,2.719c-24.37,2.23-49.54,0.6-73.95-3.219c-12.2-1.91-24.21-4.371-35.83-7.17
	c-1.43-0.342-2.85-0.691-4.28-1c-39.57-9.9-76.72-23.342-116.57-32.791c-13.733-3.26-27.733-6.027-42-8.301
	c-6.96-1.105-13.96-2.105-21-3c-16.569-2.059-33.35-3.439-50.199-4.139c-22.721-1-46.181-0.57-67.801,3.4
	c-2.88,0.525-5.723,1.119-8.529,1.779c-3.561,0.834-7.054,1.783-10.48,2.85c-9.237,2.984-18.229,6.686-26.89,11.07
	c-1.71,0.84-3.4,1.689-5.09,2.551l0,0c-5.301,2.699-10.53,5.459-15.84,8.139c-9.558,5.002-19.503,9.223-29.74,12.621
	c-5.607,1.771-11.311,3.227-17.08,4.359c-15.271,3.061-31.521,4.27-47.841,4.35c-7.869,0-15.75-0.17-23.54-0.58h-0.239
	c-2.66-0.139-5.33-0.299-8-0.5c-12.16-0.83-24.28-2.109-36.221-3.859c-40.909-6-79.71-17.34-110.92-34.641
	c-42.39-23.48-69.31-58.49-65.27-93.469c2.899-25.201,20.91-48.602,38-71.512c31.79-42.658,61.57-86.289,77.24-132.279
	c12.71-37.33,16.5-76.8,45.75-110.35c9.37-10.74,21.35-20.54,35.3-29.13c10.427-6.384,21.356-11.909,32.68-16.52
	c12.798-5.242,25.963-9.537,39.391-12.85c11.636-2.887,23.429-5.104,35.319-6.64c6.46-0.84,13-1.49,19.58-1.93
	c5.067-0.353,10.157-0.577,15.271-0.67h0.79c3.126-0.06,6.253-0.06,9.38,0c22.799,0.353,45.534,2.49,68,6.39
	c14.06,2.35,28,5.23,41.65,8.4c8.146,1.887,16.22,3.863,24.22,5.93c2.439,0.63,4.88,1.27,7.29,1.92
	c56.92,15.25,107,36.31,161.84,53.59c0.28,0.09,0.55,0.18,0.83,0.25l0,0c11.256,3.461,22.685,6.332,34.24,8.6
	c8.489,1.7,17.17,3.17,26,4.46c13.52,2,27.329,3.58,41.239,4.94l3.07,0.3c20.41,2,41,3.49,61,5.23c7.1,0.62,14.14,1.26,21.08,2
	c4.399,0.44,8.76,0.906,13.08,1.4c3.1,0.36,6.21,0.72,9.319,1.1c3.11,0.38,6.4,0.78,9.601,1.19c2.08,0.26,4.149,0.53,6.229,0.82
	c12.601,1.67,25.17,3.54,37.601,5.68c7.56,1.3,15.08,2.7,22.51,4.21c5.38,1.093,10.713,2.247,16,3.46
	c3.92,0.887,7.807,1.82,11.66,2.8c31.31,7.87,60.609,18.19,85.859,32.12C1120.49,379.32,1149.83,438.69,1128.04,491.071z"/>
<circle opacity="0.3" fill="#FFAC63" cx="248.99" cy="68.77" r="21.63"/>
<circle opacity="0.3" fill="#FFAC63" cx="691.1" cy="21.63" r="21.63"/>
<circle opacity="0.3" fill="#FFAC63" cx="953.251" cy="70.07" r="21.63"/>
<circle opacity="0.3" fill="#FFAC63" cx="36.25" cy="121.1" r="36.25"/>
<circle opacity="0.3" fill="#FFAC63" cx="71" cy="300.1" r="36.25"/>
<circle opacity="0.3" fill="#FFAC63" cx="1043.921" cy="234.21" r="36.25"/>
<path fill="#BE6F72" d="M354.35,239.35c0.18,3.043,0.002,6.098-0.53,9.1c-2,9.29-10.46,15.67-18.649,20.51
	c-8.19,4.84-17.19,9.42-22.061,17.59c-5.87,9.87-4,23.14,2.891,32.36c6.89,9.22,17.81,14.71,29.05,17
	c20.5,4.23,42.95-1.71,58.319-15.91c15.37-14.2,23.08-36.39,19.311-57c-8.34,1.17-15.771-6.19-18.47-14.17
	c-2.7-7.98-2.141-16.63-3.19-25c-0.076-1.416-0.503-2.79-1.24-4c-1.17-1.62-3.24-2.28-5.17-2.81c-9.64-2.65-25.859-8.45-35.85-6.23
	C349.76,212.85,354.2,231.79,354.35,239.35z"/>
<path opacity="0.1" enable-background="new    " d="M354.35,239.35c0.18,3.043,0.002,6.098-0.53,9.1
	c-2,9.29-10.46,15.67-18.649,20.51c-8.19,4.84-17.19,9.42-22.061,17.59c-5.87,9.87-4,23.14,2.891,32.36
	c6.89,9.22,17.81,14.71,29.05,17c20.5,4.23,42.95-1.71,58.319-15.91c15.37-14.2,23.08-36.39,19.311-57
	c-8.34,1.17-15.771-6.19-18.47-14.17c-2.7-7.98-2.141-16.63-3.19-25c-0.076-1.416-0.503-2.79-1.24-4c-1.17-1.62-3.24-2.28-5.17-2.81
	c-9.64-2.65-25.859-8.45-35.85-6.23C349.76,212.85,354.2,231.79,354.35,239.35z"/>
<path fill="#BE6F72" d="M342.7,682.059c-9.557,5.004-19.502,9.223-29.739,12.621c-5.608,1.771-11.311,3.227-17.081,4.359
	c-0.408-7.689,0.011-15.4,1.25-23c0.78-4.369,1.931-8.699,2.23-13.129c0.425-6.395-0.943-12.781-3.95-18.441
	c11.141-1.52,21.721-4,32.91-3.27l0.71,0.051c1.331,0.033,2.647,0.279,3.9,0.729c1.722,0.834,3.184,2.119,4.229,3.721
	c0.576,0.785,1.107,1.604,1.591,2.451c3.159,5.459,4.359,11.76,4.609,18.25C343.478,671.629,343.258,676.86,342.7,682.059z"/>
<path fill="#BE6F72" d="M401.01,657.44c-3.561,0.834-7.054,1.783-10.48,2.85c-9.237,2.984-18.229,6.688-26.89,11.07
	c-0.562-2.723-0.838-5.498-0.82-8.279c10.312-7.111,23.068-9.736,35.351-7.271c0.812,0.1,1.585,0.41,2.239,0.9
	C400.647,656.92,400.85,657.167,401.01,657.44z"/>
<path fill="#3F3D56" d="M418.2,606.959c-0.68,6.541-1.68,13.1-4,19.25c-2.51,6.6-6.59,13-6.069,20.051
	c0.229,3.061,1.27,6.379,1.42,9.41c-2.88,0.525-5.724,1.119-8.53,1.779c-3.56,0.834-7.054,1.783-10.48,2.85
	c-9.237,2.986-18.228,6.688-26.89,11.07c-1.71,0.84-3.399,1.689-5.09,2.551l0,0c-0.7-0.09-1.39-0.201-2.09-0.33
	c-5-0.91-10.26-3.15-13.09-7.15c-0.648-0.92-1.157-1.932-1.511-3c-1.63-4.869,0.07-10.939-3.319-14.801l-0.16,0.141l-0.12,0.08
	c-1.857,1.682-3.896,3.152-6.08,4.381l0,0c-10.052,5.688-22.047,6.844-33,3.18c-2.146-0.73-4.219-1.662-6.19-2.781
	c-4.58-2.609-9-7-8.64-12.238c0.2-2.92,1.87-5.721,1.42-8.611c-0.33-2.07-1.69-3.789-2.71-5.619c-6.69-12,1.29-27.43-2.91-40.471
	c-0.1-0.311-0.21-0.619-0.32-0.92c-0.31-0.85-0.659-1.67-1-2.49c-0.859-1.91-1.819-3.789-2.579-5.75
	c-0.634-1.646-1.135-3.342-1.5-5.07c-0.944-5.014-1.28-10.125-1-15.219c0-13.43,2.399-27.18,5.819-40.121
	c0.61-2.299,1.29-5.549,2.19-9.09l0,0c0.877-3.73,2.062-7.383,3.54-10.92c2-4.6,4.72-8.27,8.439-9.139
	c5.601-1.311,14.16,1.459,19.841,2.139l22.449,2.68l44.891,5.371c7.75,0.93,15.89,2,22.28,6.359c0.42,0.291,0.829,0.59,1.239,0.91
	c1.688,1.33,3.2,2.869,4.5,4.58c0.46,0.59,0.9,1.211,1.32,1.84c1.456,2.23,2.695,4.594,3.7,7.061
	c5.569,13.379,5.7,28.311,5.74,42.799C419.711,576.84,419.76,591.95,418.2,606.959z"/>
<path opacity="0.1" enable-background="new    " d="M332.14,653.299c-1.351-5.199-4.2-12.729-4.62-14.779
	c-1.409-6.877-2.431-13.828-3.06-20.82c-1.11-12.459-3.11-30,1.29-41.85c4.13,2.199,7.76,8.43,9.67,12.68
	c6.92,15.41-0.87,34.33,5.63,49.92c0.485,0.934,0.788,1.953,0.89,3c-0.113,1.33-0.59,2.604-1.38,3.68l-2.19,3.641L332.14,653.299z"
	/>
<path fill="#BE6F72" d="M476.16,177.56c7.36-12,17.44-23.8,16.811-37.83c-0.23-5-1.87-9.89-3.12-14.79
	c-3.582-14.181-3.818-29.001-0.69-43.29c12.366-1.987,25.023,0.848,35.36,7.92c3.27,2.26,6.37,5.07,7.81,8.78
	c1.33,3.42,1.11,7.23,0.87,10.89c-0.55,8.41-1.3,17.38-6.479,24c-1.61,2.07-3.59,3.82-5.16,5.91c-2.29,3-3.63,6.66-4.94,10.23
	l-17,46.25c-8.58,23.31-17.88,47.69-36.779,63.82c-0.46,0.39-14-18.84-15.12-20.77c-4.53-7.91-2.55-11.25,2.93-17.87
	C461.461,207.72,467.33,191.93,476.16,177.56z"/>
<path fill="#FBBEBE" d="M281.34,571.77c-0.058,3.453-0.349,6.896-0.869,10.311c-0.181,1.26-0.391,2.51-0.641,3.76
	c-3.41,17.799-11.899,34.73-17.84,52.07c-7.83,22.889-11.27,42.75-14,65.479c-7.87,0-15.75-0.17-23.54-0.58h-0.24
	c-2.66-0.139-5.33-0.299-8-0.5c2.41-21.199-2-43.439,2.311-64.658c1.74-8.541,4.71-16.83,6.5-25.33
	c0.552-2.504,0.969-5.033,1.25-7.58c0.25-2.42,0.38-4.932,1.47-7.111c0.1-0.211,0.213-0.414,0.34-0.609
	c0.958-1.51,2.146-2.859,3.521-4c12.185-10.686,27.087-17.791,43.06-20.529C276.93,572.18,279.14,571.92,281.34,571.77z"/>
<path opacity="0.1" enable-background="new    " d="M281.34,571.77c-0.058,3.453-0.349,6.896-0.869,10.311
	c-0.181,1.26-0.391,2.51-0.641,3.76c-3.41,17.799-11.899,34.73-17.84,52.07c-7.83,22.889-11.27,42.75-14,65.479
	c-7.87,0-15.75-0.17-23.54-0.58h-0.24c-2.66-0.139-5.33-0.299-8-0.5c2.41-21.199-2-43.439,2.311-64.658
	c1.74-8.541,4.71-16.83,6.5-25.33c0.552-2.504,0.969-5.033,1.25-7.58c0.25-2.42,0.38-4.932,1.47-7.111
	c0.1-0.211,0.213-0.414,0.34-0.609c0.958-1.51,2.146-2.859,3.521-4c12.185-10.686,27.087-17.791,43.06-20.529
	C276.93,572.18,279.14,571.92,281.34,571.77z"/>
<path fill="#FBBEBE" d="M230.64,617.34c-0.162,5.557-0.619,11.102-1.37,16.609c-2.67,22.51-3.17,46-5,68.85
	c-2.66-0.139-5.33-0.299-8-0.5c-12.16-0.83-24.28-2.109-36.221-3.859c0.921-5.146,1.847-10.293,2.78-15.439
	c1.141-6.311,2.28-12.68,1.95-19.08c-0.31-6.051-1.93-11.939-3.22-17.871c-2.75-12.699-4.29-26.398-8.82-38.379
	c-2.362-6.719-6.134-12.857-11.06-18c18.739-7.361,36.75-7.781,56.88-7c1.429-0.08,2.85,0.27,4.08,1
	c0.954,0.826,1.663,1.898,2.05,3.1c3.024,7.277,4.923,14.971,5.63,22.82C230.56,612.167,230.668,614.752,230.64,617.34z"/>
<circle fill="#BE6F72" cx="381.591" cy="195.19" r="39"/>
<path fill="#E3E8F4" d="M389.7,286.34c5-8.53,9.38-19.18,19-21.55c5.431-1.35,11.08,0.49,16.37,2.3c1.533,0.363,2.924,1.17,4,2.32
	c0.781,1.24,1.201,2.674,1.21,4.14c1.675,17.63,1.618,35.381-0.17,53c-1.27,12.47-3.41,24.88-3.79,37.41
	c-0.53,17.371,2.33,34.74,1.39,52.09c-0.709,13.15-3.59,26.07-6.449,38.92l-12,53.801c-0.215,1.664-0.883,3.238-1.931,4.551
	c-1.012,0.928-2.223,1.611-3.54,2c-35.125,12.416-73.865,9.383-106.63-8.352c-4.33-2.379-8.65-5.129-11.47-9.189
	c-4-5.76-4.37-13.379-3.07-20.279s4.11-13.41,6-20.18c2.92-10.5,3.61-21.461,4.271-32.34c0.88-14.32,1.76-28.73,0.229-43.001
	c-1.05-9.83-3.24-19.511-4.89-29.26c-2.431-14.695-3.841-29.54-4.221-44.43c-0.25-8.89,0.16-18.76,6.311-25.17
	c3-3.12,7-5,11.07-6.52c6.83-2.52,14.46-4,21.359-1.7c6.9,2.3,12.461,9.54,10.83,16.63c-0.75,3.29-2.88,6.17-3.399,9.51
	c-0.69,4.42,1.649,8.87,5,11.86C353.2,329.18,380.711,301.78,389.7,286.34z"/>
<path fill="#3F3D56" d="M391.131,246.49c5.472-2.016,11.419-2.364,17.09-1c3.609,0.86,7.51,2.38,10.84,0.77
	c1.21-0.58,2.21-1.53,3.43-2.07c3.3-1.45,7.58,0.33,10.5-1.78c1.84-1.33,2.44-3.75,3.061-5.95
	c3.003-10.501,9.156-19.828,17.63-26.72c-1.05,7.67-1.811,16.4,3.26,22.26c2.311,2.66,5.55,4.33,8.83,5.63
	c4.71,1.87,9.88,3.11,14.85,2.09c4.971-1.02,9.62-4.78,10.41-9.79c-0.17,7.53-7.34,12.79-9.35,20.061
	c-0.76,2.72-0.69,5.61-1.22,8.39c-1.351,7.1-6.421,12.8-10.851,18.52c-14.148,18.398-23.188,40.207-26.2,63.22
	c-0.205,2.731-0.776,5.421-1.7,8c-0.979,1.977-2.089,3.888-3.319,5.72c-7.33,12.379-5.07,28-2.58,42.14
	c3.89,22.149,7.77,43.851,14.07,65.44c1.079,3.689,2.3,7.539,5.05,10.23c-0.87,8.729-9.68,12.709-17.601,16.479
	c-7.819,3.73-15.033,8.615-21.399,14.49c-2.28,2.1-4.53,4.461-5.36,7.451c-0.78,2.809-0.22,5.898-1.22,8.629s-5,4.689-6.76,2.391
	c-2.2-8.23,1.56-16.84,1.39-25.359c-0.12-5.75-2-11.342-2.27-17.092c-0.261-6.51,1.659-12.898,3.699-19.08
	c5.681-17.209,12.54-34.26,14.511-52.27c1.97-18.01-1.71-37.68-14.49-50.53c-15.17-15.32-23.59-36.09-39.851-50.16
	c-2.579-2.23-5.5-5-5.069-8.38c0.297-1.488,0.952-2.882,1.91-4.06c5.58-7.88,13-14.31,19-21.85S392.22,256.09,391.131,246.49z"/>
<path fill="#3F3D56" d="M337.74,262.62c-1,1-1.689,2.38-2.85,3.24c-1.354,0.836-2.899,1.314-4.49,1.39
	c-5.885,0.894-11.819,1.425-17.77,1.59c-5,0-10.19-0.44-15.001,0.93c-6.71,1.9-12.069,7.2-15.43,13.3s-4.95,13-6.24,19.87
	c-2.843,15.136-4.365,30.49-4.55,45.89c8.243-6.573,15.589-14.198,21.851-22.68c4.8-6.51,9.149-13.71,16-18.06
	c3.149-2,6.689-3.32,9.859-5.27c6.61-4.07,11.19-10.65,15.591-17c3.239-4.71,12.609-13.91,13.35-19.55
	C348.69,260.88,341.24,258.25,337.74,262.62z"/>
<path fill="#3F3D56" d="M372.58,168.49c1.235,0.741,2.418,1.567,3.54,2.47c6.79,4.74,15.881,3.86,24.091,2.78
	c2.52-0.32,5.109-0.68,7.27-2c3.47-2.14,5.1-6.54,4.76-10.61c-0.34-4.07-2.39-7.82-4.89-11c-6.693-8.504-16.577-13.896-27.35-14.92
	c-2.761-0.362-5.567-0.063-8.19,0.87c-3.23,1.33-5.66,4.07-8.64,5.9c-8.79,5.4-22.33,3-28,11.62c-4.15,6.36-1.19,15-3.15,22.31
	c-1.46,5.46-5.67,10.43-4.86,16c0.45,3,2.33,5.62,3.83,8.3c3.445,6.161,5.039,13.186,4.59,20.23c3.851,2.72,9.221-1.51,10.29-6.09
	c1.07-4.58-0.159-9.46,0.75-14.08c1.61-8.11,8.771-14.06,12-21.5C360.94,173.44,364.72,164.44,372.58,168.49z"/>
<path fill="#FBBEBE" d="M278.02,257.26c-0.3,1.82-0.49,3.83,0.52,5.37c2,3,6.58,1.92,10.181,2.37c5.609,0.69,9.75,6,10.84,11.58
	s-0.21,11.26-1.63,16.74c-3.214,12.42-7.04,24.664-11.48,36.73c-11.94-1.41-24.51-6-30.85-16.19c-5.761-9.27-5.17-21.08-8.83-31.36
	c-2.57-7.24-7.181-13.54-11.74-19.72c7.33,0.92,12.57-7.46,13-14.84s-1.89-14.87-0.31-22.08c0.369-1.71,29.26,3.68,32.069,5.63
	C287.91,237.12,279.3,249.44,278.02,257.26z"/>
<path opacity="0.1" enable-background="new    " d="M278.02,257.26c-0.3,1.82-0.49,3.83,0.52,5.37c2,3,6.58,1.92,10.181,2.37
	c5.609,0.69,9.75,6,10.84,11.58s-0.21,11.26-1.63,16.74c-3.214,12.42-7.04,24.664-11.48,36.73c-11.94-1.41-24.51-6-30.85-16.19
	c-5.761-9.27-5.17-21.08-8.83-31.36c-2.57-7.24-7.181-13.54-11.74-19.72c7.33,0.92,12.57-7.46,13-14.84s-1.89-14.87-0.31-22.08
	c0.369-1.71,29.26,3.68,32.069,5.63C287.91,237.12,279.3,249.44,278.02,257.26z"/>
<circle fill="#FBBEBE" cx="271.59" cy="206.19" r="39"/>
<path fill="#3F3D56" d="M259.58,251.66c1.42-2.22-1-5.32,0.11-7.71c0.66-1.44,2.33-2.06,3.62-3c1.617-1.317,2.908-2.991,3.77-4.89
	c6.072-11.667,7.91-25.08,5.2-37.95c-0.92-4.32-1.74-10.06,2.21-12c1.095-0.489,2.295-0.695,3.49-0.6c7.12,0.23,14,5,20.91,3.31
	c4.829-1.313,8.337-5.486,8.8-10.47c0.45-6.46-4.391-12-9.15-16.35c-8.569-7.88-21.63-9.63-33.27-9.82l-21.65-0.36
	c-6.93-0.12-14.7,0.1-19.52,5.07c-6.94,7.15-3.45,18.85-4.45,28.76c-0.851,7.91-4.807,15.158-11,20.15
	c-4.49,3.58-10.67,7-10.59,12.72c0,2,0.859,3.82,1.41,5.71c2.21,7.48,0.1,15.75-4.141,22.3c-4.24,6.55-10.439,11.59-16.87,16
	c-3.439,2.35-7,4.61-9.72,7.8c-2.982,3.685-4.753,8.2-5.07,12.93c-0.428,3.614,0.315,7.27,2.12,10.43
	c4.23,6.76,14.38,7.75,21.33,3.83c6.95-3.92,11.19-11.34,14-18.8c1.68-4.43,3.39-9.5,7.69-11.49c5.439-2.53,11.8,1.47,15.34,6.32
	c3.54,4.85,5.72,10.77,10.25,14.71c7.1,6.18,19.18,5.18,25.18-2.08c4.29-5.21,5.24-12.42,5-19.17
	C264.461,261.513,262.721,256.173,259.58,251.66z"/>
<path fill="#2F160F" d="M273.58,302.49c-4.45,0.95-9.1-1.15-12.41-4.29c-3.31-3.14-5.54-7.19-7.859-11.11
	c-5.882-9.888-12.625-19.237-20.15-27.94c-6.56-7.57-15.689-15.26-25.43-12.92c-3.262,0.941-6.287,2.56-8.88,4.75
	c-17.457,13.822-26.586,35.645-24.17,57.78c0.76,6.37,2.489,12.6,3.21,19c0.484,5.275,0.625,10.577,0.42,15.87
	c-0.271,16.121-0.82,33.169-9.511,46.75c-13.47,21-20.68,46.08-30.569,69c-5.34,12.391-8.54,25.58-11.681,38.701
	c-1.859,7.785-3.716,15.57-5.569,23.35l-12.101,50.9c-1.25,5.25-2.5,10.75-1.18,16c2,7.84,9.37,13.32,17.14,15.549
	c7.771,2.23,16,1.85,24.07,1.92c15.44,0.15,31,2.07,45.49,7.43c4.14,1.531,8.27,3.361,12.68,3.721s8.8-0.789,12.931-2.391
	c11.27-4.359,20.93-12,31.31-18.17c6.483-3.906,13.312-7.211,20.4-9.869c3.56-1.33,7.38-2.59,9.829-5.5
	c1.851-2.189,2.681-5.051,3.29-7.85c3.381-15.76,1.11-32.09,0-48.17c-1.109-16.08-10.72-33.07-2.77-47.09
	c1.6-2.83,3.51-5.551,4.33-8.691c1.08-4.1,0.17-8.51,1.08-12.648c0.67-3.061,2.28-5.811,3.38-8.74
	c1.92-5.16,2.18-10.781,2.16-16.291c-0.045-12.098-1.318-24.158-3.8-36c-3.15-15,7.27-29.83,13.239-44
	c2.141-5.07,5.171-9.86,6.061-15.29c0.8-4.9-0.23-9.89-1-14.8c-1.149-7.61-1.618-15.307-1.4-23c0.19-6.9,0.92-13.93-0.729-20.64
	c-1.65-6.71-6.36-13.22-13.13-14.6c-1.537-0.451-3.195-0.19-4.521,0.71c-0.781,0.766-1.332,1.736-1.59,2.8c-2.2,6.74-1.771,14-3,21
	C281.92,294.72,280.48,301.01,273.58,302.49z"/>
<path fill="#BE6F72" d="M179.21,345.44c0.41-2.77-0.88-6.45-3.68-6.35c-2.58,0.1-3.73,3.33-3.72,5.92
	c0.01,2.59,0.359,5.56-1.471,7.38c-1.619,1.61-4.3,1.56-6.18,2.87c-1.347,0.96-2.141,2.516-2.13,4.17c0,1.39,0.63,2.72,0.67,4.109
	c0.04,1.391-0.89,3-2.27,2.91c-1.458,2.446-1.084,5.567,0.909,7.6c0.721,0.701,1.66,1.301,1.9,2.281
	c0.076,0.688,0.021,1.383-0.16,2.049c-0.42,2.75,1.48,5.83,4.25,6.131c-1.55,1.109-1.24,3.71,0.18,5
	c1.421,1.289,3.461,1.539,5.37,1.539c4.335-0.023,8.622-0.91,12.61-2.609c1.365-0.451,2.573-1.283,3.48-2.4
	c0.868-1.189,0.745-2.832-0.29-3.879c1.939,0.319,4.27,0.5,5.54-1c1.77-2.101-0.131-5.211-2-7.24
	c2.185-0.325,3.692-2.359,3.368-4.545c-0.151-1.021-0.692-1.943-1.509-2.576c-0.64-0.469-1.51-0.879-1.6-1.67
	c-0.09-0.789,0.58-1.299,0.859-2c0.641-1.569-0.819-3.17-2.229-4.119c-3.34-2.22-8.26-2.18-11.23-4.42
	C176.91,352.35,178.78,348.44,179.21,345.44z"/>
<path fill="#3F3D56" d="M385.51,193.7c-2.422,0.244-4.859,0.301-7.29,0.17c-0.862-0.094-1.641,0.52-1.75,1.38l-4.65,34.88
	c-0.357,2.532-1.395,4.92-3,6.91c-2.676,3.201-3.903,7.369-3.39,11.51v59.25c0,0-0.3,7.9,5.77,7.9c7.265,0.913,14.615,0.913,21.88,0
	c0,0,4.86-0.92,4.86-8.21v-58.34c0.75-4.12-0.347-8.361-3-11.6c-1.552-1.997-2.555-4.365-2.91-6.87l-4.83-35.61
	C387.087,194.239,386.346,193.64,385.51,193.7z"/>
<path opacity="0.1" enable-background="new    " d="M385.51,193.7c-2.422,0.244-4.859,0.301-7.29,0.17
	c-0.862-0.094-1.641,0.52-1.75,1.38l-4.65,34.88c-0.357,2.532-1.395,4.92-3,6.91c-2.676,3.201-3.903,7.369-3.39,11.51v59.25
	c0,0-0.3,7.9,5.77,7.9c7.265,0.913,14.615,0.913,21.88,0c0,0,4.86-0.92,4.86-8.21v-58.34c0.75-4.12-0.347-8.361-3-11.6
	c-1.552-1.997-2.555-4.365-2.91-6.87l-4.83-35.61C387.087,194.239,386.346,193.64,385.51,193.7z"/>
<path fill="#FFAC63" d="M378.171,249.61h7.369c6.104,0,11.051,4.947,11.051,11.05v27.73c0,6.103-4.947,11.05-11.051,11.05h-7.369
	c-6.104,0-11.051-4.947-11.051-11.05v-27.73C367.12,254.557,372.067,249.61,378.171,249.61z"/>
<path fill="#3F3D56" d="M484.58,42.98c-2.137,1.175-4.363,2.178-6.659,3c-0.827,0.247-1.31,1.105-1.091,1.94l9.141,34
	c0.653,2.468,0.626,5.067-0.08,7.52c-1.246,3.984-0.774,8.308,1.3,11.93l22.82,54.68c0,0,2.76,7.4,8.37,5.06
	c7.062-1.959,13.849-4.801,20.199-8.46c0,0,4.131-2.72,1.33-9.44l-22.47-53.84c-0.895-4.091-3.537-7.585-7.229-9.56
	c-2.199-1.245-4.036-3.04-5.33-5.21l-18.17-31C486.282,42.854,485.342,42.581,484.58,42.98z"/>
<path fill="#FFAC63" d="M499.355,97.415l6.801-2.838c5.633-2.35,12.104,0.31,14.453,5.942l10.68,25.591
	c2.35,5.632-0.311,12.103-5.942,14.453l-6.802,2.838c-5.632,2.351-12.104-0.31-14.453-5.942l-10.679-25.591
	C491.062,106.236,493.722,99.765,499.355,97.415z"/>
<path fill="#FBBEBE" d="M203.95,252.69c-10.75,4.43-15,18.21-12.479,29.55c2.52,11.34,10.109,20.79,17.51,29.78l20.74,25.3
	c5.729,7,12,14.37,20.739,16.81c12.78,3.57,25.561-4.57,36.61-11.93c32.983-21.979,68.241-40.339,105.16-54.76
	c3.61-1.4,7.31-2.82,10.28-5.32c6.16-5.18,7.89-14.73,4.46-22c-3.431-7.27-11.42-12-19.47-12.06
	c-8.051-0.06-15.881,4.2-20.721,10.64c-2.31,3.07-4,6.58-6.229,9.7c-5.641,7.84-14.44,12.69-23.05,17.07
	c-20.761,10.592-42.132,19.942-64.001,28c-4,1.46-8.51,2.85-12.279,0.92c-2.311-1.19-3.87-3.44-5.271-5.64
	c-6.38-10.042-11.454-20.855-15.1-32.18c-2.73-8.5-4.94-17.76-11.5-23.8c-9.301-8.56-26.141-6.51-33.11,4c0,0-8.17,11.95-3.17,16.95
	S203.95,252.69,203.95,252.69z"/>
<path fill="#FBBEBE" d="M764.79,211.31c1.461,3.89,1.5,8.15,1.29,12.3c-0.26,5.06-1.529,11-6.229,12.93
	c-3.061,1.23-6.84,0.3-9.561,2.16c-3.3,2.24-3.14,7.06-2.63,11c1.41,10.83,3,22.06,8.9,31.22c3.17,4.91,7.46,9,11.81,12.91
	c8.67,7.82,18.181,15.46,29.57,18.07c1.855,0.523,3.808,0.605,5.7,0.24c1.866-0.577,3.561-1.607,4.93-3
	c6.601-6.06,10-14.71,14.4-22.55c3.11-5.61,6.82-11,8.57-17.18c2.939-11.015-0.617-22.744-9.181-30.27c-1.95-1.67-4.109-3.07-6-4.8
	c-4.939-4.48-7.819-10.91-9-17.47c-1.18-6.56-1-13.31-0.43-20c-10-0.77-19.93,0.44-29.69,2.39c-4.34,0.87-10.449,1.271-14.38,3.34
	C758.44,204.95,763.58,207.96,764.79,211.31z"/>
<path opacity="0.1" enable-background="new    " d="M764.79,211.31c1.461,3.89,1.5,8.15,1.29,12.3c-0.26,5.06-1.529,11-6.229,12.93
	c-3.061,1.23-6.84,0.3-9.561,2.16c-3.3,2.24-3.14,7.06-2.63,11c1.41,10.83,3,22.06,8.9,31.22c3.17,4.91,7.46,9,11.81,12.91
	c8.67,7.82,18.181,15.46,29.57,18.07c1.855,0.523,3.808,0.605,5.7,0.24c1.866-0.577,3.561-1.607,4.93-3
	c6.601-6.06,10-14.71,14.4-22.55c3.11-5.61,6.82-11,8.57-17.18c2.939-11.015-0.617-22.744-9.181-30.27c-1.95-1.67-4.109-3.07-6-4.8
	c-4.939-4.48-7.819-10.91-9-17.47c-1.18-6.56-1-13.31-0.43-20c-10-0.77-19.93,0.44-29.69,2.39c-4.34,0.87-10.449,1.271-14.38,3.34
	C758.44,204.95,763.58,207.96,764.79,211.31z"/>
<path fill="#FBBEBE" d="M708.99,240.74c-16.239-5.57-24-27.33-41-29.771c-2.68-0.39-5.43-0.24-8.06-0.86
	c-9.79-2.32-14-13.64-16.83-23.29c-9.54-32.17-22-63.65-39.7-92.17c-7.47-12-19.28-21.86-24.67-35c-1.24-3-1.87-6.42-4.1-8.79
	c-2.23-2.37-7-2.71-8.21,0.31c-0.338,1.07-0.413,2.205-0.221,3.31l1.17,12.45l-20.34-1.83c-1.881-0.321-3.812-0.184-5.63,0.4
	c-1.962,0.982-3.526,2.61-4.43,4.61c-6.88,12.93,0.45,29.87,12.59,38.05c14.18,9.55,34.43,11,43.85,25.25
	c5.601,8.48,5.71,19.39,9.4,28.86c1.76,4.53,4.33,8.69,6.38,13.08c3.91,8.37,5.91,17.47,8.94,26.19
	c4.34,12.47,10.77,24.09,17.18,35.64c4.94,8.92,10,18,17.6,24.82c5,4.48,10.88,7.8,16.761,11c14.46,7.9,31.51,15.5,46.83,9.44
	C717.381,268.78,713.95,253.55,708.99,240.74z"/>
<path fill="#FBBEBE" d="M758.301,671.219c-1.23,13.051-9.15,24.871-11,37.432c-12.2-1.91-24.21-4.371-35.83-7.17
	c-1.431-0.342-2.851-0.691-4.28-1c6.58-18,0.85-38.16,2.59-57.33c0.17-1.842,0.41-3.682,0.73-5.5c15.069-5.141,28.68-12,44.479-10
	c0.311,3.199,0.63,6.408,0.94,9.609c0.633,6.393,1.26,12.779,1.88,19.16C758.444,661.327,758.608,666.282,758.301,671.219z"/>
<path fill="#FBBEBE" d="M862.52,703.86c-5.92,1.801-12,3.371-18.35,4.66c-1.061,0.221-2.131,0.43-3.2,0.631
	c-6.5,1.219-13.08,2.109-19.73,2.719c-0.68-13.9-10-26.68-11.359-40.949c-0.278-3.547-0.242-7.111,0.109-10.65
	c0.12-1.4,0.261-2.801,0.391-4.199l2.819-28.771c2.245-0.281,4.509-0.393,6.771-0.33c13,0.311,24.83,5.941,37.71,10.33
	c0.96,6.07,1.295,12.223,1,18.361c-0.49,15.619-3,31.43,2.8,45.76C861.81,702.231,862.171,703.04,862.52,703.86z"/>
<path fill="#2F160F" d="M693.72,484.52c1.75,13.641-5.22,26.699-8.24,40.109c-2,8.871-2.27,18-2.54,27.102l-1.58,54.51
	c-0.16,5.449-0.3,11,1.36,16.229c3.34,10.48,13.63,17.561,24.34,20.08c10.71,2.521,21.91,1.24,32.82-0.199
	c5.35-0.711,10.93-1.541,15.359-4.631c6.091-4.25,8.75-11.818,11.05-18.879l6.49-19.93c7.471,16.82,4.311,35.209,8.79,53.059
	c0.288,1.65,0.975,3.207,2,4.531c1.891,2.1,5,2.43,7.83,2.629c19.601,1.381,39.47,2.75,58.75-1c5.3-1,10.83-2.619,14.49-6.6
	c4.26-4.629,5-11.439,4.95-17.73c-0.271-21.609-8.08-42.459-9.82-64c-0.75-9.229-0.38-18.51-0.71-27.77
	c-0.26-6.965-0.911-13.908-1.95-20.799c-0.33-3.158-1.196-6.234-2.56-9.102c-3-5.6-9.23-8.639-15.13-11
	C793.58,482.51,743.16,482.69,693.72,484.52z"/>
<circle fill="#FBBEBE" cx="778.591" cy="173.19" r="43"/>
<path fill="#E3E8F4" d="M816.07,248.93c-3.189,7-8.21,14-15.68,15.78c-6.87,1.65-14.15-1.66-19.21-6.59
	c-5.061-4.93-8.37-11.33-11.88-17.46c-2.561-4.48-5.41-9-9.74-11.82c-5.92-3.84-13.56-3.74-20.54-2.61s-13.91,3.15-21,2.69
	c-8.83-0.59-17.83-5-26.16-2.06c2.7,12.08,1.73,25.36,1.42,37.74c0.053,1.912-0.218,3.818-0.8,5.64
	c-0.728,1.698-1.708,3.276-2.91,4.68l-8,10.31c8.58,6.42,16,14.8,19,25.09c1.69,5.86,1.17,12.08,1.11,18.18
	c-0.19,17.91,3.7,35.75,2.47,53.62c-1.439,20.93-9.8,40.711-14.11,61.24c-3.691,17.625-4.388,35.744-2.06,53.6
	c44.82,15.51,91,23.451,138.38,26.051c8.37,0.459,17.41,0.529,24.28-4.281c5.71-4,8.91-10.85,10-17.75
	c1.09-6.898,0.34-13.92-0.42-20.859c-2.061-18.766-4.117-37.533-6.17-56.299c-1.17-10.682-2.34-21.42-1.58-32.131
	c0.57-8,2.21-15.85,3.84-23.68l10-48.06c1.43-6.83,2.87-13.71,5.7-20.08c2.32-5.2,5.53-10,8.09-15.06
	c3.052-6.067,5.156-12.566,6.24-19.27c0.434-1.946,0.406-3.967-0.08-5.9c-1.07-3.28-4.34-5.25-7.391-6.86
	c-18.598-9.774-38.53-16.766-59.159-20.75C818.31,237.92,818.58,243.44,816.07,248.93z"/>
<path fill="#3F3D56" d="M811.921,220.13c5-9.58,14.35-16.3,19.779-25.66c6.091-10.769,6.547-23.833,1.221-35
	c-1.91-3.9-4.5-7.479-6-11.56c-1.67-4.64-1.83-9.75-3.761-14.29c-2.649-6.22-8.39-10.7-14.64-13.28s-13-3.51-19.73-4.41l-22.72-3.06
	c-3.29-0.44-6.7-0.88-9.899,0c-3.2,0.88-6.181,3.49-6.44,6.81c-0.31,3.93,3.14,7.59,2.34,11.45c-0.29,1.36-1.09,2.74-0.63,4.06
	c0.41,0.882,1.118,1.59,2,2c5.391,3,11.83,3.27,17.67,5.23s11.7,6.88,11.11,13c-0.32,3.29-2.44,6.71-1,9.66
	c1.38,2.73,5,3.23,7.89,4.08c9.351,2.71,15.91,12.85,14.55,22.5c-0.42,3-1.5,5.87-1.72,8.88c-0.729,10.54,0.93,13.55,9.54,19.68
	L811.921,220.13z"/>
<path fill="#BE6F72" d="M870.33,265.71c0.047,1.996-0.317,3.98-1.069,5.83c-3.12,6.65-12.67,6.23-19,10
	c-7.88,4.7-9.62,15.19-10.34,24.33c-0.82,10.35-1.381,20.85,0.739,31c2.12,10.15,7.221,20.05,15.74,26
	c10.37,7.211,24.47,7.461,36.31,3.07c11.841-4.391,21.73-12.88,30.311-22.16c8.14-8.8,15.43-18.61,19.8-29.78
	c0.771-2,1.45-4.12,0.83-6.12c-0.93-3-4.2-4.36-6.86-6c-6.21-3.75-10.35-10.29-12.5-17.2c-2.149-6.91-2.51-14.26-2.58-21.51
	c-0.079-7.53-0.1-15.76-4.899-21.57s-13.12-7.44-20.7-7.38c-6.2,0-23.36,0.59-27.59,6C865.051,244.72,870.58,259.27,870.33,265.71z"
	/>
<path opacity="0.1" enable-background="new    " d="M870.33,265.71c0.047,1.996-0.317,3.98-1.069,5.83c-3.12,6.65-12.67,6.23-19,10
	c-7.88,4.7-9.62,15.19-10.34,24.33c-0.82,10.35-1.381,20.85,0.739,31c2.12,10.15,7.221,20.05,15.74,26
	c10.37,7.211,24.47,7.461,36.31,3.07c11.841-4.391,21.73-12.88,30.311-22.16c8.14-8.8,15.43-18.61,19.8-29.78
	c0.771-2,1.45-4.12,0.83-6.12c-0.93-3-4.2-4.36-6.86-6c-6.21-3.75-10.35-10.29-12.5-17.2c-2.149-6.91-2.51-14.26-2.58-21.51
	c-0.079-7.53-0.1-15.76-4.899-21.57s-13.12-7.44-20.7-7.38c-6.2,0-23.36,0.59-27.59,6C865.051,244.72,870.58,259.27,870.33,265.71z"
	/>
<path fill="#BE6F72" d="M817.01,533.889c0.31,1.525,1.028,2.936,2.08,4.08c0.987,0.781,2.14,1.324,3.37,1.592
	c32.819,9.629,67.88,5.789,101.859,1.859c-4.649-14.16-9.33-28.48-10.62-43.33c-1.069-12.25,0.13-25-4.21-36.49
	c-1.28-3.4-75.88,12.25-83.239,13.52c-3.771,0.65-8.11,0.43-10.78,3.42c-3.22,3.621-3.49,12.24-3.83,16.75
	C810.68,508.321,813.37,521.44,817.01,533.889z"/>
<path fill="#BE6F72" d="M891.74,692.629c-6,2.781-12.189,5.371-18.6,7.691c-3.467,1.26-7.007,2.439-10.62,3.539
	c-5.92,1.801-12,3.371-18.35,4.66c-3.62-9.18-7.244-18.363-10.87-27.551c-2.67-6.76-5.34-13.549-7.57-20.459
	c-1.551-4.719-2.826-9.523-3.82-14.391c-3.273-16.541-2.422-33.635,2.48-49.77c13.86,2.609,27.41,4.311,41.06,6.289
	c7.29,1,14.601,2.182,22,3.57c0.58,4.82,1.107,9.641,1.58,14.461c0.721,7.439,1.311,14.879,1.771,22.32
	C891.82,659.524,892.134,676.071,891.74,692.629z"/>
<path opacity="0.1" enable-background="new    " d="M891.74,692.629c-6,2.781-12.189,5.371-18.6,7.691
	c-3.467,1.26-7.007,2.439-10.62,3.539c-5.92,1.801-12,3.371-18.35,4.66c-3.62-9.18-7.244-18.363-10.87-27.551
	c-2.67-6.76-5.34-13.549-7.57-20.459c-1.551-4.719-2.826-9.523-3.82-14.391c-3.273-16.541-2.422-33.635,2.48-49.77
	c13.86,2.609,27.41,4.311,41.06,6.289c7.29,1,14.601,2.182,22,3.57c0.58,4.82,1.107,9.641,1.58,14.461
	c0.721,7.439,1.311,14.879,1.771,22.32C891.82,659.524,892.134,676.071,891.74,692.629z"/>
<path fill="#BE6F72" d="M968.64,649.299c0.08,5.76-1.561,11.641-3.08,17.291c-0.11,0.4-0.21,0.789-0.31,1.189
	c-3.617-1.127-6.735-3.465-8.83-6.619c-1.082-1.711-1.883-3.586-2.37-5.551c-4.527,3.08-9.094,6.131-13.7,9.15
	c-15.07,9.9-31,19.73-48.61,27.869c-6,2.781-12.189,5.371-18.6,7.691c-1.333-4.668-2.601-9.363-3.8-14.09
	c-1.312-4.867-2.34-9.805-3.08-14.791c-1.465-11.322-0.33-22.832,3.319-33.65l0,0l0.45-1.299c1.699-4.812,3.895-9.434,6.55-13.791
	c2.49-4,7.421-3.33,12.45-2c2.28,0.59,4.59,1.301,6.69,1.74c13.069,2.74,26.64-0.09,40,0.66c6.366,0.318,12.605,1.906,18.35,4.67
	c6.431,3.23,11.61,8.17,13.641,15c0.288,0.984,0.509,1.986,0.659,3C968.539,646.94,968.629,648.118,968.64,649.299z"/>
<path fill="#BE6F72" d="M728.06,188.75c-20.65-20-44.12-36.95-68.13-52.8c-6.248-3.918-12.258-8.203-18-12.83
	c-6-5-11.23-10.87-17.601-15.37c-6.369-4.5-14.25-7.59-21.899-6.11c-7.65,1.48-14.45,8.8-13.33,16.46c1,6.74,7.06,11.36,12.66,15.23
	c10.6,7.33,21.25,14.68,32.779,20.43c4.006,1.816,7.891,3.887,11.631,6.2c7.18,4.84,12.409,12,17.84,18.73
	c20.495,25.458,45.599,46.83,74,63c0.34,0.2,12.17-25.33,11.67-28.64C748.58,205.44,733.501,194.03,728.06,188.75z"/>
<path fill="#3F3D56" d="M904.68,511.911c-15.94,1-31.23,6.379-46.82,9.809c-15.59,3.432-32.53,4.762-47-2l8.8,60.09
	c0.49,3.342,1,6.762,0.271,10.051c-0.67,3.141-2.41,6.1-2.26,9.311c0.229,5.08,5,8.65,9.489,11
	c13.044,6.887,27.658,10.254,42.4,9.77c-1.09,4.4-2.45,8.75-3.55,13.15c7.35,7.891,19.37,8.42,29.859,10.92
	c8,1.891,15.5,5.17,23.341,7.48c9.48,2.797,19.325,4.17,29.21,4.068c6.67-0.068,13.739-1,18.92-5.158
	c6.37-5.131,8.35-13.852,9.729-21.91c0.771-4.5,1.48-9.061,1-13.602c-0.52-5.219-2.54-10.158-4.54-15l-13.7-33.25
	c-2.489-6-5-12.09-8-17.879C942.03,530.03,925.77,510.6,904.68,511.911z"/>
<path fill="#FFAC63" d="M916.881,304.29c2.436-6.399,8.896-10.337,15.699-9.57c4,0.561,7.57,2.75,11,4.89l19.101,11.92
	c3.165,1.883,6.201,3.974,9.09,6.26c13.17,10.92,18.25,28.87,19.7,45.919c1.45,17.051,0,34.391,3.39,51.16
	c-8.06,6.68-17,12.33-25.06,19c-4.22,3.49-8.49,7-11.69,11.49c-2.54,3.529-4.35,7.57-7,11c-4.339,5.422-10.635,8.92-17.53,9.74
	c4.37,2.539,6.82,7.471,8,12.381c1.181,4.908,1.5,10,2.811,14.908c1.8,6.67,5.53,12.762,6.76,19.561c0.86,4.689,0.48,9.5,0.79,14.26
	c1.561,24.631,20.89,46.16,19.64,70.801c-9.123-3.316-17.756-7.854-25.659-13.49c-3.561-2.551-7-5.311-10.37-8.061l-25.47-20.65
	c-12.391-10-24.9-20.219-34.75-32.779c-6.181-7.879-11.221-16.6-17.421-24.459c-6.199-7.861-13.829-15-23.3-18.301
	c-1.39,2.09-3.859,3.539-5.25,5.631c-0.245,0.328-0.44,0.693-0.58,1.08c-0.169,0.932-0.054,1.893,0.33,2.76
	c1.117,4.043,1.788,8.199,2,12.389l0.63,7.521c0.235,1.992,0.235,4.006,0,6c-0.949,6.43-6.909,11.42-13.34,12.42
	c-0.93,0.199-1.895,0.17-2.81-0.09c-1.79-0.602-2.78-2.49-3.32-4.291c-2.53-8.539,1.35-17.551,1.66-26.439
	c0.043-2.256-0.033-4.514-0.23-6.76l-0.6-8.871c-5.81-1.209-9.15-7.449-10.69-13.18c-4.159-15.471-8.35-31.48-5.939-47.32
	c0.64-4.24,1.76-8.539,1-12.779c-1-5.67-5.08-10.27-7.23-15.61c-7-17.41,7.87-36.31,6.49-55c-0.58-7.85-5.56-14.67-8.56-21.95
	c-1.553-4.243-3.565-8.304-6-12.11c-3.061-4.37-7.19-7.87-11.2-11.39c-12.385-10.866-24.131-22.439-35.18-34.66
	c-5.675-0.589-10.999-3.027-15.15-6.94c-2.64-2.5-4.81-5.8-4.88-9.43s2.609-7.44,6.24-7.63c2.119-0.11,4.1,0.94,6.17,1.4
	c6.479,1.42,13-3.35,15.89-9.34c2.89-5.99,2.89-12.88,2.84-19.52c6.44-1.144,13.011,1.158,17.33,6.07
	c4.47,4.86,7.38,10.92,10.9,16.5c1.433,2.479,3.271,4.7,5.439,6.57c4.811,3.82,11.74,4.54,15.94,9c2.13,2.28,3.31,5.3,5.26,7.74
	c5.48,6.87,15.51,7.71,23,12.23s12.7,12.78,21,15.46c3,1,6.271,1.13,9.24,2.24c6.859,2.55,11.05,9.84,12,17.09
	s-0.67,14.58-2.311,21.72l-3.85,16.71c-0.85,3.7-1.5,8.15,1.23,10.79c1.289,1.067,2.804,1.83,4.43,2.23c7,2.28,14.8,4.52,21.38,1.29
	c3.11-1.54,5.55-4.14,7.78-6.8C905.43,333.5,911.921,318.44,916.881,304.29z"/>
<path fill="#BE6F72" d="M995.81,644.34c-1.38,9.15-6.42,18.15-14.67,22.34c-4.947,2.439-10.654,2.834-15.89,1.1
	c-3.617-1.127-6.735-3.463-8.83-6.619c-1.082-1.711-1.883-3.586-2.37-5.551c0-0.1-0.05-0.209-0.07-0.311
	c-0.752-3.537-1.063-7.154-0.93-10.77c-0.003-5.611,0.331-11.219,1-16.789c0.558-4.691,1.48-9.332,2.76-13.881
	c1.86-6.49,4.54-12.74,7-19c1.28-3.299,2.51-6.609,3.52-10l0,0c0.61-2,1.131-4.061,1.551-6.141l0.149-0.75
	c0.08-0.42,0.15-0.84,0.221-1.26c1-5.699,1.289-11.6,3.859-16.75c6-12.09,17.68-9,19.46,2.15c0.135,0.863,0.212,1.736,0.23,2.609
	c0.27,14.111-5.33,27.9-2.771,42.061c0.723,3.453,1.63,6.865,2.72,10.221c0.9,3.09,1.71,6.219,2.33,9.389
	C996.336,632.29,996.583,638.358,995.81,644.34z"/>
<path fill="#FFAC63" d="M1001.31,487.44c0.27,5.779,0,11.631,1.16,17.301c2.71,13.398,13,25.26,11.859,38.879
	c-0.279,3.32-1.51,6.891-4.409,8.531c-2.9,1.639-7.7,1.51-8.65,4.809c-0.271,0.92-0.13,1.92-0.43,2.83c-0.631,1.941-3,2.771-5,2.721
	s-4-0.711-6.07-0.541c-7.25,0.611-9.91,10.311-16.37,13.641c-4.35,2.24-10,1-13.59-2.311c-3.59-3.309-5.16-8.469-4.88-13.359
	c0.21-3.689,1.38-7.25,2-10.891c1.13-6.488,0.54-13.139-0.051-19.699c-0.869-9.609-1.77-19.34-4.93-28.449
	c-1.49-4.301-3.47-8.41-4.76-12.771c-1.84-6.17-2.26-12.66-2.45-19.09c-0.39-13.529,0.54-28,8.62-38.879
	c6.07-8.16,14.77-14.791,21.64-22.34c4.301-4.73,5.54-6.211,10.29-2.201c3.91,3.291,8,7.83,8.44,12.291
	c1.2,11.43,0,22.67,2.14,34.309C998.01,463.86,1000.751,475.491,1001.31,487.44z"/>
<circle fill="#BE6F72" cx="897.591" cy="216.19" r="51"/>
<path fill="#3F3D56" d="M944.29,313.75c1.12-1.57,2.45-3.26,4.351-3.59c1.435-0.108,2.87,0.193,4.14,0.87l13.431,5.61
	c3.629-5.994,5.769-12.77,6.239-19.76c0.28-4.29-0.06-8.64,0.761-12.86c1.22-6.26,4.93-11.87,5.79-18.19
	c0.68-5.1-0.551-10.23-1.29-15.32c-2.28-15.72,0.17-31.76-1.141-47.59c-1.31-15.83-7.66-32.79-21.78-40.06c-4-2-8.31-3.2-12.47-4.78
	c-9.27-3.53-17.58-9.18-26.74-13c-9.159-3.82-19.92-5.57-28.8-1.18s-14.05,16.74-8.279,24.8c1.899,2.65,4.68,4.53,7.34,6.44
	c5.41,3.87,10.93,8.65,12.18,15.19c2.24,11.77-10,21-13.45,32.51c-1.273,4.495-1.387,9.239-0.33,13.79c1.49,6.82,5.13,13.26,5,20.24
	c-0.1,7.65-4.68,14.58-5.54,22.19c-0.31,2.79-0.12,5.62-0.47,8.4c-0.616,3.667-1.702,7.24-3.229,10.63c-8,20-16.11,40.21-28,58.19
	c12.729,0.216,25.314-2.725,36.63-8.56c-1.626,7.708-4.741,15.024-9.17,21.54c10.174-1.178,19.961-4.593,28.659-10
	c-2.11,7.558-5.168,14.818-9.1,21.609c0.34-0.58,6.63-2,7.79-2.66c2.385-1.355,4.302-3.402,5.5-5.869
	c3.4-6.08,5.521-13.41,8.67-19.73C927.716,339.063,935.51,326.069,944.29,313.75z"/>
<path fill="#3F3D56" d="M557.51,7.7c-2.422,0.244-4.859,0.301-7.29,0.17c-0.862-0.094-1.641,0.52-1.75,1.38l-4.65,34.88
	c-0.357,2.532-1.395,4.92-3,6.91c-2.676,3.201-3.903,7.369-3.39,11.51v59.25c0,0-0.3,7.9,5.77,7.9c7.265,0.913,14.615,0.913,21.88,0
	c0,0,4.86-0.92,4.86-8.21V63.15c0.75-4.12-0.347-8.361-3-11.6c-1.552-1.997-2.555-4.365-2.91-6.87L559.2,9.07
	C559.087,8.239,558.346,7.64,557.51,7.7z"/>
<path fill="#FFAC63" d="M550.171,63.61h7.369c6.104,0,11.051,4.947,11.051,11.05v27.73c0,6.103-4.947,11.05-11.051,11.05h-7.369
	c-6.104,0-11.051-4.947-11.051-11.05V74.66C539.12,68.557,544.067,63.61,550.171,63.61z"/>
<path fill="#3F3D56" d="M626.51,58.7c-2.422,0.244-4.859,0.301-7.29,0.17c-0.862-0.094-1.641,0.52-1.75,1.38l-4.65,34.88
	c-0.357,2.532-1.395,4.92-3,6.91c-2.676,3.201-3.903,7.369-3.39,11.51v59.25c0,0-0.3,7.9,5.77,7.9c7.265,0.913,14.615,0.913,21.88,0
	c0,0,4.86-0.92,4.86-8.21v-58.34c0.75-4.12-0.347-8.361-3-11.6c-1.552-1.997-2.555-4.365-2.91-6.87l-4.83-35.61
	C628.087,59.239,627.346,58.64,626.51,58.7z"/>
<path fill="#FFAC63" d="M619.171,114.61h7.369c6.104,0,11.051,4.947,11.051,11.05v27.73c0,6.103-4.947,11.05-11.051,11.05h-7.369
	c-6.104,0-11.051-4.947-11.051-11.05v-27.73C608.12,119.557,613.067,114.61,619.171,114.61z"/>
<g>
	<path fill="#3F3D56" d="M548.95,656.231c-0.031,1.078-0.155,2.152-0.37,3.209c-6.96-1.107-13.96-2.107-21-3c0-0.279,0-0.57,0-0.859
		c0.065-3,0.929-5.926,2.5-8.48c2.061-3.26,5.19-5.301,8.641-5.189c3.45,0.109,6.439,2.34,8.29,5.709
		C548.41,650.266,549.079,653.239,548.95,656.231z"/>
	
		<ellipse transform="matrix(-0.9995 -0.0316 0.0316 -0.9995 1057.1921 1294.3259)" fill="#3F3D56" cx="538.817" cy="638.815" rx="10.7" ry="14.009"/>
	
		<ellipse transform="matrix(-0.9995 -0.0316 0.0316 -0.9995 1058.8242 1260.1135)" fill="#3F3D56" cx="539.363" cy="621.696" rx="10.7" ry="14.011"/>
	
		<ellipse transform="matrix(-0.9995 -0.0316 0.0316 -0.9995 1060.4349 1225.8967)" fill="#3F3D56" cx="539.898" cy="604.575" rx="10.7" ry="14.009"/>
	
		<ellipse transform="matrix(-0.9995 -0.0316 0.0316 -0.9995 1062.0671 1191.6804)" fill="#3F3D56" cx="540.444" cy="587.454" rx="10.7" ry="14.009"/>
	<path fill="#FFAC63" d="M504.051,468.991c-1.408-1.908-2.679-3.912-3.8-6l28.26-3.73l-30.42-0.73
		c-5.486-13.014-5.375-27.711,0.31-40.641l40.12,22.451l-36.75-28.84c14.894-24.09,46.495-31.543,70.584-16.649
		s31.543,46.495,16.648,70.585c-1.314,2.125-2.782,4.152-4.393,6.064c2.19,2.965,4.052,6.16,5.55,9.529l-37.09,17.801L592.4,487
		c5.032,16.604,1.338,34.625-9.82,47.91c16.804,22.797,11.943,54.9-10.854,71.703s-54.9,11.943-71.704-10.855
		c-14.046-19.057-13.22-45.254,1.999-63.389c-14.041-19.057-13.215-45.246,2-63.379H504.051z"/>
	<path fill="#FFAC63" d="M594.58,503.571c-0.35,11.5-4.579,22.545-12,31.34c16.804,22.797,11.943,54.9-10.854,71.703
		s-54.9,11.943-71.704-10.854c-14.046-19.059-13.22-45.256,1.999-63.391C495.45,523.44,594.76,497.821,594.58,503.571z"/>
</g>
</svg>
