<?xml version="1.0" encoding="utf-8"?>
<!-- Generator: Adobe Illustrator 16.0.0, SVG Export Plug-In . SVG Version: 6.00 Build 0)  -->
<!DOCTYPE svg PUBLIC "-//W3C//DTD SVG 1.1//EN" "http://www.w3.org/Graphics/SVG/1.1/DTD/svg11.dtd">
<svg version="1.1" id="Layer_1" xmlns="http://www.w3.org/2000/svg" xmlns:xlink="http://www.w3.org/1999/xlink" x="0px" y="0px"
	 width="1892px" height="1892px" viewBox="0 0 1892 1892" enable-background="new 0 0 1892 1892" xml:space="preserve">
<g>
	<path fill-rule="evenodd" clip-rule="evenodd" fill="#2F160F" d="M1352.873,1275.901c0-21.152,0.166-42.307-0.039-63.457
		c-0.298-30.654-0.391-61.323-1.48-91.953c-0.738-20.753-2.854-41.468-4.729-62.166c-0.75-8.272-5.146-15.022-11.153-20.684
		c-0.727-0.685-1.735-1.179-2.217-1.995c-1.203-2.04-2.179-4.215-3.245-6.336c2.071-0.834,4.122-2.328,6.22-2.396
		c13.486-0.439,26.981-0.623,40.475-0.78c15.162-0.176,30.326-0.234,45.489-0.345c0.166-0.001,0.35-0.045,0.497,0.009
		c3.259,1.185,6.514,2.38,9.77,3.573c-1.408,2.841-2.203,6.296-4.33,8.417c-10.348,10.325-14.314,22.858-14.356,37.131
		c-0.23,78.984-0.79,157.968-0.741,236.951c0.032,50.813,0.897,101.628,1.427,152.44c0.258,24.819,0.19,49.651,1.064,74.449
		c0.497,14.098,1.508,28.364,4.363,42.124c1.84,8.862,7.435,16.949,11.384,25.366c0.613,1.309,1.427,2.522,2.588,4.549
		c-2.236,0.185-3.778,0.417-5.322,0.422c-19.331,0.06-38.664-0.055-57.992,0.213c-5.205,0.072-7.437-1.772-8.24-6.908
		c-4.017-25.643-8.206-51.26-12.508-76.856c-8.438-50.211-16.965-100.406-25.507-150.599c-3.099-18.206-6.34-36.388-9.533-54.577
		c-0.225-1.276-0.595-2.526-1.753-3.789c-0.224,1.85-0.641,3.7-0.643,5.551c-0.04,30.664-0.395,61.333,0.056,91.99
		c0.73,49.804,1.94,99.602,3.106,149.397c0.151,6.464,0.998,12.943,1.964,19.35c1.256,8.332,5.081,15.423,11.463,21.061
		c1.288,1.139,2.418,2.455,4.612,4.706c-3.162,0.229-4.89,0.458-6.617,0.462c-22.497,0.059-44.995,0.093-67.492,0.115
		c-7.55,0.007-8.374-0.725-8.337-8.242c0.186-37.653,0.557-75.306,0.625-112.959c0.081-44.662,0.016-89.324-0.171-133.984
		c-0.122-29.486-0.579-58.972-0.869-88.457c-0.383-38.818-0.663-77.639-1.156-116.455c-0.276-21.82-0.964-43.635-1.33-65.453
		c-0.231-13.797-3.889-26.604-10.519-38.621c-2.172-3.938-4.542-7.767-6.66-11.731c-2.938-5.5-1.545-8.192,4.785-8.419
		c8.153-0.291,16.327-0.128,24.49-0.041c13.325,0.141,26.649,0.385,39.974,0.573c7.108,0.102,8.796,1.235,10.035,8.36
		c4.416,25.403,8.62,50.843,12.951,76.261c7.797,45.763,15.629,91.518,23.439,137.277c1.204,7.056,2.342,14.124,3.568,21.177
		c0.327,1.88,0.871,3.723,1.315,5.583C1352.02,1276.104,1352.446,1276.002,1352.873,1275.901z"/>
	<path fill-rule="evenodd" clip-rule="evenodd" fill="#2F160F" d="M1639.757,1610.901c-1.62,0.106-3.362,0.32-5.104,0.32
		c-55.994,0.018-111.989,0.02-167.983,0.009c-7.139-0.001-7.971-0.856-7.867-8.165c0.602-42.472,1.551-84.941,1.746-127.414
		c0.184-39.98-0.491-79.963-0.656-119.945c-0.156-37.99-0.222-75.981-0.18-113.973c0.046-41.482,0.055-82.967,0.508-124.445
		c0.175-15.952,0.271-32.082,2.634-47.795c3.992-26.56,21.538-42.45,48.274-43.354c37.117-1.256,74.285-1.046,111.433-1.266
		c4.786-0.028,9.57,1.213,14.372,1.712c4.119,0.429,4.017,3.029,2.759,5.679c-1.052,2.218-2.767,4.147-4.329,6.093
		c-7.799,9.709-11.782,20.878-12.059,33.217c-0.753,33.636-1.671,67.276-1.779,100.918c-0.13,40.148,0.564,80.299,0.807,120.449
		c0.23,38.15,0.463,76.302,0.464,114.453c0,37.654-0.701,75.312-0.278,112.96c0.21,18.773,1.804,37.568,3.62,56.271
		c1.073,11.047,5.657,21.162,12.338,30.179c0.586,0.79,1.046,1.684,1.481,2.569
		C1640.074,1609.611,1639.889,1609.998,1639.757,1610.901z M1520.223,1230.716c0.166,0.001,0.333,0.001,0.499,0.001
		c0.507,35.132,0.976,70.264,1.542,105.395c0.174,10.81,0.393,21.629,1.013,32.419c0.381,6.64,2.409,7.468,8.207,4.079
		c6.468-3.78,12.704-8.01,19.386-11.355c7.039-3.525,9.765-9.089,9.838-16.496c0.301-30.45,0.894-60.902,0.806-91.352
		c-0.07-24.465-1.043-48.926-1.475-73.391c-0.532-30.135-0.906-60.271-1.38-90.406c-0.089-5.69-1.476-7.139-7.029-7.335
		c-3.325-0.118-6.674-0.18-9.986,0.063c-16.21,1.193-21.354,6.478-21.39,22.488
		C1520.161,1146.79,1520.223,1188.753,1520.223,1230.716z M1522.011,1501.269c-0.483,0.015-0.966,0.029-1.448,0.044
		c1.244,25.758,2.416,51.52,3.769,77.272c0.575,10.938,4.386,20.449,13.441,27.286c4.522,3.414,7.065,3.558,9.979-1.139
		c3.905-6.292,8.095-12.892,9.823-19.934c2.313-9.424,3.066-19.38,3.304-29.137c1.05-43.101,2.194-86.217-0.967-129.291
		c-0.419-5.705-1.414-6.337-6.266-3.632c-8.578,4.785-17.069,9.724-25.643,14.516c-3.994,2.231-6.057,5.359-6.031,10.072
		C1522.066,1465.308,1522.011,1483.288,1522.011,1501.269z"/>
	<path fill-rule="evenodd" clip-rule="evenodd" fill="#2F160F" d="M519.217,1610.82c-30.271,0-60.516,0-92.011,0
		c1.47-2.975,2.315-5.417,3.744-7.449c6.337-9.012,9.486-19.123,9.773-29.963c0.675-25.477,1.191-50.962,1.371-76.446
		c0.378-53.653,0.771-107.309,0.659-160.962c-0.151-72.325-0.538-144.652-1.346-216.974c-0.225-20.103-2.253-40.188-3.535-60.275
		c-0.641-10.024-6.145-17.729-12.186-25.208c-1.348-1.669-1.935-3.951-2.872-5.952c1.955-0.67,3.88-1.803,5.87-1.93
		c7.965-0.509,15.949-0.946,23.928-0.975c26.333-0.092,52.684-0.536,78.991,0.282c11.496,0.357,23.728,1.439,34.187,5.714
		c22.018,8.999,34.297,27.682,38.095,50.422c3.438,20.594,4.666,41.684,5.231,62.599c0.766,28.291,0.076,56.626-0.218,84.939
		c-0.112,10.809-0.221,21.684-1.453,32.398c-2.295,19.953-12.712,34.292-31.562,42.106c-1.956,0.811-3.73,2.06-6.425,3.576
		c2.037,1.817,3.456,3.293,5.079,4.493c4.55,3.364,9.406,6.348,13.742,9.961c13.053,10.875,19.642,25.071,19.945,41.953
		c0.862,47.97,1.347,95.946,2.288,143.914c0.628,31.974,1.805,63.938,2.687,95.907c0.211,7.659-0.552,8.38-8.082,8.384
		c-21.5,0.013-43,0.011-64.5-0.007c-1.781-0.002-3.562-0.161-5.82-0.271c0.454-1.446,0.516-2.481,1.035-3.171
		c8.619-11.447,11.438-24.605,11.405-38.582c-0.138-59.65-0.209-119.303-0.563-178.952c-0.061-10.306-1.119-20.629-2.166-30.898
		c-1.49-14.615-8.262-21.238-22.85-23.083c-15.751-1.991-18.326,0.231-18.326,15.824c0,20.666-0.2,41.335,0.041,61.999
		c0.519,44.478,0.931,88.962,2.114,133.424c0.37,13.902,2.396,27.871,4.983,41.561
		C511.851,1596.471,516.046,1603.229,519.217,1610.82z M503.329,1186.866c0,29.153-0.023,58.308,0.02,87.461
		c0.01,6.192,1.7,7.604,7.945,7.028c5.141-0.476,10.288-0.908,15.411-1.539c8.874-1.094,14.12-5.384,15.925-14.103
		c1.478-7.138,2.729-14.475,2.775-21.731c0.301-47.444,1.609-94.927-3.75-142.227c-1.25-11.029-5.871-16.951-15.175-18.289
		c-5.578-0.802-11.271-0.804-16.908-1.204c-4.11-0.293-5.667,1.782-5.715,5.678c-0.082,6.654-0.483,13.307-0.498,19.96
		C503.298,1134.222,503.334,1160.544,503.329,1186.866z"/>
	<path fill-rule="evenodd" clip-rule="evenodd" fill="#2F160F" d="M755.599,1459.014c0-27.661,0.066-55.323-0.013-82.984
		c-0.201-70.814-0.557-141.629-0.657-212.444c-0.032-22.964,0.355-45.933,0.864-68.893c0.847-38.187,22.305-66.173,58.678-72.852
		c21.277-3.906,43.261-3.239,62.975,8.623c18.248,10.98,31.136,26.796,35.822,47.358c3.288,14.422,3.514,29.69,3.84,44.609
		c0.79,36.139,0.869,72.294,1.174,108.442c0.13,15.302,0.048,30.605,0.162,45.907c0.272,36.484,0.609,72.968,0.912,109.451
		c0.307,36.985,0.646,73.971,0.886,110.957c0.102,15.82,0.544,31.668-0.165,47.458c-1.104,24.621-10.431,45.519-30.248,61.07
		c-4.734,3.716-9.71,5.728-16.004,5.645c-23.659-0.312-47.327-0.312-70.986-0.011c-7.042,0.09-12.262-2.017-17.19-7.137
		c-13.438-13.96-24.349-29.155-27.317-48.87c-0.643-4.271-1.471-8.575-1.492-12.868c-0.134-27.82-0.068-55.642-0.068-83.462
		C756.379,1459.015,755.989,1459.015,755.599,1459.014z M818.024,1383.452c0.051,0,0.102,0,0.152,0
		c0,21.821,0.019,43.643-0.005,65.464c-0.032,29.484-0.11,58.969-0.139,88.453c-0.009,9.1,3.979,14.183,12.791,16.505
		c11.854,3.123,23.467-4.218,24.652-17.357c1.821-20.188,2.703-40.499,3.017-60.773c0.391-25.303-0.226-50.621-0.358-75.933
		c-0.11-20.82-0.192-41.643-0.211-62.463c-0.062-66.8,0.078-133.6-0.265-200.397c-0.069-13.607-1.455-27.26-3.08-40.789
		c-1.056-8.786-10.762-15.35-19.915-14.813c-9.095,0.532-16.255,7.874-16.663,17.365c-0.38,8.814-0.758,17.641-0.72,26.459
		c0.163,37.287,0.611,74.572,0.711,111.859C818.123,1285.838,818.024,1334.645,818.024,1383.452z"/>
	<path fill-rule="evenodd" clip-rule="evenodd" fill="#2F160F" d="M247.673,1323.017c0-66.82-0.109-133.643,0.091-200.463
		c0.041-13.469,0.808-26.974,2.012-40.393c2.535-28.251,20.254-49.465,47.548-57.376c30.402-8.812,59.562-7.255,85.333,12.968
		c17.064,13.391,26.361,31.177,26.689,53.483c0.694,47.303,1.752,94.6,2.912,141.893c0.17,6.945-2.543,11.398-8.365,14.539
		c-15.243,8.223-30.443,16.526-45.695,24.731c-4.987,2.683-6.435,2.054-7.507-3.444c-0.632-3.24-0.938-6.594-0.946-9.898
		c-0.109-46.325-0.016-92.651-0.308-138.976c-0.054-8.606-1.129-17.281-2.554-25.786c-1.623-9.685-9.707-15.746-19.207-15.434
		c-8.774,0.289-16.669,6.928-17.39,16.272c-0.96,12.428-0.993,24.945-0.995,37.425c-0.017,79.98,0.125,159.962,0.129,239.943
		c0.001,32.991-0.387,65.984-0.26,98.975c0.084,21.629,0.744,43.256,1.23,64.881c0.056,2.479,0.539,4.969,1.021,7.414
		c2.018,10.252,9.67,17.221,18.235,16.699c11.769-0.715,19.283-8.107,19.87-19.665c0.186-3.658,0.168-7.329,0.183-10.994
		c0.171-42.489,0.266-84.979,0.523-127.469c0.101-16.654,0.634-33.306,0.807-49.959c0.053-5.095,2.028-8.19,6.838-10.339
		c15.047-6.723,29.896-13.886,44.844-20.83c5.906-2.744,7.872-1.642,8.367,4.836c0.431,5.642,0.835,11.307,0.808,16.96
		c-0.266,56.15-0.368,112.304-1.099,168.449c-0.241,18.6-0.834,37.381-3.634,55.718c-4.134,27.065-29.05,50.603-56.187,53.682
		c-13.571,1.54-27.736,1.764-41.185-0.317c-31.415-4.861-49.937-25.017-57.711-55.005c-2.77-10.686-4.126-22.02-4.209-33.071
		c-0.414-55.151-0.189-110.308-0.189-165.462C247.673,1352.342,247.673,1337.679,247.673,1323.017z"/>
	<path fill-rule="evenodd" clip-rule="evenodd" fill="#2F160F" d="M1635.548,953.818c-24.692,0-47.908,0-71.763,0
		c0.576-1.737,0.86-3.164,1.492-4.415c5.602-11.084,7.891-22.79,7.762-35.221c-0.259-24.992-0.062-49.989-0.07-74.984
		c0-0.98-0.166-1.961-0.32-3.661c-1.949,0.863-3.561,1.521-5.124,2.278c-4.792,2.319-9.521,4.776-14.359,6.995
		c-6.682,3.063-8.913,6.602-8.847,14.061c0.193,21.647,0.358,43.296,0.453,64.943c0.039,9.191-0.381,18.443,6.724,25.851
		c-4.754,4.907-10.201,6.393-16.201,6.322c-11.486-0.136-22.977-0.603-34.456-0.408c-4.786,0.081-5.898-1.634-5.869-6.037
		c0.156-23.494,0.071-46.99,0.071-70.485c0-60.488-0.062-120.976,0.028-181.463c0.041-27.316-0.049-54.646,0.775-81.943
		c0.41-13.597,2.121-27.239,4.357-40.676c3.146-18.895,15.547-29.702,33.624-33.983c7.229-1.712,14.819-2.5,22.259-2.596
		c24.484-0.316,48.975-0.132,73.462-0.104c1.591,0.002,3.181,0.305,5.386,0.529c-1.137,1.906-1.786,3.23-2.645,4.401
		c-7.272,9.92-10.125,21.035-10.109,33.291c0.117,95.314,0.068,190.628,0.061,285.942c-0.001,11.997,0.044,23.995-0.117,35.991
		C1621.864,917.602,1622.387,936.548,1635.548,953.818z M1545.149,798.397c7.516-3.798,14.016-7.518,20.866-10.404
		c5.226-2.201,7.094-5.331,7.078-11.016c-0.176-62.479-0.11-124.958-0.111-187.438c0-1,0.36-2.257-0.108-2.944
		c-0.933-1.371-2.234-3.317-3.546-3.453c-4.45-0.46-8.972-0.241-13.467-0.267c-4.734-0.026-7.384,2.517-8.436,6.95
		c-0.46,1.941-1.12,3.893-1.198,5.858c-0.551,13.959-1.33,27.921-1.374,41.885c-0.161,51.148-0.068,102.299-0.051,153.448
		C1544.803,793.156,1544.998,795.296,1545.149,798.397z"/>
	<path fill-rule="evenodd" clip-rule="evenodd" fill="#2F160F" d="M934.604,1611.237c1.262-2.151,1.689-3.242,2.418-4.069
		c9.711-11.033,12.604-24.276,12.676-38.49c0.303-59.65,0.872-119.302,0.888-178.953c0.014-52.985-0.534-105.972-0.909-158.957
		c-0.248-34.982-0.158-69.977-1.12-104.941c-0.633-22.955-2.908-45.863-4.37-68.799c-0.439-6.897-4.37-12-8.062-17.383
		c-1.868-2.724-2.744-6.129-4.068-9.227c3.247-0.915,6.48-2.57,9.742-2.628c25.487-0.45,50.979-0.666,76.47-0.766
		c4.554-0.019,9.109,0.835,15.162,1.434c-2.482,2.687-3.733,4.661-5.509,5.86c-10.252,6.919-14.995,17.026-15.546,28.815
		c-1.15,24.622-2.203,49.274-2.26,73.917c-0.197,86.826-0.069,173.655,0.17,260.482c0.108,39.155,0.75,78.31,1.195,117.464
		c0.125,10.994,0.305,21.989,0.665,32.978c0.227,6.929,1.964,9.506,8.617,10.004c24.354,1.821,48.677,2.282,71.587-8.3
		c4.338-2.004,8.209-5.032,12.261-7.642c4.526-2.915,7.198-2.047,7.295,3.319c0.37,20.633,0.318,41.273,0.323,61.911
		c0.001,3.646-2.767,4.064-5.648,4.063c-11.833-0.005-23.666,0.016-35.499,0.008c-43.166-0.029-86.332-0.067-129.497-0.102
		C939.625,1611.236,937.667,1611.237,934.604,1611.237z"/>
	<path fill-rule="evenodd" clip-rule="evenodd" fill="#2F160F" d="M1247.614,538.932c2.342-0.293,3.782-0.632,5.223-0.629
		c28.814,0.07,57.629,0.177,86.443,0.287c1.164,0.005,2.331,0.089,3.492,0.191c19.932,1.761,29.075,8.633,33.899,27.993
		c3.116,12.507,5.598,25.478,5.939,38.305c0.715,26.79,0.074,53.628-0.571,80.433c-0.178,7.392-2.007,14.812-3.674,22.082
		c-2.253,9.827-8.124,17.379-16.248,23.233c-1.346,0.97-2.668,1.972-3.986,2.977c-0.103,0.079-0.092,0.307-0.273,0.995
		c1.847,0.769,3.779,1.55,5.694,2.371c11.337,4.861,17.559,13.009,17.682,25.79c0.538,56.127,1.26,112.253,1.971,168.379
		c0.082,6.489,0.416,12.981,0.827,19.46c0.188,2.979-0.271,4.724-3.866,4.696c-15.661-0.121-31.325,0.063-46.984-0.131
		c-6.438-0.079-6.391-1.597-4.16-7.427c2.744-7.17,5.361-14.947,5.44-22.489c0.504-47.98,0.321-95.969,0.248-143.954
		c-0.005-3.104-0.679-6.301-1.579-9.293c-2.062-6.846-5.844-9.284-14.047-9.334c-10.528-0.063-8.919-0.402-8.928,8.739
		c-0.048,50.652,0.089,101.305-0.117,151.955c-0.041,10.059,1.828,19.14,8.405,26.962c0.502,0.598,0.722,1.432,1.43,2.892
		c-24.084,0-47.623,0-72.281,0c1.993-2.592,3.128-4.651,4.785-6.123c7.229-6.415,9.005-14.828,9.214-23.9
		c0.169-7.327,0.536-14.653,0.538-21.979c0.036-103.137,0.034-206.272,0.007-309.409c-0.003-8.327-0.155-16.658-0.434-24.98
		c-0.287-8.579-4.647-15.47-9.621-22.054C1250.729,543.178,1249.41,541.36,1247.614,538.932z M1310.248,644.623
		c0,16.828,0,33.656,0,50.484c0,14.026-0.007,13.979,14.086,11.905c4.455-0.655,7.56-2.907,8.493-7.258
		c0.971-4.519,1.857-9.163,1.885-13.759c0.17-28.156,0.096-56.315,0.082-84.474c-0.007-15.861-4.001-19.566-19.931-19.35
		c-3.885,0.053-4.709,1.402-4.683,4.968C1310.326,606.301,1310.249,625.462,1310.248,644.623z"/>
	<path fill-rule="evenodd" clip-rule="evenodd" fill="#2F160F" d="M1237.047,954.442c-2.304,0.165-4.239,0.424-6.175,0.425
		c-37.821,0.023-75.644,0.027-113.465,0.01c-8.717-0.004-8.774-0.142-8.681-9.028c0.307-29.143,0.826-58.285,0.817-87.428
		c-0.011-38.141-0.587-76.281-0.661-114.422c-0.088-44.313,0.021-88.628,0.227-132.94c0.057-12.148,0.54-24.306,1.217-36.437
		c1.258-22.525,16.476-36.668,38.899-36.869c23.313-0.21,46.624-0.759,69.937-1.018c4.643-0.052,9.31,0.376,13.934,0.876
		c5.494,0.594,6.008,2.306,2.999,7.118c-2.981,4.767-6.401,9.503-8.119,14.747c-1.72,5.249-2.14,11.108-2.156,16.703
		c-0.311,104.796-0.465,209.593-0.688,314.389c-0.031,14.677,0.184,29.357,4.227,43.577
		C1231.252,940.803,1234.243,947.148,1237.047,954.442z M1180.995,673.998c-0.479,0.001-0.959,0.002-1.438,0.003
		c0-28.81,0.023-57.619-0.014-86.428c-0.012-9.433-0.812-10.109-9.985-9.309c-14.329,1.251-17.313,4.39-17.241,18.717
		c0.18,35.805,0.351,71.61,0.716,107.413c0.246,24.143,0.804,48.283,1.264,72.424c0.034,1.813,0.362,3.625,0.615,5.43
		c0.516,3.679,2.416,3.877,5.208,2.104c2.807-1.783,5.495-4.01,8.57-5.067c8.902-3.061,12.363-9.314,12.337-18.331
		C1180.942,731.969,1180.995,702.983,1180.995,673.998z M1179.893,818.341c-8.467,4.759-15.734,8.448-22.5,12.901
		c-1.914,1.26-3.232,4.719-3.331,7.228c-0.547,13.799-1.003,27.622-0.777,41.425c0.274,16.813,1.172,33.619,1.973,50.421
		c0.352,7.394,2.742,14.039,8.603,19.018c4.271,3.628,5.882,3.083,8.969-1.513c6.352-9.455,7.724-20.148,7.935-31.014
		c0.509-26.148,0.768-52.304,0.852-78.457C1181.634,832.111,1180.572,825.869,1179.893,818.341z"/>
	<path fill-rule="evenodd" clip-rule="evenodd" fill="#2F160F" d="M581.371,950.009c-21.527,0-42.444,0-63.981,0
		c0.438-1.559,0.465-2.978,1.155-3.899c7.248-9.676,7.989-21.025,8.133-32.39c0.322-25.489,0.355-50.981,0.469-76.473
		c0.182-40.813,0.635-81.629,0.42-122.44c-0.249-47.304-1.107-94.604-1.675-141.905c-0.153-12.788-2.216-24.912-11.479-34.675
		c-0.331-0.349-0.558-0.834-0.722-1.295c-0.164-0.46-0.188-0.97-0.447-2.443c3.343-0.523,6.658-1.508,9.967-1.487
		c25.65,0.159,51.306,0.222,76.945,0.894c21.92,0.574,39.528,17.682,43.077,40.848c3.824,24.962,4.153,50.077,3.415,75.244
		c-0.465,15.814-0.986,31.627-1.385,47.442c-0.431,17.074-7.55,29.385-24.448,34.888c-0.465,0.152-0.895,0.431-1.317,0.688
		c-0.282,0.171-0.522,0.408-1.388,1.102c1.626,1.225,3.018,2.499,4.607,3.437c15.324,9.031,23.318,22.174,23.462,40.188
		c0.248,31.149,0.688,62.298,1.263,93.443c0.444,24.137,1.243,48.268,1.828,72.402c0.176,7.26-0.242,7.616-7.591,7.625
		c-14.163,0.017-28.326,0.02-42.49-0.012c-1.937-0.004-3.873-0.235-6.429-0.401c0.673-1.598,0.923-2.691,1.521-3.539
		c5.185-7.34,7.511-15.637,7.517-24.46c0.033-44.153-0.016-88.308-0.268-132.46c-0.041-7.131-1.137-14.267-1.936-21.378
		c-1.388-12.359-17.062-15.969-25.513-13.047c-1.407,0.486-2.831,3.353-2.834,5.122c-0.055,39.987-0.248,79.981,0.36,119.962
		c0.241,15.913,1.914,31.848,3.784,47.673C576.218,935.635,579.157,942.359,581.371,950.009z M571.42,644.518
		c-0.062,0-0.123,0-0.186,0c0,2.334,0,4.667,0,7c0.001,19.498,0.084,38.996-0.059,58.493c-0.032,4.372,1.618,6.198,5.91,5.707
		c2.643-0.303,5.286-0.597,7.931-0.875c9.562-1.009,13.812-4.904,14.647-14.429c0.596-6.788,0.494-13.643,0.577-20.469
		c0.366-30.472,1.206-60.945-2.433-91.326c-1.077-8.996-4.458-12.886-13.445-13.482c-2.161-0.143-4.328-0.223-6.483-0.424
		c-5.614-0.522-6.435,0.116-6.444,5.81C571.396,601.854,571.42,623.187,571.42,644.518z"/>
	<path fill-rule="evenodd" clip-rule="evenodd" fill="#2F160F" d="M1218.46,1610.876c-32.264,0-63.149,0-95.282,0
		c1.838-3.122,2.885-5.751,4.647-7.747c7.545-8.548,10.855-18.579,10.981-29.791c0.412-36.653,0.877-73.306,1.148-109.96
		c0.44-59.483,0.812-118.969,1.086-178.454c0.267-58.15,0.529-116.303,0.427-174.453c-0.023-12.942-1.041-25.946-2.584-38.804
		c-1.567-13.056-6.898-24.956-13.989-36.039c-1.405-2.196-2.492-4.597-4.236-7.857c33.959,0,66.89,0,101.09,0
		c-2.839,4.064-5.002,7.683-7.669,10.881c-7.131,8.551-10.708,18.356-10.823,29.402c-0.484,46.484-1.098,92.969-1.268,139.454
		c-0.105,28.821,0.755,57.646,0.738,86.468c-0.051,85.819-0.34,171.64-0.47,257.459c-0.011,6.984,0.292,13.982,0.78,20.951
		c0.773,11.053,4.881,20.993,10.724,30.297C1215.228,1605.02,1216.514,1607.469,1218.46,1610.876z"/>
	<path fill-rule="evenodd" clip-rule="evenodd" fill="#2F160F" d="M746.53,1028.319c-1.921,3.41-2.896,6.112-4.663,8.114
		c-8.939,10.127-12.728,22.019-12.904,35.318c-0.461,34.817-1.386,69.635-1.37,104.451c0.021,47.318,1.021,94.636,1.102,141.954
		c0.101,58.99-0.341,117.981-0.474,176.973c-0.052,22.793-0.018,45.587,0.207,68.378c0.144,14.467,3.945,27.939,12.06,40.082
		c1.319,1.975,2.249,4.211,3.778,7.125c-32.03,0-62.898,0-95.14,0c2.047-3.291,3.313-6.122,5.275-8.337
		c7.36-8.31,10.292-18.097,10.39-28.959c0.705-78.804,1.579-157.607,2.076-236.412c0.475-75.15,0.759-150.304,0.644-225.455
		c-0.022-14.901-1.655-29.876-3.623-44.673c-1.506-11.316-6.759-21.525-12.889-31.19c-1.271-2.004-1.755-4.508-2.601-6.78
		c2.287-0.681,4.575-1.957,6.86-1.949c28.147,0.088,56.295,0.353,84.441,0.613C741.491,1027.589,743.279,1027.952,746.53,1028.319z"
		/>
	<path fill-rule="evenodd" clip-rule="evenodd" fill="#2F160F" d="M363.098,740.482c0.506,4.092,1.27,7.321,1.249,10.546
		c-0.334,52.143-0.566,104.288-1.26,156.427c-0.378,28.409-23.92,50.589-52.356,49.962c-7.3-0.16-14.756-0.227-21.844-1.733
		c-22.357-4.753-33.943-20.307-38.993-41.437c-1.494-6.251-2.119-12.852-2.126-19.293c-0.057-51.815,0.214-103.632,0.217-155.447
		c0.002-48.818-0.258-97.636-0.249-146.453c0.001-7.308,0.46-14.663,1.369-21.913c2.787-22.219,21.516-40.022,44.065-41.307
		c9.873-0.562,20.068-0.701,29.716,1.106c22.872,4.285,39.937,26.249,40.19,49.562c0.347,31.815,0.88,63.629,1.357,95.443
		c0.024,1.657,0.266,3.312,0.421,4.966c0.355,3.807-0.748,6.942-4.246,8.869c-11.228,6.188-22.429,12.427-33.737,18.464
		c-4.057,2.165-5.62,1.228-6.348-3.481c-0.455-2.948-0.651-5.964-0.658-8.95c-0.073-30.991-0.024-61.982-0.162-92.973
		c-0.027-6.148-0.493-12.316-1.135-18.436c-0.928-8.854-6.419-13.808-14.318-13.361c-7.229,0.408-11.873,5.908-11.991,14.533
		c-0.326,23.813-0.815,47.629-0.783,71.443c0.07,50.973,0.538,101.945,0.614,152.919c0.029,19.979-0.837,39.961-0.742,59.938
		c0.048,10.129,1.131,20.272,2.109,30.374c0.836,8.638,5.607,12.872,13.225,12.451c8.024-0.443,12.955-5.593,13.035-14.103
		c0.231-24.49,0.277-48.981,0.482-73.471c0.158-18.987,0.449-37.973,0.675-56.959c0.05-4.169,0.723-8.422,4.732-10.363
		C337.7,751.95,349.99,746.501,363.098,740.482z"/>
	<path fill-rule="evenodd" clip-rule="evenodd" fill="#2F160F" d="M742.13,749.119c1.15-9.192,2.425-18.371,3.43-27.579
		c3.72-34.077,7.487-68.151,10.955-102.255c1.717-16.887,2.955-33.827,4.155-50.761c0.82-11.572-1.636-22.204-10.293-30.707
		c-0.881-0.865-1.339-2.163-2.502-4.114c24.303,0,47.743,0,72.297,0c-1.717,2.293-2.759,4.347-4.375,5.731
		c-7.823,6.705-11.387,15.495-12.444,25.384c-3.167,29.616-6.196,59.247-9.203,88.88c-3.964,39.072-7.947,78.144-11.751,117.232
		c-3.223,33.125-6.278,66.268-9.254,99.416c-1.429,15.911-2.646,31.845-3.688,47.785c-0.728,11.145,1.815,21.5,8.767,30.527
		c0.701,0.909,1.188,2.002,1.656,3.062c0.179,0.404,0.029,0.954,0.029,2.283c-2.846,0.289-5.721,0.823-8.598,0.833
		c-20.826,0.075-41.653,0.049-62.479,0.032c-1.324-0.001-2.691-0.026-3.966-0.337c-2.961-0.723-3.604-2.77-1.438-4.674
		c11.418-10.032,10.932-23.131,9.82-36.479c-1.877-22.557-3.621-45.125-5.565-67.676c-2.475-28.686-5.083-57.358-7.652-86.035
		c-2.421-27.017-4.758-54.042-7.337-81.045c-1.898-19.877-4.147-39.721-6.205-59.584c-1.92-18.539-3.282-37.156-5.927-55.591
		c-1.132-7.887-4.589-15.517-7.548-23.043c-2.633-6.694-1.802-8.666,5.343-8.489c18.638,0.461,37.271,1.127,55.904,1.744
		c0.95,0.031,1.891,0.374,3.745,0.763c-1.678,2.071-2.769,3.874-4.277,5.202c-7.17,6.314-9.021,14.31-8.273,23.48
		c1.758,21.569,3.155,43.168,4.899,64.738c2.107,26.043,4.397,52.072,6.656,78.104c1.248,14.385,2.592,28.761,3.893,43.142
		C741.312,749.099,741.722,749.108,742.13,749.119z"/>
	<path fill-rule="evenodd" clip-rule="evenodd" fill="#2F160F" d="M944.685,683.976c0.95,27.366,1.901,54.732,2.853,82.099
		c-0.577,0.285-1.155,0.57-1.732,0.855c-3.003-2.146-6.371-3.93-8.943-6.506c-8.844-8.858-19.153-12.784-31.705-11.128
		c-4.252,0.561-8.652,0.021-12.984-0.061c-6.444-0.122-6.93,0.317-6.853,6.592c0.277,22.322,0.562,44.646,0.845,66.968
		c0.335,26.489,0.675,52.978,1.002,79.467c0.088,7.079,0.279,7.576,7.312,7.223c13.119-0.658,26.235-1.528,39.321-2.675
		c6.797-0.596,12.717-3.635,17.864-8.21c1.109-0.987,3.471-2.177,4.138-1.701c1.243,0.883,2.278,2.901,2.331,4.482
		c0.512,15.311,0.898,30.626,1.098,45.943c0.066,5.131-2.08,7.113-7.44,7.291c-7.159,0.237-14.328,0.254-21.494,0.26
		c-29.165,0.025-58.331,0.025-87.497-0.012c-2.991-0.004-6.012-0.113-8.968-0.536c-4.591-0.656-5.854-3.142-3.053-6.925
		c8.388-11.329,10.255-24.197,10.25-37.821c-0.013-32.153,0.589-64.308,0.411-96.459c-0.16-28.974-1.145-57.943-1.551-86.917
		c-0.546-38.98-0.793-77.966-1.372-116.945c-0.173-11.645-1.048-23.278-1.561-34.919c-0.502-11.411-4.076-21.835-9.851-31.614
		c-3.769-6.384-2.772-8.729,4.79-9.204c13.791-0.866,27.618-1.296,41.437-1.579c22.655-0.465,45.315-0.713,67.975-0.956
		c9.033-0.098,10.269,1.031,10.48,9.831c0.324,13.492,0.456,26.989,0.557,40.485c0.013,1.741-0.65,3.488-1.131,5.881
		c-2.293-0.778-4.318-1.051-5.865-2.058c-13.13-8.55-27.907-10.347-43.041-10.729c-4.163-0.104-8.332-0.032-12.499,0.002
		c-4.165,0.034-6.536,1.832-6.516,6.334c0.17,37.495,0.15,74.991,0.504,112.483c0.117,12.339,0.977,13.113,13.308,12.353
		c8.421-0.52,16.828-1.999,25.117-3.67c7.181-1.446,12.614-5.71,16.078-12.381c1.106-2.131,2.812-3.951,4.244-5.913
		C943.256,683.729,943.97,683.853,944.685,683.976z"/>
	<path fill-rule="evenodd" clip-rule="evenodd" fill="#2F160F" d="M490.811,682.442c0.64,3.167,1.221,4.824,1.276,6.499
		c0.787,23.808,1.53,47.617,2.186,71.429c0.052,1.877-0.624,3.773-0.962,5.662c-1.721-0.76-3.696-1.196-5.123-2.326
		c-21.558-17.093-17.57-14.644-41.549-14.369c-15.551,0.178-13.965-3.512-13.881,13.836c0.167,34.161,0.397,68.321,0.708,102.48
		c0.11,12.154,0.64,24.305,0.75,36.458c0.045,4.987,2.021,7.62,7.125,7.303c12.926-0.806,25.957-0.955,38.724-2.858
		c6.276-0.936,12.163-4.979,18.037-7.984c5.23-2.676,7.007-1.938,7.152,3.832c0.367,14.485,0.71,28.972,0.974,43.46
		c0.127,6.958-1.308,8.406-8.359,8.859c-2.159,0.139-4.33,0.159-6.495,0.156c-33.497-0.046-66.994-0.05-100.49-0.229
		c-4.542-0.023-9.078-0.943-14.722-1.57c1.942-4.296,3.043-7.594,4.814-10.479c4.489-7.311,6.736-15.214,6.804-23.707
		c0.301-37.985,0.895-75.974,0.679-113.957c-0.349-61.479-0.94-122.962-2.099-184.43c-0.365-19.416-2.359-38.854-4.677-58.152
		c-0.802-6.675-4.547-13.099-7.482-19.387c-3.235-6.932-2.694-8.999,4.681-9.363c17.963-0.888,35.946-1.42,53.928-1.833
		c18.655-0.43,37.316-0.613,55.977-0.78c9.238-0.083,10.061,0.832,10.149,9.843c0.134,13.497,0.317,26.994,0.344,40.491
		c0.012,5.895-1.669,7.041-6.404,4.039c-13.488-8.552-28.462-10.799-43.986-10.975c-4.166-0.048-8.334-0.054-12.498,0.053
		c-3.452,0.089-5.659,1.551-5.64,5.438c0.014,2.657-0.402,5.315-0.404,7.973c-0.031,31.998-0.101,63.997,0.054,95.994
		c0.028,5.797,0.988,11.592,1.579,17.381c0.324,3.169,2.069,4.753,5.353,4.551c7.31-0.452,14.652-0.574,21.926-1.351
		c12.122-1.294,21.829-6.722,28.008-17.639C487.889,685.687,488.875,684.79,490.811,682.442z"/>
	<path fill-rule="evenodd" clip-rule="evenodd" fill="#2F160F" d="M1021.442,532.739c25.457,0,49.446,0,74.514,0
		c-1.661,3.095-2.604,5.57-4.143,7.594c-6.196,8.153-8.903,17.366-8.979,27.491c-0.211,28.147-0.607,56.293-0.637,84.44
		c-0.085,82.8,0.03,165.6-0.088,248.399c-0.018,12.492-2.697,24.43-9.831,35.08c-8.782,13.108-21.286,20.03-36.666,21.313
		c-8.201,0.685-16.564,0.061-24.812-0.554c-23.438-1.745-45.2-27.199-45.167-54.375c0.034-28.986,0.528-57.974,0.371-86.957
		c-0.112-20.676-0.575-17.644,16.8-24.354c6.207-2.397,12.366-4.928,18.617-7.208c5.043-1.84,6.809-0.65,6.896,4.765
		c0.152,9.494,0.002,18.992,0.093,28.488c0.207,21.481,0.364,42.965,0.803,64.441c0.132,6.47,0.926,12.947,1.773,19.375
		c1.175,8.918,7.131,14.41,14.66,13.953c6.879-0.417,12.502-6.909,12.986-15.257c0.193-3.317-0.067-6.66-0.067-9.991
		c-0.007-71.808,0.082-143.615-0.047-215.423c-0.053-29.644-0.436-59.289-0.963-88.929c-0.145-8.134-1.162-16.271-2.126-24.366
		c-0.991-8.319-4.73-15.532-9.886-22.062C1024.351,537.093,1023.326,535.447,1021.442,532.739z"/>
	<path fill-rule="evenodd" clip-rule="evenodd" fill="#2F160F" d="M1475.324,953.462c-25.198,0-49.936,0-75.353,0
		c0.878-1.588,1.272-2.646,1.95-3.474c8.06-9.832,11.645-21.352,11.7-33.796c0.231-52.143,0.237-104.287,0.236-156.432
		c-0.001-58.309-0.191-116.617-0.089-174.925c0.025-14.796-2.012-28.854-10.581-41.367c-0.798-1.164-1.183-2.61-2.01-4.498
		c24.982,0,49.3,0,74.143,0c-0.457,1.228-0.545,2.098-1.014,2.633c-9.578,10.906-12.464,24-12.465,38.025
		c-0.007,111.121-0.006,222.242,0.006,333.363c0.001,14.019,2.873,27.123,12.397,38.06
		C1474.646,951.511,1474.775,952.206,1475.324,953.462z"/>
	<path fill-rule="evenodd" clip-rule="evenodd" fill="#2F160F" d="M1155.597,444.868c-3.861-2.776-7.741-5.525-11.58-8.332
		c-19.631-14.359-39.331-28.625-58.812-43.184c-4.385-3.275-7.627-3.116-11.925,0.101c-21.475,16.066-43.136,31.883-64.742,47.772
		c-1.83,1.346-3.74,2.581-6.617,3.181c0.526-1.806,1.001-3.628,1.588-5.414c8.371-25.451,16.772-50.894,25.132-76.349
		c2.568-7.819,2.211-8.633-4.294-13.303c-21.653-15.542-43.282-31.119-64.906-46.702c-1.435-1.034-2.749-2.233-3.84-4.531
		c1.85-0.111,3.699-0.327,5.549-0.318c26.49,0.118,52.979,0.282,79.471,0.4c8.512,0.038,9.086-0.394,11.646-8.448
		c8.416-26.487,16.809-52.983,25.221-79.473c0.239-0.752,0.591-1.468,1.416-3.485c1.132,2.528,1.952,3.987,2.46,5.549
		c8.688,26.742,17.422,53.472,25.914,80.276c1.485,4.686,4.511,5.624,8.692,5.596c21.825-0.149,43.65-0.245,65.476-0.356
		c5.165-0.026,10.331-0.114,15.495-0.028c1.743,0.028,3.479,0.507,6.663,1.006c-2.301,1.966-3.51,3.158-4.872,4.14
		c-21.762,15.676-43.456,31.447-65.389,46.88c-4.651,3.273-5.627,6.41-3.816,11.71c8.605,25.193,16.896,50.494,25.259,75.771
		c0.746,2.256,1.212,4.604,1.809,6.911C1156.26,444.446,1155.929,444.657,1155.597,444.868z"/>
	<path fill-rule="evenodd" clip-rule="evenodd" fill="#2F160F" d="M843.592,364.949c-28.975,0-57.949-0.034-86.924,0.011
		c-22.148,0.035-44.298,0.137-66.447,0.289c-4.387,0.029-6.461-1.745-6.264-6.27c0.167-3.822,0.05-7.661-0.065-11.488
		c-0.114-3.767,1.635-5.585,5.368-5.554c6.993,0.06,13.987,0.176,20.98,0.177c77.78,0.013,155.56,0.023,233.34-0.006
		c13.155-0.005,26.311-0.201,39.467-0.308c8.677-0.071,15.224,4.606,21.005,10.193c4.038,3.902,0.38,11.947-5.582,13.091
		c-1.13,0.217-2.323,0.143-3.487,0.144c-49.3,0.006-98.599,0.004-147.898,0.004c-1.164,0-2.328,0-3.492,0
		C843.592,365.139,843.592,365.044,843.592,364.949z"/>
	<path fill-rule="evenodd" clip-rule="evenodd" fill="#2F160F" d="M841.022,384.708c49.476,0.001,98.951-0.004,148.427,0.005
		c7.401,0.002,7.573,0.251,5.331,7.235c-1.221,3.801-1.991,7.869-3.928,11.27c-1.144,2.007-4.166,4.181-6.346,4.184
		c-97.279,0.125-194.56,0.017-291.839-0.063c-8.663-0.007-8.7-0.004-8.669-8.453c0.056-15.311-2.23-14.185,14.095-14.181
		C745.736,384.715,793.379,384.708,841.022,384.708z"/>
	<path fill-rule="evenodd" clip-rule="evenodd" fill="#2F160F" d="M958.305,320.19c-3.443,0.235-6.886,0.675-10.329,0.677
		c-84.603,0.038-169.205,0.029-253.808,0.026c-1.332,0-2.664-0.047-3.996-0.056c-4.224-0.026-6.484-1.771-6.227-6.37
		c0.223-3.982-0.013-7.99-0.027-11.987c-0.012-3.042,1.481-4.644,4.565-4.674c1.499-0.015,2.997-0.032,4.496-0.032
		c75.609-0.001,151.219,0.039,226.828-0.069c6.811-0.01,12.626,1.675,18.04,5.892c6.771,5.274,13.943,10.034,20.942,15.016
		C958.628,319.139,958.467,319.664,958.305,320.19z"/>
</g>
</svg>
