<?xml version="1.0" encoding="utf-8"?>
<!-- Generator: Adobe Illustrator 16.0.0, SVG Export Plug-In . SVG Version: 6.00 Build 0)  -->
<!DOCTYPE svg PUBLIC "-//W3C//DTD SVG 1.1//EN" "http://www.w3.org/Graphics/SVG/1.1/DTD/svg11.dtd">
<svg version="1.1" id="Layer_1" xmlns="http://www.w3.org/2000/svg" xmlns:xlink="http://www.w3.org/1999/xlink" x="0px" y="0px"
	 width="560px" height="560px" viewBox="0 0 560 560" enable-background="new 0 0 560 560" xml:space="preserve">
<path fill="none" stroke="#FFC100" stroke-width="15" stroke-miterlimit="10" d="M531.337,267.522l-47.474-49.075l9.562-67.607
	c1.748-12.36-6.621-23.879-18.915-26.034l-67.255-11.796l-32.002-60.317c-5.849-11.026-19.389-15.427-30.603-9.944l-61.346,29.988
	l-61.342-29.988c-4.786-2.338-9.989-2.864-14.841-1.859c-0.319,0.067-0.635,0.146-0.952,0.224c-0.949,0.239-1.879,0.541-2.791,0.896
	c-0.587,0.229-1.161,0.483-1.727,0.758c-0.587,0.287-1.161,0.597-1.725,0.931c-1.581,0.943-3.063,2.065-4.394,3.382
	c-0.047,0.047-0.098,0.084-0.142,0.129c-1.572,1.58-2.939,3.415-4.036,5.482l-32,60.317l-67.255,11.797
	c-1.537,0.271-3.012,0.685-4.414,1.231c-0.7,0.273-1.384,0.578-2.048,0.913c-2.65,1.342-4.984,3.168-6.901,5.348
	c-1.919,2.18-3.424,4.711-4.415,7.462c-0.497,1.375-0.865,2.805-1.094,4.274c-0.342,2.201-0.37,4.49-0.042,6.808l9.561,67.607
	l-23.739,24.537l-23.736,24.536c-8.678,8.971-8.678,23.208,0,32.177l45.979,47.527l1.499,1.547l-9.561,67.613
	c-0.327,2.316-0.299,4.604,0.042,6.805c0.193,1.242,0.507,2.449,0.895,3.625c0.984,2.998,2.548,5.76,4.614,8.107
	c0.48,0.545,0.985,1.066,1.516,1.564c0.688,0.646,1.43,1.238,2.195,1.799c0.629,0.461,1.285,0.889,1.963,1.287
	c1.043,0.609,2.127,1.164,3.275,1.611c0.7,0.273,1.421,0.514,2.157,0.719c0.736,0.207,1.488,0.375,2.257,0.512l67.255,11.795
	l32.001,60.318c1.555,2.93,3.653,5.395,6.106,7.326c0.409,0.322,0.828,0.629,1.256,0.924c0.855,0.584,1.746,1.109,2.667,1.574
	c0.459,0.23,0.927,0.447,1.401,0.648c2.843,1.199,5.916,1.83,9.03,1.83c2.369,0,4.757-0.391,7.093-1.146
	c1.03-0.336,2.053-0.717,3.052-1.207l61.339-29.99l61.346,29.986c11.216,5.482,24.755,1.08,30.604-9.943l32.003-60.318
	l67.255-11.797c12.294-2.154,20.663-13.672,18.915-26.029l-9.562-67.611l47.473-49.076
	C540.014,290.73,540.014,276.496,531.337,267.522z"/>
<g opacity="0.1">
	<ellipse fill="#3F3D56" cx="318.016" cy="411.079" rx="10.979" ry="14.369"/>
	<path fill="#3F3D56" d="M326.703,349.611c1.539-2.671,2.335-5.702,2.311-8.784c0-7.951-4.914-14.369-10.979-14.369
		c-6.062,0-10.975,6.432-10.975,14.369c-0.03,3.08,0.762,6.111,2.292,8.784c-3.054,5.451-3.054,12.104,0,17.558
		c-3.054,5.454-3.054,12.108,0,17.564c-1.53,2.67-2.322,5.703-2.292,8.781c0,7.952,4.916,14.369,10.975,14.369
		c6.058,0,10.979-6.432,10.979-14.369c0.031-3.078-0.76-6.111-2.29-8.781c3.054-5.456,3.054-12.11,0-17.564
		c3.055-5.454,3.055-12.106,0-17.558H326.703z"/>
	<ellipse fill="#3F3D56" cx="318.016" cy="323.268" rx="10.979" ry="14.368"/>
	<ellipse fill="#3F3D56" cx="318.016" cy="305.705" rx="10.979" ry="14.369"/>
	<path fill="#6C63FF" d="M359.106,185.519c1.499-1.91,2.865-3.921,4.086-6.019l-28.825-4.737l31.196,0.234
		c6.043-13.16,6.401-28.226,0.993-41.659l-41.855,21.7l38.606-28.359c-14.56-25.127-46.732-33.693-71.86-19.134
		c-25.126,14.56-33.694,46.732-19.133,71.86c1.237,2.132,2.618,4.175,4.142,6.114c-2.335,2.971-4.345,6.186-5.993,9.587
		l37.439,19.453l-39.92-13.419c-5.707,16.828-2.528,35.399,8.451,49.373c-17.953,22.824-14.004,55.879,8.819,73.833
		c22.824,17.949,55.879,14.003,73.832-8.822c15.002-19.073,15.002-45.938,0-65.011c15.005-19.074,15.005-45.939,0-65.013
		L359.106,185.519z"/>
	<path opacity="0.1" enable-background="new    " d="M265.204,218.028c-0.018,11.793,3.947,23.247,11.252,32.504
		c-17.952,22.823-14.003,55.879,8.821,73.833c22.823,17.952,55.879,14.003,73.83-8.821c15.004-19.072,15.004-45.938,0-65.011
		C366.156,241.586,265.204,212.124,265.204,218.028z"/>
</g>
<g opacity="0.1">
	<ellipse fill="#3F3D56" cx="160.684" cy="405.99" rx="8.941" ry="11.704"/>
	<path fill="#3F3D56" d="M167.761,355.911c1.247-2.177,1.89-4.647,1.864-7.157c0-6.461-3.976-11.703-8.946-11.703
		s-8.946,5.242-8.946,11.703c-0.026,2.51,0.619,4.98,1.868,7.157c-2.491,4.444-2.491,9.865,0,14.311
		c-2.491,4.441-2.491,9.86,0,14.303c-1.25,2.177-1.895,4.646-1.868,7.156c0,6.462,4.006,11.706,8.946,11.706
		c4.94,0,8.946-5.244,8.946-11.706c0.026-2.51-0.617-4.979-1.864-7.156c2.485-4.444,2.485-9.861,0-14.303
		C170.247,365.774,170.247,360.357,167.761,355.911z"/>
	<ellipse fill="#3F3D56" cx="160.684" cy="334.451" rx="8.941" ry="11.705"/>
	<ellipse fill="#3F3D56" cx="160.684" cy="320.143" rx="8.941" ry="11.706"/>
	<path fill="#6C63FF" d="M127.23,222.232c-1.222-1.555-2.334-3.191-3.33-4.9l23.494-3.857l-25.406,0.189
		c-4.927-10.72-5.224-22.995-0.821-33.94l34.095,17.684l-31.446-23.11c11.8-20.506,37.987-27.563,58.494-15.764
		c20.505,11.799,27.563,37.988,15.763,58.494c-1.047,1.82-2.227,3.56-3.529,5.206c1.903,2.422,3.54,5.041,4.88,7.813L168.93,245.89
		l32.519-10.934c4.641,13.712,2.044,28.842-6.904,40.223c14.624,18.593,11.406,45.521-7.188,60.146s-45.522,11.403-60.145-7.188
		c-12.22-15.538-12.22-37.42,0-52.957c-12.219-15.542-12.219-37.425,0-52.966L127.23,222.232z"/>
	<path opacity="0.1" enable-background="new    " d="M203.71,248.718c0.015,9.607-3.215,18.938-9.166,26.48
		c14.624,18.594,11.406,45.521-7.188,60.145s-45.522,11.405-60.145-7.188c-12.22-15.537-12.22-37.42,0-52.957
		C121.47,267.912,203.71,243.907,203.71,248.718z"/>
</g>
<path fill="#3F3D56" d="M468.424,416.64c0,3.414-17.679,6.536-46.906,8.947c-5.314,0.431-11.011,0.845-17.052,1.232
	c-5.219,0.331-10.689,0.646-16.411,0.941c-5.543,0.277-11.298,0.532-17.267,0.773c-18.847,0.76-39.682,1.308-61.816,1.579
	c-5.372,0.07-10.813,0.123-16.331,0.159c-5.743,0.038-11.554,0.055-17.43,0.051c-106.709,0-193.209-6.12-193.209-13.669
	c0-7.55,86.5-13.666,193.209-13.666c45.94,0,88.13,1.136,121.29,3.026l3.624,0.209h0.021
	C441.918,408.723,468.424,412.486,468.424,416.64z"/>
<path opacity="0.15" enable-background="new    " d="M468.424,416.64c0,3.414-17.43,6.536-46.246,8.947
	c-5.24,0.431-10.856,0.845-16.81,1.232c-5.146,0.331-10.541,0.646-16.181,0.941c-5.466,0.277-11.14,0.532-17.024,0.773
	c-18.581,0.76-39.124,1.308-60.947,1.579c-5.296,0.07-10.663,0.123-16.101,0.159c-5.662,0.038-11.392,0.055-17.186,0.051
	c-105.207,0-190.49-6.12-190.49-13.669c0-7.55,85.283-13.666,190.49-13.666c45.294,0,86.89,1.136,119.583,3.026l3.576,0.209h0.021
	C442.29,408.723,468.424,412.486,468.424,416.64z"/>
<path fill="#3F3D56" d="M445.934,414.234c0,2.854-15.928,5.468-42.262,7.455c-4.785,0.363-9.92,0.706-15.36,1.029
	c-4.704,0.278-9.633,0.54-14.785,0.784c-4.995,0.232-10.18,0.449-15.558,0.651c-16.983,0.636-35.756,1.095-55.698,1.323
	c-4.837,0.055-9.741,0.1-14.715,0.129c-5.176,0.029-10.41,0.047-15.702,0.047c-96.145,0-174.083-5.115-174.083-11.434
	c0-6.316,77.938-11.431,174.083-11.431c41.39,0,79.402,0.95,109.278,2.53l3.267,0.175h0.022
	C422.066,407.616,445.934,410.742,445.934,414.234z"/>
<path fill="#3F3D56" d="M239.856,278.175c-16.957,0-30.322-6.73-40.093-20.193c-9.771-13.462-14.656-29.771-14.656-48.925
	c0-19.283,4.725-35.559,14.174-48.825c9.449-13.267,22.779-19.893,39.989-19.88c18.25,0,32,6.989,41.252,20.969
	c9.25,13.978,13.877,30.158,13.881,48.537c0,18.247-4.787,34.198-14.364,47.852C270.465,271.363,257.069,278.185,239.856,278.175z
	 M240.354,263.031c11.156,0,19.494-4.862,25.014-14.587c5.521-9.725,8.28-21.984,8.28-36.778c0-16.467-2.825-29.951-8.474-40.451
	c-5.649-10.5-14.313-15.751-25.994-15.755c-22.2,0-33.298,17.634-33.298,52.901c0,36.45,11.487,54.674,34.461,54.67H240.354z
	 M245.94,408.053h-24.527L381.985,143.05h24.062L245.94,408.053z M387.993,410.771c-17.212,0-30.631-6.793-40.257-20.376
	c-9.625-13.586-14.458-29.896-14.497-48.931c0-19.154,4.69-35.365,14.074-48.633c9.383-13.265,22.747-19.892,40.089-19.879
	c18.119,0,31.773,6.989,40.963,20.968c9.188,13.979,13.783,30.157,13.785,48.533c0,18.126-4.756,34.047-14.268,47.763
	c-9.513,13.713-22.812,20.563-39.899,20.555H387.993z M388.281,395.24c11.104,0,19.396-4.782,24.881-14.34
	c5.483-9.56,8.225-21.768,8.225-36.629c0-15.904-2.774-29.241-8.323-40.014c-5.552-10.771-14.196-16.164-25.94-16.183
	c-22.328,0-33.492,17.634-33.492,52.901c-0.008,36.178,11.539,54.269,34.641,54.264H388.281z"/>
<path fill="#3F3D56" d="M239.856,278.175c-16.957,0-30.322-6.73-40.093-20.193c-9.771-13.462-14.656-29.771-14.656-48.925
	c0-19.283,4.725-35.559,14.174-48.825c9.449-13.267,22.779-19.893,39.989-19.88c18.25,0,32,6.989,41.252,20.969
	c9.25,13.978,13.877,30.158,13.881,48.537c0,18.247-4.787,34.198-14.364,47.852C270.465,271.363,257.069,278.185,239.856,278.175z
	 M240.354,263.031c11.156,0,19.494-4.862,25.014-14.587c5.521-9.725,8.28-21.984,8.28-36.778c0-16.467-2.825-29.951-8.474-40.451
	c-5.649-10.5-14.313-15.751-25.994-15.755c-22.2,0-33.298,17.634-33.298,52.901c0,36.45,11.487,54.674,34.461,54.67H240.354z
	 M245.94,408.053h-24.527L381.985,143.05h24.062L245.94,408.053z M387.993,410.771c-17.212,0-30.631-6.793-40.257-20.376
	c-9.625-13.586-14.458-29.896-14.497-48.931c0-19.154,4.69-35.365,14.074-48.633c9.383-13.265,22.747-19.892,40.089-19.879
	c18.119,0,31.773,6.989,40.963,20.968c9.188,13.979,13.783,30.157,13.785,48.533c0,18.126-4.756,34.047-14.268,47.763
	c-9.513,13.713-22.812,20.563-39.899,20.555H387.993z M388.281,395.24c11.104,0,19.396-4.782,24.881-14.34
	c5.483-9.56,8.225-21.768,8.225-36.629c0-15.904-2.774-29.241-8.323-40.014c-5.552-10.771-14.196-16.164-25.94-16.183
	c-22.328,0-33.492,17.634-33.492,52.901c-0.008,36.178,11.539,54.269,34.641,54.264H388.281z"/>
<path opacity="0.15" enable-background="new    " d="M239.856,278.175c-16.957,0-30.322-6.73-40.093-20.193
	c-9.771-13.462-14.656-29.771-14.656-48.925c0-19.283,4.725-35.559,14.174-48.825c9.449-13.267,22.779-19.893,39.989-19.88
	c18.25,0,32,6.989,41.252,20.969c9.25,13.978,13.877,30.158,13.881,48.537c0,18.247-4.787,34.198-14.364,47.852
	C270.465,271.363,257.069,278.185,239.856,278.175z M240.354,263.031c11.156,0,19.494-4.862,25.014-14.587
	c5.521-9.725,8.28-21.984,8.28-36.778c0-16.467-2.825-29.951-8.474-40.451c-5.649-10.5-14.313-15.751-25.994-15.755
	c-22.2,0-33.298,17.634-33.298,52.901c0,36.45,11.487,54.674,34.461,54.67H240.354z M245.94,408.053h-24.527L381.985,143.05h24.062
	L245.94,408.053z M387.993,410.771c-17.212,0-30.631-6.793-40.257-20.376c-9.625-13.586-14.458-29.896-14.497-48.931
	c0-19.154,4.69-35.365,14.074-48.633c9.383-13.265,22.747-19.892,40.089-19.879c18.119,0,31.773,6.989,40.963,20.968
	c9.188,13.979,13.783,30.157,13.785,48.533c0,18.126-4.756,34.047-14.268,47.763c-9.513,13.713-22.812,20.563-39.899,20.555H387.993
	z M388.281,395.24c11.104,0,19.396-4.782,24.881-14.34c5.483-9.56,8.225-21.768,8.225-36.629c0-15.904-2.774-29.241-8.323-40.014
	c-5.552-10.771-14.196-16.164-25.94-16.183c-22.328,0-33.492,17.634-33.492,52.901c-0.008,36.178,11.539,54.269,34.641,54.264
	H388.281z"/>
<path fill="#3F3D56" d="M224.45,278.175c-16.958,0-30.322-6.73-40.093-20.193c-9.771-13.462-14.657-29.771-14.657-48.925
	c0-19.283,4.725-35.559,14.174-48.825c9.45-13.267,22.78-19.893,39.989-19.88c18.25,0,32,6.989,41.251,20.969
	c9.251,13.978,13.879,30.158,13.882,48.537c0,18.247-4.789,34.198-14.364,47.852C255.057,271.363,241.663,278.185,224.45,278.175z
	 M224.946,263.031c11.156,0,19.495-4.862,25.015-14.587c5.52-9.725,8.279-21.984,8.279-36.778c0-16.467-2.824-29.951-8.474-40.451
	c-5.649-10.5-14.313-15.751-25.993-15.755c-22.199,0-33.299,17.634-33.299,52.901c0,36.45,11.487,54.674,34.462,54.67H224.946z
	 M230.533,408.053h-24.526L366.578,143.05h24.065L230.533,408.053z M372.587,410.771c-17.214,0-30.632-6.793-40.258-20.376
	c-9.626-13.586-14.458-29.896-14.497-48.931c0-19.154,4.692-35.365,14.074-48.633c9.383-13.265,22.746-19.892,40.089-19.879
	c18.12,0,31.775,6.989,40.962,20.968c9.189,13.979,13.784,30.157,13.788,48.533c0,18.126-4.756,34.047-14.27,47.763
	c-9.512,13.713-22.813,20.563-39.899,20.555H372.587z M372.876,395.24c11.103,0,19.395-4.782,24.879-14.34
	c5.483-9.56,8.225-21.768,8.225-36.629c0-15.904-2.774-29.241-8.325-40.014c-5.549-10.771-14.198-16.164-25.947-16.183
	c-22.328,0-33.493,17.634-33.493,52.901c0,36.178,11.549,54.269,34.651,54.264H372.876z"/>
<path fill="none" stroke="#3F3D56" stroke-width="4" stroke-miterlimit="10" d="M278.106,414.703
	c2.048-3.799-0.279-8.45-2.953-11.84c-2.674-3.39-5.935-6.908-5.865-11.226c0.1-6.197,6.678-9.861,11.929-13.151
	c3.902-2.439,7.503-5.331,10.726-8.62c1.349-1.265,2.465-2.759,3.295-4.412c1.09-2.426,1.054-5.186,0.994-7.838
	c-0.229-8.854-0.667-17.694-1.313-26.521"/>
<path fill="#6C63FF" d="M304.918,330.609c-0.15-3.29-1.97-6.277-4.825-7.923l-2.167,4.284l0.065-5.188
	c-1.033-0.302-2.109-0.431-3.187-0.384c-5.335,0.251-9.458,4.779-9.208,10.116c0.251,5.334,4.779,9.458,10.115,9.207
	C301.046,340.473,305.168,335.944,304.918,330.609z"/>
<path fill="#6C63FF" d="M287.673,396.086c-2.442,4.746-8.271,6.613-13.018,4.17c-4.749-2.442-6.616-8.272-4.171-13.019
	c2.442-4.748,8.271-6.615,13.018-4.172c2.144,1.105,3.799,2.969,4.639,5.231l-6.044,4.914l6.66-1.55
	C288.755,393.201,288.382,394.72,287.673,396.086z"/>
<path fill="#6C63FF" d="M282.897,377.291c-5.336,0.251-9.864-3.872-10.115-9.207l0,0c-0.074-1.517,0.211-3.026,0.836-4.408
	c1.169-2.616,3.436-4.579,6.193-5.364l-0.056,3.976l2.191-4.334l0,0c5.338-0.247,9.865,3.875,10.116,9.212
	c0.248,5.334-3.873,9.862-9.21,10.113l0,0L282.897,377.291z"/>
<path fill="#6C63FF" d="M306.376,361.672c-5.333,0.354-9.943-3.683-10.297-9.016c-0.354-5.333,3.682-9.941,9.014-10.295
	c0.125-0.009,0.251-0.015,0.379-0.018c1.807-0.089,3.603,0.337,5.178,1.228l-1.709,4.681l3.519-3.375
	c1.889,1.721,3.016,4.122,3.137,6.674c0.044,0.897-0.039,1.793-0.248,2.667C314.358,358.425,310.696,361.472,306.376,361.672z"/>
<path opacity="0.1" enable-background="new    " d="M303.617,333.187c-2.231,0.245-4.399,0.941-6.641,1.08
	c-2.241,0.141-4.701-0.397-6.116-2.141c-0.766-0.937-1.144-2.124-1.791-3.146c-0.61-0.954-1.446-1.741-2.435-2.291
	c-2.413,4.765-0.506,10.584,4.258,12.997c4.766,2.414,10.584,0.507,12.999-4.258c0.372-0.737,0.649-1.517,0.824-2.324
	C304.348,333.124,303.984,333.148,303.617,333.187z"/>
<path opacity="0.1" enable-background="new    " d="M306.376,361.672c-5.342,0.242-9.869-3.89-10.111-9.232
	c-0.074-1.571,0.24-3.139,0.911-4.565c0.766,0.521,1.426,1.182,1.942,1.947c0.692,1.04,1.108,2.242,1.919,3.197
	c1.491,1.775,4.08,2.351,6.411,2.247c2.332-0.105,4.589-0.771,6.914-0.993c0.322-0.031,0.65-0.051,0.995-0.062
	C314.369,358.427,310.7,361.474,306.376,361.672z"/>
<path opacity="0.1" enable-background="new    " d="M282.897,377.291c-5.336,0.251-9.864-3.872-10.115-9.207l0,0
	c-0.074-1.517,0.211-3.026,0.836-4.408c0.796,0.529,1.49,1.202,2.043,1.986c0.749,1.06,1.221,2.283,2.101,3.262
	c1.63,1.814,4.374,2.453,6.843,2.394c2.47-0.059,4.702-0.634,7.083-0.817C290.479,374.39,286.966,377.104,282.897,377.291z"/>
<path opacity="0.1" enable-background="new    " d="M287.673,396.086c-2.422,4.759-8.246,6.655-13.004,4.231
	c-4.431-2.253-6.43-7.495-4.63-12.125c0.796,0.523,1.512,1.162,2.123,1.893c0.918,1.124,1.526,2.396,2.588,3.439
	c1.988,1.939,5.17,2.739,8.012,2.814C284.403,396.352,286.043,396.268,287.673,396.086z"/>
<path fill="none" stroke="#3F3D56" stroke-width="4" stroke-miterlimit="10" d="M427.704,414.205
	c2.047-3.797-0.278-8.45-2.951-11.838c-2.676-3.39-5.937-6.91-5.866-11.228c0.1-6.197,6.679-9.861,11.93-13.151
	c3.901-2.439,7.503-5.331,10.724-8.617c1.349-1.266,2.465-2.761,3.294-4.415c1.09-2.423,1.056-5.183,0.996-7.839
	c-0.229-8.853-0.666-17.692-1.312-26.519"/>
<path fill="#6C63FF" d="M454.517,330.111c-0.151-3.29-1.971-6.276-4.824-7.922l-2.167,4.285l0.063-5.188
	c-1.033-0.304-2.109-0.433-3.186-0.384c-5.335,0.249-9.459,4.777-9.208,10.114c0.25,5.335,4.777,9.458,10.113,9.21
	C450.643,339.973,454.767,335.449,454.517,330.111z"/>
<path fill="#6C63FF" d="M437.271,395.588c-2.444,4.746-8.271,6.615-13.02,4.17c-4.746-2.441-6.614-8.271-4.171-13.018
	s8.271-6.616,13.019-4.171c2.146,1.104,3.799,2.97,4.639,5.231l-6.044,4.914l6.661-1.551
	C438.353,392.704,437.98,394.222,437.271,395.588z"/>
<path fill="#6C63FF" d="M432.495,376.794c-5.337,0.253-9.862-3.871-10.114-9.205c0-0.002,0-0.002,0-0.002
	c-0.074-1.517,0.211-3.024,0.835-4.409c1.17-2.615,3.437-4.579,6.192-5.363l-0.055,3.978l2.192-4.335h0.025
	c5.335-0.251,9.863,3.875,10.113,9.209c0.251,5.338-3.873,9.864-9.21,10.115l0,0L432.495,376.794z"/>
<path fill="#6C63FF" d="M455.974,361.174c-5.333,0.354-9.942-3.681-10.297-9.013c-0.354-5.335,3.682-9.944,9.014-10.296
	c0.127-0.011,0.252-0.015,0.378-0.019c1.809-0.089,3.604,0.337,5.18,1.228l-1.711,4.681l3.521-3.373
	c1.887,1.721,3.016,4.121,3.134,6.674c0.044,0.896-0.039,1.793-0.247,2.664C463.956,357.93,460.295,360.975,455.974,361.174z"/>
<path opacity="0.1" enable-background="new    " d="M453.216,332.691c-2.23,0.242-4.399,0.939-6.64,1.08
	c-2.242,0.138-4.702-0.398-6.12-2.144c-0.765-0.934-1.143-2.121-1.788-3.146c-0.609-0.952-1.448-1.741-2.435-2.291
	c-2.414,4.765-0.507,10.584,4.258,13c4.766,2.411,10.584,0.506,12.997-4.261c0.373-0.734,0.65-1.518,0.825-2.322
	C453.945,332.627,453.583,332.651,453.216,332.691z"/>
<path opacity="0.1" enable-background="new    " d="M455.974,361.174c-5.341,0.245-9.868-3.887-10.112-9.229
	c-0.071-1.574,0.242-3.142,0.912-4.565c0.767,0.519,1.427,1.18,1.943,1.947c0.691,1.04,1.108,2.242,1.919,3.195
	c1.49,1.773,4.08,2.352,6.412,2.247c2.33-0.106,4.586-0.771,6.911-0.994c0.324-0.029,0.652-0.05,0.994-0.059
	C463.967,357.93,460.3,360.979,455.974,361.174z"/>
<path opacity="0.1" enable-background="new    " d="M432.495,376.794c-5.337,0.253-9.862-3.871-10.114-9.205
	c0-0.002,0-0.002,0-0.002c-0.074-1.517,0.211-3.024,0.835-4.409c0.799,0.532,1.491,1.204,2.043,1.989
	c0.751,1.057,1.224,2.28,2.101,3.26c1.632,1.813,4.374,2.454,6.845,2.396c2.396-0.05,4.702-0.637,7.083-0.82
	C440.077,373.891,436.562,376.606,432.495,376.794z"/>
<path opacity="0.1" enable-background="new    " d="M437.271,395.588c-2.423,4.761-8.246,6.657-13.006,4.233
	c-4.429-2.254-6.43-7.496-4.627-12.124c0.795,0.523,1.51,1.159,2.121,1.893c0.919,1.121,1.526,2.394,2.59,3.439
	c1.988,1.937,5.168,2.738,8.011,2.812C434.001,395.854,435.642,395.77,437.271,395.588z"/>
<linearGradient id="SVGID_1_" gradientUnits="userSpaceOnUse" x1="236.8892" y1="-91.478" x2="236.8892" y2="-12.1356" gradientTransform="matrix(1 0 0 -1 -54.5 326.8594)">
	<stop  offset="0" style="stop-color:#808080;stop-opacity:0.25"/>
	<stop  offset="0.54" style="stop-color:#808080;stop-opacity:0.12"/>
	<stop  offset="1" style="stop-color:#808080;stop-opacity:0.1"/>
</linearGradient>
<path fill="url(#SVGID_1_)" d="M235.08,361.17c0.02-2.445-1.119-4.751-3.07-6.223c-0.121-4.556-3.371-8.281-7.55-8.857
	c-0.657-3.15-2.946-5.712-6.003-6.719l0,0c-0.366-0.115-0.739-0.204-1.119-0.264h-0.109l-0.193-0.025h-0.165h-0.164h-0.214h-0.13
	h-0.353c-4.264,0-7.813,3.262-8.544,7.561c-2.758-0.637-5.288,0.188-5.74,1.935c-0.116,0.462-0.091,0.949,0.075,1.394
	c0.468,1.353,1.988,2.646,4.051,3.286l0.269,0.081c0.134,0.038,0.267,0.069,0.402,0.1h0.089l0,0
	c-1.575,3.357-0.239,7.361,3.037,9.099c-0.062,0.034-0.122,0.072-0.179,0.114c-0.255,0.234-0.458,0.52-0.597,0.836
	c-0.498,0.875-0.885,1.808-1.153,2.777c-0.199,0.829-0.233,1.7-0.497,2.519c-0.452,1.493-1.616,2.799-1.75,4.386
	c-0.06,0.705,0.054,1.535-0.447,2.016c-0.125,0.11-0.259,0.208-0.399,0.296c-0.352,0.238-0.65,0.551-0.875,0.914
	c-0.146,0.3-0.343,0.571-0.581,0.806c-0.453,0.341-1.198,0.307-1.421,0.834c-0.224,0.525,0.353,1.148,0.218,1.725
	c-0.109,0.468-0.622,0.681-0.994,0.993c-0.417,0.453-0.709,1.006-0.846,1.607c-1.503,0.288-3.058-0.105-4.239-1.08
	c0.2,0.513,0.347,1.044,0.438,1.587c-0.592-0.632-1.566-0.816-2.287-1.145c-0.929-0.425-1.758-1.042-2.435-1.81l1.303-0.177
	l-5.766-8.747l-1.7-0.351l1.526,2.928c-0.253,0.122-0.437,0.352-0.498,0.626c-0.082,0.325-0.102,0.663-0.059,0.993
	c0.081,0.787,0.212,1.565,0.393,2.331l0.441,2.059c0.038,0.193,0.086,0.385,0.145,0.572c-0.577-0.021-1.153,0.044-1.71,0.191
	c-1.143-0.421-2.333-0.702-3.543-0.837c-0.267-0.048-0.541-0.033-0.8,0.038c-0.296,0.137-0.552,0.346-0.746,0.607
	c-0.995,1.15-1.876,2.39-2.634,3.708c-3.097,5.388-7.232,10.088-11.103,14.96c-2.675,1.089-5.368,2.122-8.066,3.146l-5.8,2.21
	c-1.158,0.444-2.36,0.896-3.593,0.818c-0.557-0.036-1.233-0.12-1.546,0.352c-0.153,0.235-0.271,0.488-0.353,0.757
	c-0.204,0-0.408,0.047-0.597,0.058h-0.035c-0.368-0.913-0.685-1.892-1.391-2.559c-0.289,0.045-0.536,0.23-0.656,0.496
	c-0.139,0.259-0.223,0.542-0.383,0.78c-0.312,0.459-0.854,0.682-1.242,1.067c-0.388,0.389-0.631,0.995-1.049,1.374
	c-0.584,0.423-1.27,0.691-1.988,0.77c-1.076,0.253-2.113,0.646-3.086,1.172c-0.358,0.222-0.743,0.397-1.143,0.527
	c-0.44,0.085-0.892,0.1-1.337,0.045l-3.072-0.222c-0.273-0.038-0.551-0.025-0.819,0.034c-0.651,0.238-1.059,0.886-0.995,1.573
	c0.075,0.673,0.426,1.285,0.969,1.691c0.534,0.391,1.124,0.696,1.75,0.91c2.669,1.033,5.42,1.838,8.226,2.41v0.62
	c1.944,0.979,4.091,1.491,6.268,1.491c0.16,0.013,0.321-0.017,0.466-0.084c0.202-0.152,0.341-0.369,0.393-0.616
	c0.652-1.949,1.063-3.97,1.228-6.02l0,0c0.384-0.025,0.76-0.12,1.108-0.283c1.059-0.289,2.107,0.438,3.196,0.557
	c1.342,0.145,2.589-0.636,3.856-1.118c0.184-0.068,0.368-0.13,0.552-0.189c-0.361,0.468-0.788,0.882-1.267,1.228
	c-0.527,0.378-1.118,0.656-1.635,1.049c-0.43,0.395-0.89,0.75-1.377,1.069c-0.343,0.161-0.696,0.295-1.058,0.407
	c-0.524,0.192-1.025,0.443-1.491,0.751c-0.417,0.247-0.771,0.586-1.034,0.993c-0.427,0.615-0.275,1.462,0.341,1.89
	c0.174,0.121,0.374,0.199,0.583,0.229c0.415,0.073,0.838,0.084,1.258,0.035c1.66-0.126,3.315-0.277,4.97-0.428
	c0.7-0.047,1.396-0.146,2.082-0.3c0.363-0.088,0.721-0.209,1.084-0.302c0.619-0.164,1.253-0.258,1.893-0.282
	c0.186-0.017,0.373,0.005,0.552,0.053c0.388,0.125,0.661,0.497,1.054,0.597c0.255,0.025,0.513-0.011,0.75-0.105
	c1.212-0.262,2.448-0.392,3.688-0.392c0.542-0.03,1.178-0.134,1.432-0.636c0.308-0.622-0.209-1.315-0.413-1.986
	c-0.104-0.429-0.161-0.865-0.169-1.302c-0.094-1.085-0.406-2.14-0.915-3.099c-0.271-0.447-0.498-0.92-0.681-1.411
	c2.375-0.903,4.647-2.057,6.779-3.44c1.223-0.759,2.484-1.58,3.867-1.856c1.61-0.325,3.27,0.104,4.855,0.56
	c3.777,1.093,7.492,2.39,11.129,3.883c1.74,0.711,3.479,1.464,5.258,1.989c0.521,0.701,1.149,1.314,1.864,1.816
	c1.191,0.771,2.648,0.995,4.05,1.105c1.893,0.172,3.795,0.242,5.696,0.213c1.451-0.025,2.948-0.124,4.244-0.785
	c0.317-0.164,0.616-0.36,0.889-0.587c0.995,0.181,2.013-0.352,2.793-1.033c1.033-0.879,1.778-2.048,2.137-3.356
	c0.457-1.793,0.104-3.886,1.208-5.353c0.292-0.39,0.676-0.709,0.964-1.107c0.355-0.531,0.53-1.164,0.497-1.803l0.05-0.074
	c0.25-0.578,0.417-1.188,0.497-1.812c0.131-0.484,0.297-0.961,0.498-1.424c0.561-1.388,1.047-2.804,1.461-4.239
	c0.287-0.955,0.513-1.927,0.676-2.909c0.12-0.785,0.189-1.574,0.253-2.365c0.079-1.237,0.321-2.457,0.716-3.634
	c0.98-2.804,1.535-5.737,1.645-8.708c0-0.059,0-0.113,0-0.172c2.99-0.33,5.24-2.878,5.194-5.883
	c0.001-0.878-0.182-1.743-0.537-2.543C234.732,363.918,235.089,362.556,235.08,361.17z M206.975,395.32
	c0.084,0.302,0.184,0.605,0.283,0.909c-0.458-0.453-0.909-0.92-1.371-1.367c0.184,0.053,0.368,0.114,0.546,0.177
	c0.19,0.076,0.373,0.17,0.546,0.281H206.975z M204.748,393.829c-2.714-2.358-5.854-4.186-8.633-6.461
	c1.491,0.748,2.981,1.62,4.473,2.455c1.736,0.994,3.493,1.942,5.268,2.853c-0.291,0.44-0.662,0.823-1.094,1.132L204.748,393.829z
	 M205.906,387.893l0.129-0.132c0,0.332,0,0.645,0,0.928c-0.243-0.081-0.497-0.158-0.73-0.249c0.214-0.175,0.417-0.365,0.605-0.565
	L205.906,387.893z M182.016,394.275c1.118-1.266,2.088-2.648,2.898-4.132c1.073,1.886,2.822,3.242,4.313,4.818
	c-2.396-0.338-4.796-0.602-7.207-0.707L182.016,394.275z"/>
<polygon fill="#2F2E41" points="185.893,371.364 187.606,371.71 193.446,380.337 190.867,380.688 "/>
<path fill="#FBBEBE" d="M144.368,406.381c0.462,1.53,1.032,3.026,1.704,4.475c1.935-0.404,3.839-0.949,5.696-1.627
	c-0.359-0.558-0.754-1.096-1.183-1.604c-0.457-0.506-1.002-0.926-1.61-1.236c-0.592-0.26-1.322-0.064-1.953-0.028
	C146.137,406.39,145.252,406.398,144.368,406.381z"/>
<path fill="#2F2E41" d="M148.984,408.688c-0.964-0.303-1.556-1.278-1.948-2.216c-0.392-0.94-0.711-1.964-1.457-2.656
	c-0.288,0.047-0.535,0.231-0.656,0.498c-0.144,0.248-0.229,0.531-0.393,0.77c-0.308,0.448-0.855,0.667-1.248,1.051
	c-0.392,0.382-0.636,0.962-1.058,1.346c-0.586,0.42-1.271,0.687-1.988,0.766c-1.084,0.244-2.13,0.633-3.111,1.152
	c-0.364,0.211-0.75,0.377-1.153,0.498c-0.444,0.083-0.899,0.101-1.348,0.046l-3.096-0.227c-0.276-0.032-0.554-0.02-0.825,0.04
	c-0.65,0.226-1.061,0.868-0.995,1.553c0.084,0.67,0.444,1.272,0.995,1.663c0.539,0.385,1.131,0.687,1.759,0.894
	c2.698,1.015,5.474,1.81,8.301,2.373v0.612c1.963,0.972,4.125,1.48,6.317,1.489c0.169,0.017,0.341-0.013,0.497-0.085
	c0.201-0.147,0.342-0.36,0.397-0.604c0.743-2.174,1.176-4.438,1.288-6.731c0.056-0.578,0.013-1.165-0.129-1.728
	c-0.169-0.557,0.407-0.322-0.129-0.542"/>
<path fill="#2F2E41" d="M208.347,397.019c-9.18,0.557-18.245-2.137-27.44-2.426c-1.141-0.068-2.287,0.004-3.41,0.219
	c-1.17,0.314-2.303,0.753-3.379,1.312c-4.925,2.29-10.024,4.189-15.119,6.088l-5.844,2.179c-1.174,0.43-2.381,0.873-3.628,0.799
	c-0.557-0.033-1.238-0.117-1.556,0.347c-0.95,1.408-0.498,3.479,0.129,5.06c0.204,0.498,0.546,1.07,1.093,1.129
	c0.387-0.027,0.766-0.122,1.119-0.282c1.062-0.283,2.127,0.432,3.22,0.549c1.357,0.143,2.614-0.63,3.891-1.1
	c2.117-0.78,4.434-0.757,6.661-1.129c3.737-0.622,7.196-2.358,10.437-4.335c1.231-0.751,2.485-1.557,3.896-1.828
	c1.625-0.319,3.3,0.099,4.896,0.55c3.804,1.078,7.548,2.354,11.218,3.822c1.91,0.831,3.868,1.544,5.864,2.14
	c4.351,1.144,8.953,0.875,13.141-0.769c1.492-0.58,3.062-1.603,3.146-3.189c0.049-0.904-0.651-1.699-1.119-2.484
	c-0.303-0.495-0.602-0.993-0.929-1.466C213.053,399.896,211.135,396.849,208.347,397.019z"/>
<path opacity="0.1" enable-background="new    " d="M208.347,397.019c-9.18,0.557-18.245-2.137-27.44-2.426
	c-1.141-0.068-2.287,0.004-3.41,0.219c-1.17,0.314-2.303,0.753-3.379,1.312c-4.925,2.29-10.024,4.189-15.119,6.088l-5.844,2.179
	c-1.174,0.43-2.381,0.873-3.628,0.799c-0.557-0.033-1.238-0.117-1.556,0.347c-0.95,1.408-0.498,3.479,0.129,5.06
	c0.204,0.498,0.546,1.07,1.093,1.129c0.387-0.027,0.766-0.122,1.119-0.282c1.062-0.283,2.127,0.432,3.22,0.549
	c1.357,0.143,2.614-0.63,3.891-1.1c2.117-0.78,4.434-0.757,6.661-1.129c3.737-0.622,7.196-2.358,10.437-4.335
	c1.231-0.751,2.485-1.557,3.896-1.828c1.625-0.319,3.3,0.099,4.896,0.55c3.804,1.078,7.548,2.354,11.218,3.822
	c1.91,0.831,3.868,1.544,5.864,2.14c4.351,1.144,8.953,0.875,13.141-0.769c1.492-0.58,3.062-1.603,3.146-3.189
	c0.049-0.904-0.651-1.699-1.119-2.484c-0.303-0.495-0.602-0.993-0.929-1.466C213.053,399.896,211.135,396.849,208.347,397.019z"/>
<path fill="#FBBEBE" d="M161.986,406.829c1.438,0.487,2.886,0.938,4.344,1.352c0.82-1.345,2.351-2.28,2.698-3.815
	c0.02-0.067,0.02-0.137,0-0.205c-0.038-0.065-0.095-0.118-0.164-0.149c-1.047-0.578-2.211-0.918-3.405-0.994
	c-0.945-0.059-1.372,0.925-1.799,1.616C163.511,404.911,162.369,406.959,161.986,406.829z"/>
<path fill="#2F2E41" d="M164.009,405.847c-0.868-0.146-1.635-0.648-2.112-1.387c-0.205-0.354-0.418-0.831-0.826-0.806
	c-0.407,0.025-0.546,0.47-0.63,0.844c-0.276,1.394-0.673,2.759-1.189,4.082c-0.519,1.324-1.398,2.481-2.539,3.334
	c-0.532,0.368-1.124,0.646-1.645,1.034c-0.435,0.388-0.9,0.74-1.392,1.053c-0.346,0.159-0.704,0.291-1.068,0.397
	c-0.536,0.187-1.048,0.438-1.525,0.74c-0.419,0.246-0.776,0.585-1.039,0.995c-0.259,0.419-0.293,0.94-0.09,1.392
	c0.217,0.365,0.578,0.62,0.994,0.701c0.419,0.068,0.846,0.079,1.267,0.028c1.675-0.124,3.346-0.274,5.016-0.422
	c0.707-0.044,1.41-0.139,2.102-0.289c0.368-0.089,0.726-0.208,1.089-0.304c0.625-0.158,1.267-0.253,1.913-0.276
	c0.188-0.015,0.375,0.004,0.557,0.055c0.388,0.125,0.661,0.496,1.059,0.585c0.256,0.027,0.515-0.007,0.756-0.1
	c1.222-0.258,2.468-0.388,3.717-0.386c0.546-0.029,1.193-0.136,1.441-0.627c0.313-0.61-0.203-1.297-0.413-1.952
	c-0.103-0.421-0.161-0.851-0.174-1.283c-0.094-1.067-0.406-2.104-0.919-3.045c-0.427-0.787-0.994-1.652-0.71-2.486
	c0.152-0.261,0.249-0.55,0.283-0.849C167.861,405.527,164.764,406.023,164.009,405.847z"/>
<path fill="#FBBEBE" d="M194.584,382.297c-1.626-0.717-2.929-2.01-3.658-3.632c-0.148-0.349-0.278-0.711-0.422-1.065
	c-0.484-1.164-1.233-2.202-2.187-3.031c-0.207-0.228-0.502-0.353-0.81-0.344c-0.299,0.091-0.527,0.333-0.596,0.638
	c-0.086,0.323-0.107,0.661-0.065,0.993c0.085,0.771,0.218,1.537,0.397,2.293l0.448,2.026c0.056,0.311,0.149,0.616,0.278,0.905
	c0.191,0.339,0.444,0.641,0.746,0.89c0.407,0.378,0.82,0.74,1.237,1.093c0.229,0.209,0.481,0.393,0.75,0.547
	c0.441,0.209,0.912,0.346,1.396,0.406c1.824,0.34,3.678,0.827,5.214,1.989c0,0,0-1.355-0.035-1.491
	c-0.019-0.392-0.154-0.771-0.388-1.089C196.314,382.804,195.32,382.62,194.584,382.297z"/>
<path opacity="0.1" enable-background="new    " d="M194.584,382.297c-1.626-0.717-2.929-2.01-3.658-3.632
	c-0.148-0.349-0.278-0.711-0.422-1.065c-0.484-1.164-1.233-2.202-2.187-3.031c-0.207-0.228-0.502-0.353-0.81-0.344
	c-0.299,0.091-0.527,0.333-0.596,0.638c-0.086,0.323-0.107,0.661-0.065,0.993c0.085,0.771,0.218,1.537,0.397,2.293l0.448,2.026
	c0.056,0.311,0.149,0.616,0.278,0.905c0.191,0.339,0.444,0.641,0.746,0.89c0.407,0.378,0.82,0.74,1.237,1.093
	c0.229,0.209,0.481,0.393,0.75,0.547c0.441,0.209,0.912,0.346,1.396,0.406c1.824,0.34,3.678,0.827,5.214,1.989
	c0,0,0-1.355-0.035-1.491c-0.019-0.392-0.154-0.771-0.388-1.089C196.314,382.804,195.32,382.62,194.584,382.297z"/>
<ellipse fill="#2F2E41" cx="213.272" cy="364.544" rx="2.231" ry="2.247"/>
<path fill="#2F2E41" d="M211.89,363.188c-0.599-0.138-1.228-0.047-1.764,0.253c-0.258,0.228-0.463,0.509-0.602,0.825
	c-0.502,0.857-0.894,1.776-1.164,2.733c-0.199,0.82-0.233,1.675-0.497,2.485c-0.457,1.491-1.63,2.757-1.764,4.313
	c-0.061,0.695,0.054,1.517-0.453,1.986c-0.126,0.108-0.261,0.202-0.403,0.285c-0.353,0.236-0.652,0.544-0.879,0.904
	c-0.152,0.323-0.362,0.614-0.621,0.859c-0.457,0.34-1.208,0.304-1.431,0.826c-0.224,0.521,0.353,1.127,0.219,1.693
	c-0.109,0.463-0.626,0.678-0.994,0.995c-0.419,0.442-0.711,0.991-0.85,1.585c-1.511,0.285-3.071-0.106-4.27-1.068
	c0.622,1.535,0.636,3.231,0.661,4.885c0.072,0.53-0.069,1.066-0.392,1.491c1.779,0.04,3.508,0.498,5.243,0.909
	c0.742,0.251,1.544,0.251,2.286,0c0.397-0.213,0.752-0.496,1.048-0.835c0.944-0.958,1.934-1.987,2.163-3.325
	c0.061-0.753,0.074-1.506,0.039-2.261c0.092-0.93,0.283-1.849,0.572-2.737c0.499-1.849,0.832-3.736,0.994-5.641
	c0.104-1.18,1.118-2.124,1.655-3.177c0.994-1.987,2.038-4.05,2.118-6.276C212.875,364.171,212.625,363.281,211.89,363.188z"/>
<path opacity="0.1" enable-background="new    " d="M211.89,363.188c-0.599-0.138-1.228-0.047-1.764,0.253
	c-0.258,0.228-0.463,0.509-0.602,0.825c-0.502,0.857-0.894,1.776-1.164,2.733c-0.199,0.82-0.233,1.675-0.497,2.485
	c-0.457,1.491-1.63,2.757-1.764,4.313c-0.061,0.695,0.054,1.517-0.453,1.986c-0.126,0.108-0.261,0.202-0.403,0.285
	c-0.353,0.236-0.652,0.544-0.879,0.904c-0.152,0.323-0.362,0.614-0.621,0.859c-0.457,0.34-1.208,0.304-1.431,0.826
	c-0.224,0.521,0.353,1.127,0.219,1.693c-0.109,0.463-0.626,0.678-0.994,0.995c-0.419,0.442-0.711,0.991-0.85,1.585
	c-1.511,0.285-3.071-0.106-4.27-1.068c0.622,1.535,0.636,3.231,0.661,4.885c0.072,0.53-0.069,1.066-0.392,1.491
	c1.779,0.04,3.508,0.498,5.243,0.909c0.742,0.251,1.544,0.251,2.286,0c0.397-0.213,0.752-0.496,1.048-0.835
	c0.944-0.958,1.934-1.987,2.163-3.325c0.061-0.753,0.074-1.506,0.039-2.261c0.092-0.93,0.283-1.849,0.572-2.737
	c0.499-1.849,0.832-3.736,0.994-5.641c0.104-1.18,1.118-2.124,1.655-3.177c0.994-1.987,2.038-4.05,2.118-6.276
	C212.875,364.171,212.625,363.281,211.89,363.188z"/>
<path fill="#2F2E41" d="M209.803,398.952c-1.914-0.908-3.31-2.605-4.855-4.056c-2.952-2.771-6.561-4.731-9.662-7.331
	c-2.052-1.721-3.891-3.722-6.153-5.163c-1.988-1.27-4.244-2.062-6.589-2.312c-0.269-0.045-0.543-0.032-0.806,0.041
	c-0.296,0.133-0.554,0.338-0.75,0.597c-1.003,1.127-1.893,2.353-2.66,3.651c-3.931,6.67-9.512,12.28-14.139,18.488
	c-0.308,0.307-0.331,0.793-0.056,1.125l0.94,1.844c0.527,1.029,1.372,2.231,2.485,2.026c0.511-0.147,0.968-0.439,1.317-0.84
	l4.225-4.038l4.428-4.236c2.594-2.484,5.233-5.02,6.929-8.19c1.322,2.29,3.667,3.792,5.277,5.894
	c0.612,0.797,1.108,1.676,1.655,2.521c0.88,1.356,1.874,2.63,2.868,3.896l5.083,6.486c0.642,0.926,1.437,1.729,2.352,2.387
	c1.203,0.761,2.668,0.963,4.084,1.087c1.909,0.176,3.825,0.245,5.741,0.21c1.461-0.025,2.982-0.119,4.274-0.77
	c1.292-0.652,2.39-1.988,2.321-3.445c-0.08-0.762-0.33-1.497-0.732-2.152C215.587,403.342,213.212,400.558,209.803,398.952z"/>
<path fill="#E8E8F0" d="M214.644,364.376c0.946,0,1.714,0.771,1.714,1.726c0,0.949-0.768,1.724-1.714,1.724
	c-0.948,0-1.715-0.774-1.715-1.724C212.929,365.147,213.696,364.376,214.644,364.376z"/>
<path fill="#FBBEBE" d="M214.266,364.803c0.387,0.771,0.455,1.663,0.188,2.484c-0.265,0.808-0.636,1.578-1.103,2.286
	c-0.403,0.734-0.885,1.422-1.437,2.048c2.649,0.132,5.218-0.908,7.554-2.17c1.884-0.995,3.763-2.264,4.766-4.155
	c-0.604,0.143-1.241,0.025-1.754-0.323c-0.505-0.354-0.959-0.773-1.347-1.253l-1.328-1.49c-0.313-0.328-0.588-0.69-0.82-1.081
	c-0.291-0.529-0.414-1.133-0.353-1.731c-0.528,0.552-1.119,1.042-1.76,1.46c-0.949,0.62-1.988,1.069-2.947,1.681
	c-0.338,0.218-1.088,0.569-0.895,0.992C213.227,363.974,213.998,364.326,214.266,364.803z"/>
<path opacity="0.1" enable-background="new    " d="M214.266,364.803c0.387,0.771,0.455,1.663,0.188,2.484
	c-0.265,0.808-0.636,1.578-1.103,2.286c-0.403,0.734-0.885,1.422-1.437,2.048c2.649,0.132,5.218-0.908,7.554-2.17
	c1.884-0.995,3.763-2.264,4.766-4.155c-0.604,0.143-1.241,0.025-1.754-0.323c-0.505-0.354-0.959-0.773-1.347-1.253l-1.328-1.49
	c-0.313-0.328-0.588-0.69-0.82-1.081c-0.291-0.529-0.414-1.133-0.353-1.731c-0.528,0.552-1.119,1.042-1.76,1.46
	c-0.949,0.62-1.988,1.069-2.947,1.681c-0.338,0.218-1.088,0.569-0.895,0.992C213.227,363.974,213.998,364.326,214.266,364.803z"/>
<path fill="#E8E8F0" d="M214.301,365.062c-0.549,0.776-0.549,1.814,0,2.591c0.075,0.094,0.357,0.686,0.497,0.689
	c0.117-0.011,0.226-0.065,0.303-0.153c0.6-0.63,1.162-1.291,1.679-1.988c0.524-0.706,1.282-1.204,2.138-1.402
	c1.039-0.165,2.038,0.388,2.948,0.913c0.391,0.196,0.731,0.477,0.994,0.827c0.191,0.345,0.305,0.728,0.333,1.125
	c0.261,2.368,0.361,4.752,0.298,7.136c0.048,1.716-0.065,3.437-0.338,5.134c-0.169,0.874-0.422,1.729-0.542,2.613
	c-0.087,0.778-0.121,1.563-0.104,2.346v3.28c-0.022,0.602,0.021,1.201,0.129,1.795c0.205,0.704,0.445,1.4,0.72,2.082
	c0.242,0.812,0.409,1.644,0.497,2.484l0.447,3.394c0.145,1.074,0.249,2.243-0.402,3.102c-0.288,0.395-0.676,0.702-0.993,1.091
	c-1.119,1.421-0.746,3.481-1.243,5.248c-0.368,1.293-1.12,2.446-2.157,3.305c-0.79,0.669-1.814,1.202-2.838,0.994
	c-1.376-0.26-2.207-1.696-2.585-3.051c-0.377-1.358-0.497-2.839-1.326-3.979c-0.667-0.938-1.696-1.524-2.625-2.195
	c-0.93-0.671-1.844-1.531-2.048-2.664c-0.089-0.498-0.034-0.993-0.085-1.491c-0.15-1.291-0.992-2.396-2.196-2.882
	c-0.705-0.274-1.581-0.374-1.988-0.995c1.012-0.636,1.749-1.627,2.068-2.778c0.308-1.133,0.474-2.303,0.497-3.479l0.238-3.946
	c0.104-1.764,0.155-3.515,0.93-5.099c0.348-0.706,0.781-1.372,1.138-2.073c0.479-0.983,0.888-2,1.223-3.042
	c0.561-1.615,1.129-3.235,1.631-4.87c0.2-0.793,0.5-1.555,0.894-2.271C212.894,366.104,213.505,365.211,214.301,365.062z"/>
<path fill="#2F2E41" d="M205.539,390.702l1.043,0.034l0.224-1.575c0.03-0.315,0.104-0.624,0.219-0.92
	c0.173-0.312,0.375-0.605,0.601-0.88c1.029-1.451,0.955-3.379,1.208-5.145c0.337-2.35,1.321-4.556,2.295-6.725l2.028-4.516
	c0.18-0.372,0.326-0.76,0.432-1.158c0.089-0.441,0.131-0.89,0.125-1.338c0-0.696,0.229-3.235,0.243-3.936
	c0-0.257-0.566-0.114-0.686-0.342c-0.253-0.498-0.602,0.854-1.079,1.152c-0.45,0.343-0.777,0.821-0.934,1.366
	c-0.438,1.137-0.706,2.335-1.113,3.479c-0.357,1.17-1.01,2.229-1.894,3.075c-0.413,0.369-0.895,0.658-1.288,1.047
	c-1.262,1.246-1.381,3.214-1.426,4.969C205.508,380.377,205.305,390.702,205.539,390.702z"/>
<path fill="#2F2E41" d="M220.573,363.178c-0.994,0.396-1.57,1.491-1.854,2.555c-0.284,1.063-0.403,2.188-0.95,3.133
	c-1.272,2.214-4.518,2.86-5.418,5.257c-0.228,0.809-0.351,1.645-0.362,2.484c-0.16,1.714-0.726,3.375-0.895,5.089
	c-0.088,1.334-0.056,2.674,0.094,4.002l1.138,13.533c0.221,1.993,0.105,4.009-0.342,5.964c1.167,0.168,2.358-0.028,3.409-0.562
	c1.069-0.498,2.043-1.151,3.067-1.721c1.765-0.993,3.712-1.663,5.253-2.981c0.279-0.217,0.52-0.48,0.71-0.78
	c0.248-0.568,0.415-1.168,0.497-1.784c0.131-0.479,0.298-0.947,0.498-1.402c0.571-1.363,1.068-2.757,1.49-4.175
	c0.291-0.938,0.518-1.898,0.682-2.866c0.125-0.771,0.189-1.551,0.259-2.327c0.08-1.219,0.322-2.421,0.721-3.577
	c0.986-2.757,1.544-5.648,1.655-8.573c0.034-0.423,0.006-0.849-0.085-1.263c-0.171-0.502-0.401-0.983-0.686-1.43
	c-0.472-0.893-0.754-1.871-1.203-2.771c-0.994-2.037-2.778-3.584-4.642-4.881C222.655,363.472,221.607,362.786,220.573,363.178z"/>
<path fill="#FBBEBE" d="M196.846,385.261c-0.808-0.424-1.538-0.979-2.163-1.641c-0.283-0.334-0.497-0.708-0.805-1.034
	c-0.729-0.778-1.677-1.32-2.718-1.55c-1.034-0.229-2.092-0.332-3.151-0.304c-0.708-0.049-1.417,0.035-2.093,0.253
	c-0.689,0.226-1.214,0.786-1.392,1.491c-0.154,0.844,0.398,1.667,1.06,2.202c0.613,0.502,1.337,0.854,2.112,1.029
	c0.631,0.109,1.269,0.184,1.909,0.222c3.757,0.394,7.112,2.436,10.402,4.299c2.893,1.635,5.841,3.164,8.847,4.59
	c0.119-0.9,0.169-1.809,0.148-2.715c0-0.676-0.05-1.709-0.69-2.107c-0.746-0.466-1.988-0.571-2.813-0.851
	c-1.937-0.63-3.829-1.396-5.662-2.286C198.798,386.357,197.805,385.826,196.846,385.261z"/>
<path fill="#FBBEBE" d="M213.272,350.562c3.698,0,6.694,3.017,6.694,6.738c0,3.718-2.997,6.735-6.694,6.735
	c-3.697,0-6.694-3.018-6.694-6.735C206.578,353.578,209.575,350.562,213.272,350.562z"/>
<path fill="#2F2E41" d="M222.486,370.812c-0.533,0.748-0.969,1.562-1.297,2.42c-0.83,1.706-2.127,3.166-2.773,4.972
	c-0.686,1.872-0.661,4.104-1.988,5.581c-0.266,0.224-0.467,0.515-0.582,0.844c-0.008,0.204-0.031,0.411-0.069,0.611
	c-0.189,0.538-1.069,0.562-1.233,1.107c-0.044,0.161,0,0.334-0.08,0.498c-0.134,0.354-0.596,0.403-0.909,0.618
	c-0.651,0.44-0.497,1.464-0.993,2.102c-0.412,0.48-1.049,0.704-1.67,0.585c-0.61-0.128-1.196-0.347-1.74-0.651
	c-0.19-0.107-0.402-0.172-0.621-0.193c-0.259,0.007-0.511,0.09-0.72,0.245c-1.238,0.784-1.819,2.345-1.809,3.817
	c0.087,1.47,0.435,2.913,1.028,4.263c0.07,0.231,0.187,0.45,0.343,0.637c0.408,0.433,1.123,0.363,1.67,0.12
	c0.512-0.305,1.057-0.548,1.625-0.728c1.034-0.188,2.048,0.527,3.096,0.468c0.768-0.117,1.491-0.436,2.093-0.923
	c1.065-0.647,2.018-1.462,2.823-2.412c0.457-0.6,0.795-1.288,1.198-1.929c0.514-0.787,1.079-1.54,1.69-2.257l3.861-4.726
	c0.387-0.447,0.735-0.928,1.039-1.436c0.348-0.688,0.62-1.412,0.81-2.158c0.414-1.245,0.682-2.533,0.8-3.842
	c0.02-1.082-0.074-2.162-0.283-3.226c-0.129-1.057-0.409-2.09-0.83-3.066C226.105,370.413,224.062,368.973,222.486,370.812z"/>
<path fill="#F86D70" d="M235.935,362.038c0.011-2.421-1.143-4.7-3.101-6.127c-0.061-4.377-3.28-8.068-7.609-8.722
	c-0.951-4.709-5.538-7.755-10.247-6.806c-3.599,0.727-6.354,3.635-6.885,7.267c-2.783-0.623-5.327,0.188-5.79,1.903
	c-0.497,1.795,1.492,3.895,4.433,4.688c0.923,0.262,1.883,0.357,2.838,0.284c1.384,2.031,3.56,3.385,5.994,3.728
	c0.722,3.307,3.253,5.918,6.536,6.743c0.445,1.076,1.136,2.033,2.018,2.793c0,0.211-0.036,0.424-0.036,0.642
	c-0.131,3.129,2.3,5.772,5.429,5.904c3.129,0.13,5.772-2.3,5.903-5.428c0.007-0.159,0.007-0.316,0-0.477
	c0-0.856-0.184-1.705-0.541-2.485C235.575,364.762,235.94,363.414,235.935,362.038z"/>
<path opacity="0.1" enable-background="new    " d="M204.191,349.896c0.462-1.714,2.982-2.528,5.791-1.901
	c0.674-4.251,4.31-7.397,8.612-7.454c0.193,0,0.388,0,0.577,0c-0.805-0.247-1.643-0.372-2.485-0.37
	c-4.303,0.058-7.938,3.205-8.613,7.457c-2.784-0.629-5.328,0.188-5.791,1.902c-0.497,1.793,1.491,3.892,4.434,4.688
	c0.547,0.151,1.108,0.247,1.675,0.287C205.598,353.69,203.72,351.652,204.191,349.896z"/>
<path opacity="0.1" enable-background="new    " d="M225.975,368.78c0-0.22,0-0.435,0.035-0.647
	c-0.882-0.759-1.573-1.716-2.018-2.788c-3.28-0.833-5.809-3.445-6.536-6.75c-2.434-0.34-4.611-1.694-5.994-3.728
	c-0.557,0.044-1.116,0.029-1.67-0.045c1.388,1.871,3.469,3.107,5.775,3.431c0.722,3.307,3.253,5.918,6.536,6.743
	c0.445,1.076,1.136,2.033,2.018,2.793c0,0.211-0.036,0.424-0.036,0.642c-0.052,3.172,2.465,5.792,5.637,5.866
	C227.445,373.419,225.953,371.219,225.975,368.78z"/>
<ellipse transform="matrix(-0.6051 -0.7962 0.7962 -0.6051 60.3461 747.2704)" fill="#FBBEBE" cx="215.502" cy="358.669" rx="1.376" ry="1.034"/>
</svg>
