<?xml version="1.0" encoding="utf-8"?>
<!-- Generator: Adobe Illustrator 16.0.0, SVG Export Plug-In . SVG Version: 6.00 Build 0)  -->
<!DOCTYPE svg PUBLIC "-//W3C//DTD SVG 1.1//EN" "http://www.w3.org/Graphics/SVG/1.1/DTD/svg11.dtd">
<svg version="1.1" id="Layer_1" xmlns="http://www.w3.org/2000/svg" xmlns:xlink="http://www.w3.org/1999/xlink" x="0px" y="0px"
	 width="500px" height="500px" viewBox="0 0 500 500" enable-background="new 0 0 500 500" xml:space="preserve">
<g>
	<g>
		<defs>
			<rect id="SVGID_1_" x="-3664.435" y="-2266.906" width="6963.19" height="4774.758"/>
		</defs>
		<clipPath id="SVGID_2_">
			<use xlink:href="#SVGID_1_"  overflow="visible"/>
		</clipPath>
	</g>
</g>
<g>
	<g>
		<defs>
			<rect id="SVGID_3_" x="-2564.993" y="-1634.644" width="4966.754" height="3405.773"/>
		</defs>
		<clipPath id="SVGID_4_">
			<use xlink:href="#SVGID_3_"  overflow="visible"/>
		</clipPath>
	</g>
</g>
<g>
	<g>
		<defs>
			<rect id="SVGID_5_" x="-3656.022" y="-2145.604" width="6963.19" height="4774.758"/>
		</defs>
		<clipPath id="SVGID_6_">
			<use xlink:href="#SVGID_5_"  overflow="visible"/>
		</clipPath>
		<g clip-path="url(#SVGID_6_)" enable-background="new    ">
			<g>
				<g>
					<g>
						<defs>
							<rect id="SVGID_7_" x="51.567" y="179.606" width="530.009" height="636.632"/>
						</defs>
						<clipPath id="SVGID_8_">
							<use xlink:href="#SVGID_7_"  overflow="visible"/>
						</clipPath>
					</g>
				</g>
				<g>
					<defs>
						<path id="SVGID_9_" d="M387.779,274.641c-2.361,0-4.639,0.338-6.9,0.699c0-0.238,0.033-0.465,0.033-0.699
							c0-26.626-21.545-48.201-48.105-48.201c-2.215,0-4.361,0.199-6.494,0.486c-9.428-18.811-46.527-28.203-68.969-28.203
							c-22.431,0-66.648,9.393-76.056,28.203c-2.133-0.287-4.295-0.486-6.505-0.486c-26.563,0-48.095,21.574-48.095,48.201
							c0,0.234,0.014,0.461,0.023,0.699c-2.262-0.361-4.53-0.699-6.911-0.699c-24.285,0-43.973,19.725-43.973,44.062
							c0,4.598,0.783,8.998,2.1,13.158h47.226v70.443c0,13.65,11.035,24.711,24.659,24.711c13.624,0,24.67-11.061,24.67-24.711
							v-70.443h255.137c1.307-4.17,2.141-8.553,2.141-13.158C431.76,294.365,412.076,274.641,387.779,274.641"/>
					</defs>
					<clipPath id="SVGID_10_">
						<use xlink:href="#SVGID_9_"  overflow="visible"/>
					</clipPath>
					<g clip-path="url(#SVGID_10_)">
						<defs>
							<rect id="SVGID_11_" x="51.567" y="179.606" width="530.009" height="636.632"/>
						</defs>
						<clipPath id="SVGID_12_">
							<use xlink:href="#SVGID_11_"  overflow="visible"/>
						</clipPath>
						<rect x="50.96" y="170.304" clip-path="url(#SVGID_12_)" fill="#FFFFFF" width="405.67" height="281.579"/>
					</g>
				</g>
				<g>
					<defs>
						<path id="SVGID_13_" d="M149.807,440.098c-20.796,0-37.708-16.955-37.708-37.787v-57.375H77.922
							c-5.682,0-10.714-3.689-12.434-9.125c-1.812-5.674-2.722-11.436-2.722-17.107c0-29.889,23.015-54.48,52.22-56.949
							c5.873-27.402,30.09-48.072,59.086-48.393c12.98-19.481,49.627-34.814,86.814-34.814c32.957,0,59.641,15.333,72.619,34.814
							c29.01,0.333,53.227,20.991,59.1,48.405c29.193,2.457,52.205,27.059,52.205,56.938c0,5.607-0.906,11.197-2.738,17.074
							c-1.713,5.455-6.752,9.158-12.453,9.158H187.534v57.375C187.534,423.143,170.612,440.098,149.807,440.098z M88.879,318.773
							h36.274c7.208,0,13.056,5.846,13.056,13.08v70.457c0,6.402,5.202,11.623,11.598,11.623c6.402,0,11.614-5.221,11.614-11.623
							v-70.457c0-7.234,5.849-13.08,13.056-13.08h244.225v-0.07c0-17.088-13.873-30.988-30.922-30.988
							c-1.656,0-3.26,0.293-4.842,0.545c-3.74,0.576-7.625-0.484-10.529-2.965c-2.912-2.484-4.592-6.137-4.592-9.955
							c0-0.318,0.027-0.99,0.055-1.316c-0.016-18.748-15.738-34.507-35.07-34.507c-1.627,0-3.201,0.165-4.77,0.373
							c-5.441,0.717-10.895-2.109-13.393-7.098c-7.578-15.129-36.926-28.08-53.752-28.08c-16.824,0-60.36,12.941-67.927,28.08
							c-2.507,4.98-7.942,7.824-13.397,7.098c-1.579-0.208-3.153-0.373-4.78-0.373c-19.322,0-35.044,15.759-35.044,35.119
							c0.131,3.916-1.462,7.797-4.386,10.391c-2.924,2.586-6.825,3.861-10.686,3.234c-1.595-0.252-3.196-0.545-4.862-0.545
							c-17.049,0-30.927,13.9-30.927,30.988V318.773z"/>
					</defs>
					<clipPath id="SVGID_14_">
						<use xlink:href="#SVGID_13_"  overflow="visible"/>
					</clipPath>
					<g clip-path="url(#SVGID_14_)">
						<defs>
							<polygon id="SVGID_15_" points="51.567,816.238 581.576,816.238 570.93,176.057 40.921,176.057 							"/>
						</defs>
						<clipPath id="SVGID_16_">
							<use xlink:href="#SVGID_15_"  overflow="visible"/>
						</clipPath>
						<polygon clip-path="url(#SVGID_16_)" fill="#2E2E31" points="37.9,464.965 469.676,464.965 459.031,153.677 27.251,153.677 
													"/>
					</g>
				</g>
				<g>
					<defs>
						<line id="SVGID_17_" x1="64.623" y1="759.5" x2="442.955" y2="759.5"/>
					</defs>
					<clipPath id="SVGID_18_">
						<use xlink:href="#SVGID_17_"  overflow="visible"/>
					</clipPath>
					<g clip-path="url(#SVGID_18_)">
						<defs>
							<rect id="SVGID_19_" x="51.567" y="179.606" width="530.009" height="636.632"/>
						</defs>
						<clipPath id="SVGID_20_">
							<use xlink:href="#SVGID_19_"  overflow="visible"/>
						</clipPath>
						<rect x="39.754" y="734.629" clip-path="url(#SVGID_20_)" fill="#FFFFFF" width="428.068" height="49.734"/>
					</g>
				</g>
				<g>
					<defs>
						<path id="SVGID_21_" d="M442.965,772.57H64.623c-7.204,0-13.056-5.855-13.056-13.07c0-7.23,5.852-13.092,13.056-13.092
							h378.342c7.207,0,13.057,5.861,13.057,13.092C456.021,766.715,450.172,772.57,442.965,772.57"/>
					</defs>
					<clipPath id="SVGID_22_">
						<use xlink:href="#SVGID_21_"  overflow="visible"/>
					</clipPath>
					<g clip-path="url(#SVGID_22_)">
						<defs>
							<rect id="SVGID_23_" x="51.567" y="179.606" width="530.009" height="636.632"/>
						</defs>
						<clipPath id="SVGID_24_">
							<use xlink:href="#SVGID_23_"  overflow="visible"/>
						</clipPath>
					</g>
				</g>
			</g>
		</g>
	</g>
</g>
</svg>
