<?xml version="1.0" encoding="utf-8"?>
<!-- Generator: Adobe Illustrator 16.0.0, SVG Export Plug-In . SVG Version: 6.00 Build 0)  -->
<!DOCTYPE svg PUBLIC "-//W3C//DTD SVG 1.1//EN" "http://www.w3.org/Graphics/SVG/1.1/DTD/svg11.dtd">
<svg version="1.1" id="Layer_1" xmlns="http://www.w3.org/2000/svg" xmlns:xlink="http://www.w3.org/1999/xlink" x="0px" y="0px"
	 width="200px" height="200px" viewBox="0 0 200 200" enable-background="new 0 0 200 200" xml:space="preserve">
<g>
	<defs>
		<path id="SVGID_1_" d="M128.36,126.824c0.446-13.677-3.137-22.937-6.071-28.156c-2.32-4.123-3.573-8.74-3.947-13.451
			c-1.542-19.353-7.465-61.979-7.465-61.979h-10.874H89.125c0,0-5.922,42.626-7.464,61.979c-0.374,4.71-1.627,9.328-3.947,13.451
			c-2.935,5.219-6.52,14.479-6.07,28.156c0.57,17.389,0.248,43.974,0.063,58.012c-0.052,3.873,2.855,7.025,6.454,7.025h21.843
			h21.838c3.603,0,6.506-3.152,6.457-7.025C128.111,170.798,127.788,144.213,128.36,126.824"/>
	</defs>
	<clipPath id="SVGID_2_">
		<use xlink:href="#SVGID_1_"  overflow="visible"/>
	</clipPath>
	<g clip-path="url(#SVGID_2_)">
		<defs>
			<rect id="SVGID_3_" x="-796.451" y="-395.471" width="2068.216" height="1418.205"/>
		</defs>
		<clipPath id="SVGID_4_">
			<use xlink:href="#SVGID_3_"  overflow="visible"/>
		</clipPath>
		<rect x="64.217" y="15.853" clip-path="url(#SVGID_4_)" fill="#FBD800" width="71.566" height="183.396"/>
	</g>
</g>
<g>
	<defs>
		<path id="SVGID_5_" d="M83.874,63.966h32.253c-2.279-19.352-5.25-40.729-5.25-40.729h-10.874H89.126
			C89.126,23.237,86.156,44.615,83.874,63.966"/>
	</defs>
	<clipPath id="SVGID_6_">
		<use xlink:href="#SVGID_5_"  overflow="visible"/>
	</clipPath>
	<g clip-path="url(#SVGID_6_)">
		<defs>
			<rect id="SVGID_7_" x="-796.451" y="-395.471" width="2068.216" height="1418.205"/>
		</defs>
		<clipPath id="SVGID_8_">
			<use xlink:href="#SVGID_7_"  overflow="visible"/>
		</clipPath>
		<rect x="76.487" y="15.851" clip-path="url(#SVGID_8_)" fill="#FFFFFF" width="47.027" height="55.502"/>
	</g>
</g>
<g>
	<defs>
		<path id="SVGID_9_" d="M128.189,176.109c-0.163-14.636-0.298-35.043,0.168-49.285c0.142-4.26-0.14-8.041-0.641-11.456
			c-4.145-2.061-16.725-7.819-28.049-7.819c-10.923,0-22.844,5.353-27.346,7.583c-0.525,3.475-0.821,7.335-0.678,11.692
			c0.467,14.319,0.332,34.855,0.166,49.509C76.987,178.425,97.126,184.964,128.189,176.109"/>
	</defs>
	<clipPath id="SVGID_10_">
		<use xlink:href="#SVGID_9_"  overflow="visible"/>
	</clipPath>
	<g clip-path="url(#SVGID_10_)">
		<defs>
			<rect id="SVGID_11_" x="-796.451" y="-395.471" width="2068.216" height="1418.205"/>
		</defs>
		<clipPath id="SVGID_12_">
			<use xlink:href="#SVGID_11_"  overflow="visible"/>
		</clipPath>
		<rect x="64.221" y="100.163" clip-path="url(#SVGID_12_)" fill="#9ECC59" width="71.56" height="87.847"/>
	</g>
</g>
<g>
	<defs>
		<path id="SVGID_13_" d="M128.36,126.824c0.446-13.677-3.137-22.937-6.071-28.156c-2.32-4.123-3.573-8.74-3.947-13.451
			c-1.542-19.353-7.465-61.979-7.465-61.979h-10.874h-1.916c0,0,5.921,42.626,7.464,61.979c0.374,4.71,1.627,9.328,3.947,13.451
			c2.935,5.219,6.518,14.479,6.071,28.156c-0.572,17.389-0.249,43.974-0.062,58.012c0.049,3.873-2.854,7.025-6.456,7.025h12.79
			c3.603,0,6.506-3.152,6.457-7.025C128.111,170.798,127.788,144.213,128.36,126.824"/>
	</defs>
	<clipPath id="SVGID_14_">
		<use xlink:href="#SVGID_13_"  overflow="visible"/>
	</clipPath>
	<g clip-path="url(#SVGID_14_)">
		<defs>
			<rect id="SVGID_15_" x="-796.451" y="-395.471" width="2068.216" height="1418.205"/>
		</defs>
		<clipPath id="SVGID_16_">
			<use xlink:href="#SVGID_15_"  overflow="visible"/>
		</clipPath>
		<rect x="90.7" y="15.853" opacity="0.3" clip-path="url(#SVGID_16_)" fill="#88451F" width="45.083" height="183.396"/>
	</g>
</g>
<g>
	<defs>
		<rect id="SVGID_17_" x="67.767" y="19.419" width="64.466" height="176.261"/>
	</defs>
	<clipPath id="SVGID_18_">
		<use xlink:href="#SVGID_17_"  overflow="visible"/>
	</clipPath>
	<g clip-path="url(#SVGID_18_)">
		<defs>
			<rect id="SVGID_19_" x="-796.451" y="-395.471" width="2068.216" height="1418.205"/>
		</defs>
		<clipPath id="SVGID_20_">
			<use xlink:href="#SVGID_19_"  overflow="visible"/>
		</clipPath>
		<g clip-path="url(#SVGID_20_)" enable-background="new    ">
			<g>
				<defs>
					<rect id="SVGID_21_" x="66.29" y="18.911" width="66.479" height="177.277"/>
				</defs>
				<clipPath id="SVGID_22_">
					<use xlink:href="#SVGID_21_"  overflow="visible"/>
				</clipPath>
				<g clip-path="url(#SVGID_22_)">
					<defs>
						<path id="SVGID_23_" d="M121.841,195.681H78.16c-2.686,0-5.227-1.069-7.152-3.015c-2.035-2.051-3.177-4.921-3.14-7.878
							c0.156-11.95,0.528-39.934-0.061-57.841c-0.47-14.437,3.306-24.364,6.558-30.146c1.949-3.465,3.117-7.462,3.47-11.886
							c1.533-19.241,7.429-61.773,7.488-62.2c0.264-1.89,1.886-3.295,3.801-3.295h21.752c1.916,0,3.538,1.405,3.8,3.295
							c0.061,0.427,5.957,42.959,7.489,62.2c0.354,4.424,1.52,8.421,3.472,11.886c3.252,5.782,7.029,15.709,6.557,30.146
							c-0.586,17.907-0.217,45.891-0.06,57.841c0.037,2.957-1.106,5.83-3.14,7.88C127.066,194.611,124.527,195.681,121.841,195.681z
							 M92.476,27.059c-1.415,10.371-5.726,42.558-6.991,58.462c-0.44,5.53-1.929,10.583-4.423,15.016
							c-2.776,4.935-6,13.481-5.585,26.163c0.594,18.081,0.222,46.186,0.067,58.189c-0.013,0.926,0.322,1.805,0.926,2.411
							c0.334,0.338,0.9,0.741,1.69,0.741h43.681c0.794,0,1.356-0.403,1.691-0.741c0.604-0.606,0.938-1.485,0.93-2.415
							c-0.159-12-0.528-40.104,0.062-58.186c0.414-12.682-2.809-21.228-5.584-26.165c-2.494-4.431-3.983-9.484-4.424-15.014
							c-1.266-15.904-5.575-48.091-6.991-58.462H92.476z M128.36,126.824h0.024H128.36z"/>
					</defs>
					<clipPath id="SVGID_24_">
						<use xlink:href="#SVGID_23_"  overflow="visible"/>
					</clipPath>
					<g clip-path="url(#SVGID_24_)">
						<defs>
							<rect id="SVGID_25_" x="66.29" y="18.911" width="66.479" height="177.277"/>
						</defs>
						<clipPath id="SVGID_26_">
							<use xlink:href="#SVGID_25_"  overflow="visible"/>
						</clipPath>
						<rect x="60.381" y="12.033" clip-path="url(#SVGID_26_)" fill="#2E2E31" width="79.239" height="191.034"/>
					</g>
				</g>
			</g>
		</g>
	</g>
</g>
<g>
	<defs>
		<path id="SVGID_27_" d="M114.199,23.238H85.161v-4.892c0-4.332,3.527-7.841,7.88-7.841h13.281c4.35,0,7.877,3.509,7.877,7.841
			V23.238z"/>
	</defs>
	<clipPath id="SVGID_28_">
		<use xlink:href="#SVGID_27_"  overflow="visible"/>
	</clipPath>
	<g clip-path="url(#SVGID_28_)">
		<defs>
			<rect id="SVGID_29_" x="-796.451" y="-395.471" width="2068.216" height="1418.205"/>
		</defs>
		<clipPath id="SVGID_30_">
			<use xlink:href="#SVGID_29_"  overflow="visible"/>
		</clipPath>
		<rect x="77.775" y="3.119" clip-path="url(#SVGID_30_)" fill="#7F562C" width="43.811" height="27.506"/>
	</g>
</g>
<g>
	<defs>
		<rect id="SVGID_31_" x="81.325" y="6.686" width="36.713" height="20.373"/>
	</defs>
	<clipPath id="SVGID_32_">
		<use xlink:href="#SVGID_31_"  overflow="visible"/>
	</clipPath>
	<g clip-path="url(#SVGID_32_)">
		<defs>
			<rect id="SVGID_33_" x="-796.451" y="-395.471" width="2068.216" height="1418.205"/>
		</defs>
		<clipPath id="SVGID_34_">
			<use xlink:href="#SVGID_33_"  overflow="visible"/>
		</clipPath>
		<g clip-path="url(#SVGID_34_)" enable-background="new    ">
			<g>
				<defs>
					<rect id="SVGID_35_" x="81.063" y="5.615" width="38.41" height="22.159"/>
				</defs>
				<clipPath id="SVGID_36_">
					<use xlink:href="#SVGID_35_"  overflow="visible"/>
				</clipPath>
				<g clip-path="url(#SVGID_36_)">
					<defs>
						<path id="SVGID_37_" d="M114.201,27.058H85.163c-2.118,0-3.838-1.708-3.838-3.82v-4.892c0-6.43,5.254-11.661,11.715-11.661
							h13.281c6.461,0,11.717,5.231,11.717,11.661v4.892C118.038,25.35,116.319,27.058,114.201,27.058z M89,19.419h21.363v-1.073
							c0-2.218-1.812-4.021-4.042-4.021H93.041c-2.229,0-4.04,1.803-4.04,4.021V19.419z"/>
					</defs>
					<clipPath id="SVGID_38_">
						<use xlink:href="#SVGID_37_"  overflow="visible"/>
					</clipPath>
					<g clip-path="url(#SVGID_38_)">
						<defs>
							<rect id="SVGID_39_" x="81.063" y="5.615" width="38.41" height="22.159"/>
						</defs>
						<clipPath id="SVGID_40_">
							<use xlink:href="#SVGID_39_"  overflow="visible"/>
						</clipPath>
						<rect x="73.939" y="-0.702" clip-path="url(#SVGID_40_)" fill="#2E2E31" width="51.487" height="35.146"/>
					</g>
				</g>
			</g>
		</g>
	</g>
</g>
<g>
	<defs>
		<line id="SVGID_41_" x1="87.458" y1="35.56" x2="112.545" y2="35.56"/>
	</defs>
	<clipPath id="SVGID_42_">
		<use xlink:href="#SVGID_41_"  overflow="visible"/>
	</clipPath>
	<g clip-path="url(#SVGID_42_)">
		<defs>
			<rect id="SVGID_43_" x="-796.451" y="-395.471" width="2068.216" height="1418.205"/>
		</defs>
		<clipPath id="SVGID_44_">
			<use xlink:href="#SVGID_43_"  overflow="visible"/>
		</clipPath>
		<rect x="80.072" y="28.173" clip-path="url(#SVGID_44_)" fill="#FFFFFF" width="39.86" height="14.773"/>
	</g>
</g>
<g>
	<defs>
		<path id="SVGID_45_" d="M112.543,39.38H87.457c-2.118,0-3.836-1.708-3.836-3.82c0-2.11,1.718-3.819,3.836-3.819h25.086
			c2.119,0,3.838,1.708,3.838,3.819C116.381,37.671,114.662,39.38,112.543,39.38"/>
	</defs>
	<clipPath id="SVGID_46_">
		<use xlink:href="#SVGID_45_"  overflow="visible"/>
	</clipPath>
	<g clip-path="url(#SVGID_46_)">
		<defs>
			<rect id="SVGID_47_" x="-796.451" y="-395.471" width="2068.216" height="1418.205"/>
		</defs>
		<clipPath id="SVGID_48_">
			<use xlink:href="#SVGID_47_"  overflow="visible"/>
		</clipPath>
		<rect x="76.234" y="24.354" clip-path="url(#SVGID_48_)" fill="#2E2E31" width="47.532" height="22.413"/>
	</g>
</g>
<g>
	<defs>
		<path id="SVGID_49_" d="M111.653,143.301c0,6.33-5.156,11.461-11.514,11.461c-6.357,0-11.511-5.131-11.511-11.461
			c0-6.327,5.154-11.458,11.511-11.458C106.497,131.843,111.653,136.974,111.653,143.301"/>
	</defs>
	<clipPath id="SVGID_50_">
		<use xlink:href="#SVGID_49_"  overflow="visible"/>
	</clipPath>
	<g clip-path="url(#SVGID_50_)">
		<defs>
			<rect id="SVGID_51_" x="-796.451" y="-395.471" width="2068.216" height="1418.205"/>
		</defs>
		<clipPath id="SVGID_52_">
			<use xlink:href="#SVGID_51_"  overflow="visible"/>
		</clipPath>
		<rect x="81.242" y="124.456" clip-path="url(#SVGID_52_)" fill="#7F562C" width="37.797" height="37.692"/>
	</g>
</g>
<g>
	<defs>
		<path id="SVGID_53_" d="M100.14,158.584c-8.464,0-15.349-6.855-15.349-15.283c0-8.425,6.885-15.28,15.349-15.28
			c8.465,0,15.352,6.855,15.352,15.28C115.491,151.729,108.604,158.584,100.14,158.584 M100.14,135.661
			c-4.231,0-7.675,3.428-7.675,7.64c0,4.215,3.444,7.643,7.675,7.643c4.23,0,7.676-3.428,7.676-7.643
			C107.815,139.089,104.37,135.661,100.14,135.661"/>
	</defs>
	<clipPath id="SVGID_54_">
		<use xlink:href="#SVGID_53_"  overflow="visible"/>
	</clipPath>
	<g clip-path="url(#SVGID_54_)">
		<defs>
			<rect id="SVGID_55_" x="-796.451" y="-395.471" width="2068.216" height="1418.205"/>
		</defs>
		<clipPath id="SVGID_56_">
			<use xlink:href="#SVGID_55_"  overflow="visible"/>
		</clipPath>
		<rect x="77.404" y="120.635" clip-path="url(#SVGID_56_)" fill="#2E2E31" width="45.473" height="45.335"/>
	</g>
</g>
<g>
	<defs>
		<path id="SVGID_57_" d="M97.651,184.444c-14.328,0-23.757-3.148-27.283-4.569c-1.463-0.59-2.416-2.013-2.396-3.586
			c0.252-22.105,0.199-38.246-0.165-49.342c-0.139-4.212,0.098-8.264,0.718-12.385c0.188-1.232,0.966-2.297,2.089-2.853
			c4.838-2.398,17.364-7.978,29.053-7.978c11.946,0,24.794,5.747,29.767,8.221c1.121,0.556,1.9,1.63,2.08,2.866
			c0.593,4.049,0.815,8.017,0.68,12.128c-0.361,11.02-0.414,27.086-0.167,49.12c0.02,1.72-1.12,3.241-2.781,3.714
			C117.034,183.263,106.427,184.444,97.651,184.444 M75.677,173.673c7.117,2.34,23.955,5.961,48.643-0.468
			c-0.211-20.645-0.146-35.876,0.204-46.506c0.099-2.979-0.014-5.871-0.345-8.788c-4.883-2.266-15.314-6.539-24.512-6.539
			c-8.873,0-18.644,3.904-23.82,6.308c-0.348,2.981-0.47,5.952-0.371,9.02C75.831,137.447,75.894,152.835,75.677,173.673"/>
	</defs>
	<clipPath id="SVGID_58_">
		<use xlink:href="#SVGID_57_"  overflow="visible"/>
	</clipPath>
	<g clip-path="url(#SVGID_58_)">
		<defs>
			<rect id="SVGID_59_" x="-796.451" y="-395.471" width="2068.216" height="1418.205"/>
		</defs>
		<clipPath id="SVGID_60_">
			<use xlink:href="#SVGID_59_"  overflow="visible"/>
		</clipPath>
		<rect x="60.384" y="96.346" clip-path="url(#SVGID_60_)" fill="#2E2E31" width="79.235" height="95.484"/>
	</g>
</g>
</svg>
