<?xml version="1.0" encoding="utf-8"?>
<!-- Generator: Adobe Illustrator 16.0.0, SVG Export Plug-In . SVG Version: 6.00 Build 0)  -->
<!DOCTYPE svg PUBLIC "-//W3C//DTD SVG 1.1//EN" "http://www.w3.org/Graphics/SVG/1.1/DTD/svg11.dtd">
<svg version="1.1" id="Layer_1" xmlns="http://www.w3.org/2000/svg" xmlns:xlink="http://www.w3.org/1999/xlink" x="0px" y="0px"
	 width="560px" height="560px" viewBox="0 0 560 560" enable-background="new 0 0 560 560" xml:space="preserve">
<g>
	<defs>
		<line id="SVGID_1_" x1="61.101" y1="377.473" x2="84.651" y2="377.473"/>
	</defs>
	<clipPath id="SVGID_2_">
		<use xlink:href="#SVGID_1_"  overflow="visible"/>
	</clipPath>
	<g clip-path="url(#SVGID_2_)">
		<defs>
			<rect id="SVGID_3_" x="-1243.231" y="-2425.171" width="5223.97" height="3582.15"/>
		</defs>
		<clipPath id="SVGID_4_">
			<use xlink:href="#SVGID_3_"  overflow="visible"/>
		</clipPath>
		<rect x="42.443" y="358.815" clip-path="url(#SVGID_4_)" fill="#FFFFFF" width="60.865" height="37.314"/>
	</g>
</g>
<g>
	<defs>
		<line id="SVGID_5_" x1="61.101" y1="469.377" x2="84.651" y2="469.377"/>
	</defs>
	<clipPath id="SVGID_6_">
		<use xlink:href="#SVGID_5_"  overflow="visible"/>
	</clipPath>
	<g clip-path="url(#SVGID_6_)">
		<defs>
			<rect id="SVGID_7_" x="-1243.231" y="-2425.171" width="5223.97" height="3582.15"/>
		</defs>
		<clipPath id="SVGID_8_">
			<use xlink:href="#SVGID_7_"  overflow="visible"/>
		</clipPath>
		<rect x="42.443" y="450.72" clip-path="url(#SVGID_8_)" fill="#FFFFFF" width="60.865" height="37.313"/>
	</g>
</g>
<g>
	<defs>
		<path id="SVGID_9_" d="M272.724,499.812L272.724,499.812c-18.807,0-34.053-15.231-34.053-34.021V283.358h68.095v182.433
			C306.766,484.58,291.52,499.812,272.724,499.812"/>
	</defs>
	<clipPath id="SVGID_10_">
		<use xlink:href="#SVGID_9_"  overflow="visible"/>
	</clipPath>
	<g clip-path="url(#SVGID_10_)">
		<defs>
			<rect id="SVGID_11_" x="-3422.581" y="-2413.078" width="5172.997" height="3547.199"/>
		</defs>
		<clipPath id="SVGID_12_">
			<use xlink:href="#SVGID_11_"  overflow="visible"/>
		</clipPath>
		<rect x="220.196" y="264.883" clip-path="url(#SVGID_12_)" fill="#B3804C" width="105.044" height="253.403"/>
	</g>
</g>
<g>
	<defs>
		<path id="SVGID_13_" d="M275.308,283.358v182.437c0,13.105-7.438,24.473-18.312,30.148c4.705,2.457,10.046,3.871,15.729,3.871
			c18.796,0,34.042-15.23,34.042-34.02V283.358H275.308z"/>
	</defs>
	<clipPath id="SVGID_14_">
		<use xlink:href="#SVGID_13_"  overflow="visible"/>
	</clipPath>
	<g clip-path="url(#SVGID_14_)">
		<defs>
			<rect id="SVGID_15_" x="-3422.581" y="-2413.078" width="5172.997" height="3547.199"/>
		</defs>
		<clipPath id="SVGID_16_">
			<use xlink:href="#SVGID_15_"  overflow="visible"/>
		</clipPath>
		<rect x="238.52" y="264.883" opacity="0.3" clip-path="url(#SVGID_16_)" fill="#1B1A1A" width="86.721" height="253.407"/>
	</g>
</g>
<g>
	<defs>
		<rect id="SVGID_17_" x="229.235" y="273.93" width="86.966" height="235.314"/>
	</defs>
	<clipPath id="SVGID_18_">
		<use xlink:href="#SVGID_17_"  overflow="visible"/>
	</clipPath>
	<g clip-path="url(#SVGID_18_)">
		<defs>
			<rect id="SVGID_19_" x="-3422.581" y="-2413.078" width="5172.997" height="3547.199"/>
		</defs>
		<clipPath id="SVGID_20_">
			<use xlink:href="#SVGID_19_"  overflow="visible"/>
		</clipPath>
		<g clip-path="url(#SVGID_20_)" enable-background="new    ">
			<g>
				<defs>
					<rect id="SVGID_21_" x="228.077" y="271.339" width="88.68" height="240.175"/>
				</defs>
				<clipPath id="SVGID_22_">
					<use xlink:href="#SVGID_21_"  overflow="visible"/>
				</clipPath>
				<g clip-path="url(#SVGID_22_)">
					<defs>
						<path id="SVGID_23_" d="M272.72,509.244c-23.974,0-43.484-19.493-43.484-43.449V283.358c0-5.204,4.229-9.429,9.436-9.429
							h68.095c5.207,0,9.436,4.225,9.436,9.429v182.437C316.201,489.751,296.698,509.244,272.72,509.244z M248.111,292.79v173.005
							c0,13.561,11.041,24.592,24.608,24.592c13.568,0,24.609-11.031,24.609-24.592V292.79H248.111z"/>
					</defs>
					<clipPath id="SVGID_24_">
						<use xlink:href="#SVGID_23_"  overflow="visible"/>
					</clipPath>
					<g clip-path="url(#SVGID_24_)">
						<defs>
							<rect id="SVGID_25_" x="228.077" y="271.339" width="88.68" height="240.175"/>
						</defs>
						<clipPath id="SVGID_26_">
							<use xlink:href="#SVGID_25_"  overflow="visible"/>
						</clipPath>
						<rect x="210.761" y="255.454" clip-path="url(#SVGID_26_)" fill="#2E2E31" width="123.916" height="272.265"/>
					</g>
				</g>
			</g>
		</g>
	</g>
</g>
<g>
	<defs>
		<path id="SVGID_27_" d="M272.72,45.034c-83.335,0-105.412,17.476-105.412,88.265c0,70.786,80.738,107.328,80.738,107.328v42.734
			h49.345v-42.734c0,0,80.738-36.542,80.738-107.328C378.129,62.51,356.053,45.034,272.72,45.034 M298.44,185.094
			c-3.146-15.718-25.721-14.077-25.721-14.077s-22.577-1.642-25.724,14.077c0,0-44.041-25.883-41.94-61.664
			c2.097-35.773,31.458-33.677,31.458-33.677l10.482,17.811h25.724h25.721l10.482-17.811c0,0,29.362-2.096,31.458,33.677
			C342.485,159.211,298.44,185.094,298.44,185.094"/>
	</defs>
	<clipPath id="SVGID_28_">
		<use xlink:href="#SVGID_27_"  overflow="visible"/>
	</clipPath>
	<g clip-path="url(#SVGID_28_)">
		<defs>
			<rect id="SVGID_29_" x="-3422.581" y="-2413.078" width="5172.997" height="3547.199"/>
		</defs>
		<clipPath id="SVGID_30_">
			<use xlink:href="#SVGID_29_"  overflow="visible"/>
		</clipPath>
		<rect x="148.833" y="26.559" clip-path="url(#SVGID_30_)" fill="#FFFFFF" width="247.771" height="275.278"/>
	</g>
</g>
<g>
	<defs>
		<path id="SVGID_31_" d="M272.724,45.034c-6.693,0-12.954,0.13-18.875,0.375c63.413,2.616,83.895,20.272,86.287,75.769
			c0.076,0.765,0.202,1.451,0.245,2.255c0.076,1.166-0.039,2.292-0.061,3.439c0.043,2.093,0.061,4.226,0.061,6.427
			c0,70.782-80.737,107.325-80.737,107.325v42.734h37.747v-42.734c0,0,80.738-36.542,80.738-107.325
			C378.129,62.51,356.053,45.034,272.724,45.034"/>
	</defs>
	<clipPath id="SVGID_32_">
		<use xlink:href="#SVGID_31_"  overflow="visible"/>
	</clipPath>
	<g clip-path="url(#SVGID_32_)">
		<defs>
			<rect id="SVGID_33_" x="-3422.581" y="-2413.078" width="5172.997" height="3547.199"/>
		</defs>
		<clipPath id="SVGID_34_">
			<use xlink:href="#SVGID_33_"  overflow="visible"/>
		</clipPath>
		<rect x="235.373" y="26.559" opacity="0.3" clip-path="url(#SVGID_34_)" fill="#1B1A1A" width="161.23" height="275.274"/>
	</g>
</g>
<g>
	<defs>
		<path id="SVGID_35_" d="M297.391,292.79h-49.345c-5.211,0-9.436-4.226-9.436-9.429v-36.896
			c-19.208-10.122-80.738-47.642-80.738-113.167c0-75.787,25.764-97.694,114.848-97.694c89.085,0,114.849,21.907,114.849,97.694
			c0,65.525-61.527,103.045-80.741,113.167v36.896C306.827,288.564,302.598,292.79,297.391,292.79z M257.485,273.933h30.47v-33.306
			c0-3.698,2.168-7.054,5.535-8.581c0.75-0.346,75.202-35.001,75.202-98.747c0-64.843-17.042-78.836-95.973-78.836
			c-78.93,0-95.976,13.994-95.976,78.836c0,63.962,74.441,98.394,75.199,98.74c3.377,1.526,5.542,4.886,5.542,8.587V273.933z
			 M298.44,194.523c-1.306,0-2.623-0.271-3.857-0.823c-2.785-1.245-4.799-3.767-5.395-6.759c-1.425-7.108-15.667-6.513-15.826-6.52
			c-0.419,0.04-0.892,0.04-1.32,0c-0.127,0.007-14.361-0.588-15.791,6.52c-0.599,2.992-2.612,5.514-5.391,6.759
			c-2.808,1.249-6.019,1.068-8.646-0.48c-2.003-1.18-48.991-29.275-46.577-70.342c0.845-14.39,5.633-25.504,14.225-33.049
			c11.705-10.263,25.753-9.599,27.329-9.479c3.1,0.22,5.886,1.949,7.455,4.623l7.755,13.163h40.642l7.743-13.163
			c1.573-2.674,4.362-4.402,7.462-4.623c1.588-0.126,15.617-0.783,27.327,9.479c8.599,7.545,13.383,18.659,14.224,33.049
			c2.414,41.067-44.574,69.163-46.569,70.342C301.753,194.09,300.101,194.523,298.44,194.523z M274.85,161.513
			c8.024,0,19.622,2.245,26.831,9.895c11.331-8.631,30.51-26.436,29.282-47.422c-1.078-18.345-10.677-23.224-16.851-24.443
			l-7.538,12.806c-1.696,2.88-4.792,4.644-8.134,4.644h-51.444c-3.342,0-6.438-1.764-8.137-4.644l-7.542-12.817
			c-6.127,1.212-15.762,6.066-16.844,24.454c-1.213,20.781,18.002,38.704,29.314,47.386c7.881-8.325,20.969-10.241,28.932-9.801
			C273.402,161.531,274.113,161.513,274.85,161.513z"/>
	</defs>
	<clipPath id="SVGID_36_">
		<use xlink:href="#SVGID_35_"  overflow="visible"/>
	</clipPath>
	<g clip-path="url(#SVGID_36_)">
		<defs>
			<rect id="SVGID_37_" x="-3422.581" y="-2413.078" width="5172.997" height="3547.199"/>
		</defs>
		<clipPath id="SVGID_38_">
			<use xlink:href="#SVGID_37_"  overflow="visible"/>
		</clipPath>
		<rect x="139.397" y="17.13" clip-path="url(#SVGID_38_)" fill="#2E2E31" width="266.646" height="294.135"/>
	</g>
</g>
</svg>
