<?xml version="1.0" encoding="utf-8"?>
<!-- Generator: Adobe Illustrator 16.0.0, SVG Export Plug-In . SVG Version: 6.00 Build 0)  -->
<!DOCTYPE svg PUBLIC "-//W3C//DTD SVG 1.1//EN" "http://www.w3.org/Graphics/SVG/1.1/DTD/svg11.dtd">
<svg version="1.1" id="Layer_1" xmlns="http://www.w3.org/2000/svg" xmlns:xlink="http://www.w3.org/1999/xlink" x="0px" y="0px"
	 width="560px" height="560px" viewBox="0 0 560 560" enable-background="new 0 0 560 560" xml:space="preserve">
<g>
	<defs>
		<line id="SVGID_1_" x1="61.101" y1="377.473" x2="84.651" y2="377.473"/>
	</defs>
	<clipPath id="SVGID_2_">
		<use xlink:href="#SVGID_1_"  overflow="visible"/>
	</clipPath>
	<g clip-path="url(#SVGID_2_)">
		<defs>
			<rect id="SVGID_3_" x="-1243.231" y="-2425.171" width="5223.97" height="3582.15"/>
		</defs>
		<clipPath id="SVGID_4_">
			<use xlink:href="#SVGID_3_"  overflow="visible"/>
		</clipPath>
		<rect x="42.443" y="358.815" clip-path="url(#SVGID_4_)" fill="#FFFFFF" width="60.865" height="37.314"/>
	</g>
</g>
<g>
	<defs>
		<line id="SVGID_5_" x1="61.101" y1="469.377" x2="84.651" y2="469.377"/>
	</defs>
	<clipPath id="SVGID_6_">
		<use xlink:href="#SVGID_5_"  overflow="visible"/>
	</clipPath>
	<g clip-path="url(#SVGID_6_)">
		<defs>
			<rect id="SVGID_7_" x="-1243.231" y="-2425.171" width="5223.97" height="3582.15"/>
		</defs>
		<clipPath id="SVGID_8_">
			<use xlink:href="#SVGID_7_"  overflow="visible"/>
		</clipPath>
		<rect x="42.443" y="450.72" clip-path="url(#SVGID_8_)" fill="#FFFFFF" width="60.865" height="37.313"/>
	</g>
</g>
<g>
	<defs>
		<path id="SVGID_9_" d="M520.818,441.762V312.438V183.121c0,0-181.75-125.156-426.865,0v129.317v129.324
			C339.068,566.924,520.818,441.762,520.818,441.762"/>
	</defs>
	<clipPath id="SVGID_10_">
		<use xlink:href="#SVGID_9_"  overflow="visible"/>
	</clipPath>
	<g clip-path="url(#SVGID_10_)">
		<defs>
			<rect id="SVGID_11_" x="-3755.005" y="-1035.53" width="5635.249" height="3864.174"/>
		</defs>
		<clipPath id="SVGID_12_">
			<use xlink:href="#SVGID_11_"  overflow="visible"/>
		</clipPath>
		<rect x="73.828" y="107.37" clip-path="url(#SVGID_12_)" fill="#B3804C" width="467.117" height="410.146"/>
	</g>
</g>
<g>
	<defs>
		<line id="SVGID_13_" x1="520.818" y1="312.439" x2="93.953" y2="312.439"/>
	</defs>
	<clipPath id="SVGID_14_">
		<use xlink:href="#SVGID_13_"  overflow="visible"/>
	</clipPath>
	<g clip-path="url(#SVGID_14_)">
		<defs>
			<rect id="SVGID_15_" x="-3755.005" y="-1035.53" width="5635.249" height="3864.174"/>
		</defs>
		<clipPath id="SVGID_16_">
			<use xlink:href="#SVGID_15_"  overflow="visible"/>
		</clipPath>
		<rect x="73.828" y="292.313" clip-path="url(#SVGID_16_)" fill="#FFFFFF" width="467.117" height="40.251"/>
	</g>
</g>
<g>
	<defs>
		<path id="SVGID_17_" d="M520.818,322.673H93.953c-5.668,0-10.271-4.577-10.271-10.233c0-5.654,4.604-10.232,10.271-10.232h426.865
			c5.673,0,10.275,4.578,10.275,10.232C531.094,318.096,526.491,322.673,520.818,322.673"/>
	</defs>
	<clipPath id="SVGID_18_">
		<use xlink:href="#SVGID_17_"  overflow="visible"/>
	</clipPath>
	<g clip-path="url(#SVGID_18_)">
		<defs>
			<rect id="SVGID_19_" x="-3755.005" y="-1035.53" width="5635.249" height="3864.174"/>
		</defs>
		<clipPath id="SVGID_20_">
			<use xlink:href="#SVGID_19_"  overflow="visible"/>
		</clipPath>
		<rect x="63.556" y="282.081" clip-path="url(#SVGID_20_)" fill="#2E2E31" width="487.664" height="60.718"/>
	</g>
</g>
<g>
	<defs>
		<path id="SVGID_21_" d="M93.953,250.427c-4.265,0-8.243-2.667-9.709-6.905c-1.839-5.348,1.006-11.167,6.372-13.011
			c199.431-68.359,423.706-2.946,433.156-0.127c5.432,1.623,8.513,7.327,6.89,12.735c-1.624,5.417-7.318,8.515-12.783,6.877
			c-2.247-0.674-227.501-66.313-420.58-0.129C96.186,250.25,95.065,250.427,93.953,250.427"/>
	</defs>
	<clipPath id="SVGID_22_">
		<use xlink:href="#SVGID_21_"  overflow="visible"/>
	</clipPath>
	<g clip-path="url(#SVGID_22_)">
		<defs>
			<rect id="SVGID_23_" x="-3755.005" y="-1035.53" width="5635.249" height="3864.174"/>
		</defs>
		<clipPath id="SVGID_24_">
			<use xlink:href="#SVGID_23_"  overflow="visible"/>
		</clipPath>
		<rect x="63.56" y="179.333" clip-path="url(#SVGID_24_)" fill="#2E2E31" width="487.66" height="91.227"/>
	</g>
</g>
<g>
	<defs>
		<path id="SVGID_25_" d="M293.62,425.426c-64.242,0-135.052-7.758-203.012-31.057c-5.361-1.84-8.211-7.66-6.36-13.01
			c1.84-5.34,7.688-8.172,13.055-6.344c193.043,66.189,418.323,0.539,420.575-0.129c5.452-1.625,11.164,1.465,12.779,6.875
			c1.627,5.41-1.459,11.113-6.891,12.732C517.536,396.354,417.901,425.426,293.62,425.426"/>
	</defs>
	<clipPath id="SVGID_26_">
		<use xlink:href="#SVGID_25_"  overflow="visible"/>
	</clipPath>
	<g clip-path="url(#SVGID_26_)">
		<defs>
			<rect id="SVGID_27_" x="-3755.005" y="-1035.53" width="5635.249" height="3864.174"/>
		</defs>
		<clipPath id="SVGID_28_">
			<use xlink:href="#SVGID_27_"  overflow="visible"/>
		</clipPath>
		<rect x="63.556" y="354.326" clip-path="url(#SVGID_28_)" fill="#2E2E31" width="487.664" height="91.227"/>
	</g>
</g>
<g>
	<defs>
		<path id="SVGID_29_" d="M420.335,141.079v342.722c14.343-3.727,27.323-7.922,38.855-12.178V153.264
			C447.658,149.007,434.678,144.811,420.335,141.079"/>
	</defs>
	<clipPath id="SVGID_30_">
		<use xlink:href="#SVGID_29_"  overflow="visible"/>
	</clipPath>
	<g clip-path="url(#SVGID_30_)">
		<defs>
			<rect id="SVGID_31_" x="-3755.005" y="-1035.53" width="5635.249" height="3864.174"/>
		</defs>
		<clipPath id="SVGID_32_">
			<use xlink:href="#SVGID_31_"  overflow="visible"/>
		</clipPath>
		<rect x="400.209" y="120.952" clip-path="url(#SVGID_32_)" fill="#FBD800" width="79.107" height="382.974"/>
	</g>
</g>
<g>
	<defs>
		<path id="SVGID_33_" d="M420.335,494.037c-2.245,0-4.458-0.738-6.281-2.135c-2.52-1.938-3.99-4.934-3.99-8.102V141.076
			c0-3.166,1.471-6.153,3.99-8.099c2.52-1.936,5.806-2.599,8.875-1.8c13.503,3.514,26.906,7.716,39.831,12.492
			c4.025,1.494,6.703,5.315,6.703,9.599v318.352c0,4.285-2.678,8.109-6.703,9.6c-12.964,4.787-26.367,8.982-39.831,12.484
			C422.075,493.93,421.195,494.037,420.335,494.037 M430.605,154.557V470.33c6.156-1.822,12.28-3.793,18.314-5.902V160.452
			C442.894,158.351,436.77,156.385,430.605,154.557"/>
	</defs>
	<clipPath id="SVGID_34_">
		<use xlink:href="#SVGID_33_"  overflow="visible"/>
	</clipPath>
	<g clip-path="url(#SVGID_34_)">
		<defs>
			<rect id="SVGID_35_" x="-3755.005" y="-1035.53" width="5635.249" height="3864.174"/>
		</defs>
		<clipPath id="SVGID_36_">
			<use xlink:href="#SVGID_35_"  overflow="visible"/>
		</clipPath>
		<rect x="389.937" y="110.721" clip-path="url(#SVGID_36_)" fill="#2E2E31" width="99.652" height="403.441"/>
	</g>
</g>
<g>
	<defs>
		<path id="SVGID_37_" d="M387.674,134.007c4.709,34.269,7.595,77.256,2.716,121.015c-10.566,94.898-96.624,163.461-191.982,153.824
			c-33.522-3.393-68.393-8.359-104.454-15.236v48.152c73.274,37.414,140.81,52.361,199.593,55.07h0.016
			c116.085,5.342,197.713-37.268,220.614-50.914c0.196-0.123,0.393-0.234,0.582-0.35c2.083-1.248,3.624-2.209,4.614-2.85
			c0.268-0.178,0.495-0.322,0.684-0.453c0.209-0.135,0.318-0.203,0.433-0.277c0.205-0.139,0.33-0.227,0.33-0.227v-45.219v-84.105
			V183.121C520.818,183.121,470.692,148.675,387.674,134.007"/>
	</defs>
	<clipPath id="SVGID_38_">
		<use xlink:href="#SVGID_37_"  overflow="visible"/>
	</clipPath>
	<g clip-path="url(#SVGID_38_)">
		<defs>
			<rect id="SVGID_39_" x="-3755.005" y="-1035.53" width="5635.249" height="3864.174"/>
		</defs>
		<clipPath id="SVGID_40_">
			<use xlink:href="#SVGID_39_"  overflow="visible"/>
		</clipPath>
		<rect x="73.828" y="113.881" opacity="0.3" clip-path="url(#SVGID_40_)" fill="#1B1A1A" width="467.117" height="403.537"/>
	</g>
</g>
<g>
	<defs>
		<path id="SVGID_41_" d="M312.634,507.195c-64.666,0-140.661-14.098-223.37-56.326c-3.424-1.752-5.582-5.268-5.582-9.107V183.121
			c0-3.842,2.158-7.354,5.582-9.107c247.729-126.495,435.529-0.602,437.396,0.688c2.774,1.911,4.434,5.056,4.434,8.42v258.641
			c0,3.363-1.659,6.508-4.434,8.418C525.418,451.033,441.636,507.195,312.634,507.195z M104.229,435.469
			c213.425,106.016,377.655,17.953,406.322,0.664V188.761c-28.718-17.247-193.321-105.146-406.322,0.649V435.469z M520.818,441.762
			h0.07H520.818z"/>
	</defs>
	<clipPath id="SVGID_42_">
		<use xlink:href="#SVGID_41_"  overflow="visible"/>
	</clipPath>
	<g clip-path="url(#SVGID_42_)">
		<defs>
			<rect id="SVGID_43_" x="-3755.005" y="-1035.53" width="5635.249" height="3864.174"/>
		</defs>
		<clipPath id="SVGID_44_">
			<use xlink:href="#SVGID_43_"  overflow="visible"/>
		</clipPath>
		<rect x="63.556" y="97.558" clip-path="url(#SVGID_44_)" fill="#2E2E31" width="487.664" height="429.762"/>
	</g>
</g>
<g>
	<defs>
		<path id="SVGID_45_" d="M148.741,158.751v307.381c13.188,5.012,26.141,9.305,38.853,12.982V145.762
			C174.882,149.445,161.929,153.744,148.741,158.751"/>
	</defs>
	<clipPath id="SVGID_46_">
		<use xlink:href="#SVGID_45_"  overflow="visible"/>
	</clipPath>
	<g clip-path="url(#SVGID_46_)">
		<defs>
			<rect id="SVGID_47_" x="-3755.005" y="-1035.53" width="5635.249" height="3864.174"/>
		</defs>
		<clipPath id="SVGID_48_">
			<use xlink:href="#SVGID_47_"  overflow="visible"/>
		</clipPath>
		<rect x="128.615" y="125.636" clip-path="url(#SVGID_48_)" fill="#FBD800" width="79.104" height="373.604"/>
	</g>
</g>
<g>
	<defs>
		<path id="SVGID_49_" d="M187.594,489.354c-0.963,0-1.922-0.137-2.87-0.41c-13.317-3.855-26.659-8.314-39.646-13.258
			c-3.979-1.506-6.612-5.314-6.612-9.557V158.75c0-4.243,2.633-8.044,6.62-9.558c13.015-4.953,26.356-9.408,39.638-13.257
			c3.125-0.894,6.455-0.286,9.033,1.646c2.591,1.938,4.112,4.966,4.112,8.186v333.351c0,3.223-1.521,6.252-4.112,8.189
			C191.965,488.65,189.794,489.354,187.594,489.354z M159.013,459.029c6.053,2.203,12.169,4.289,18.31,6.254V159.595
			c-6.136,1.965-12.252,4.061-18.31,6.264V459.029z"/>
	</defs>
	<clipPath id="SVGID_50_">
		<use xlink:href="#SVGID_49_"  overflow="visible"/>
	</clipPath>
	<g clip-path="url(#SVGID_50_)">
		<defs>
			<rect id="SVGID_51_" x="-3755.005" y="-1035.53" width="5635.249" height="3864.174"/>
		</defs>
		<clipPath id="SVGID_52_">
			<use xlink:href="#SVGID_51_"  overflow="visible"/>
		</clipPath>
		<rect x="118.34" y="115.406" clip-path="url(#SVGID_52_)" fill="#2E2E31" width="99.655" height="394.072"/>
	</g>
</g>
<g>
	<defs>
		<path id="SVGID_53_" d="M93.953,312.439H52.687H36.343c-9.682,0-17.539,7.818-17.539,17.467v20.721v25.186h33.883v-31.689h41.266
			V312.439z"/>
	</defs>
	<clipPath id="SVGID_54_">
		<use xlink:href="#SVGID_53_"  overflow="visible"/>
	</clipPath>
	<g clip-path="url(#SVGID_54_)">
		<defs>
			<rect id="SVGID_55_" x="-3755.005" y="-1035.53" width="5635.249" height="3864.174"/>
		</defs>
		<clipPath id="SVGID_56_">
			<use xlink:href="#SVGID_55_"  overflow="visible"/>
		</clipPath>
		<rect x="-1.323" y="292.313" clip-path="url(#SVGID_56_)" fill="#FBD800" width="115.402" height="103.624"/>
	</g>
</g>
<g>
	<defs>
		<path id="SVGID_57_" d="M52.687,386.045H18.808c-5.668,0-10.271-4.58-10.271-10.234v-45.909c0-15.268,12.472-27.698,27.811-27.698
			h57.614c5.668,0,10.268,4.586,10.268,10.234v31.682c0,5.656-4.599,10.234-10.268,10.234H62.955v21.457
			C62.955,381.465,58.356,386.045,52.687,386.045z M29.079,365.576h13.333v-21.457c0-5.648,4.603-10.232,10.275-10.232h30.999
			V322.67H36.347c-4.006,0-7.269,3.249-7.269,7.231V365.576z"/>
	</defs>
	<clipPath id="SVGID_58_">
		<use xlink:href="#SVGID_57_"  overflow="visible"/>
	</clipPath>
	<g clip-path="url(#SVGID_58_)">
		<defs>
			<rect id="SVGID_59_" x="-3755.005" y="-1035.53" width="5635.249" height="3864.174"/>
		</defs>
		<clipPath id="SVGID_60_">
			<use xlink:href="#SVGID_59_"  overflow="visible"/>
		</clipPath>
		<rect x="-11.589" y="282.077" clip-path="url(#SVGID_60_)" fill="#2E2E31" width="135.944" height="124.093"/>
	</g>
</g>
<g>
	<defs>
		<line id="SVGID_61_" x1="41.846" y1="312.439" x2="41.846" y2="286.38"/>
	</defs>
	<clipPath id="SVGID_62_">
		<use xlink:href="#SVGID_61_"  overflow="visible"/>
	</clipPath>
	<g clip-path="url(#SVGID_62_)">
		<defs>
			<rect id="SVGID_63_" x="-3755.005" y="-1035.53" width="5635.249" height="3864.174"/>
		</defs>
		<clipPath id="SVGID_64_">
			<use xlink:href="#SVGID_63_"  overflow="visible"/>
		</clipPath>
		<rect x="21.72" y="266.252" clip-path="url(#SVGID_64_)" fill="#FFFFFF" width="40.251" height="66.312"/>
	</g>
</g>
<g>
	<defs>
		<path id="SVGID_65_" d="M41.846,322.673c-5.668,0-10.271-4.577-10.271-10.233v-26.06c0-5.651,4.603-10.234,10.271-10.234
			c5.672,0,10.275,4.583,10.275,10.234v26.06C52.121,318.096,47.518,322.673,41.846,322.673"/>
	</defs>
	<clipPath id="SVGID_66_">
		<use xlink:href="#SVGID_65_"  overflow="visible"/>
	</clipPath>
	<g clip-path="url(#SVGID_66_)">
		<defs>
			<rect id="SVGID_67_" x="-3755.005" y="-1035.53" width="5635.249" height="3864.174"/>
		</defs>
		<clipPath id="SVGID_68_">
			<use xlink:href="#SVGID_67_"  overflow="visible"/>
		</clipPath>
		<rect x="11.449" y="256.02" clip-path="url(#SVGID_68_)" fill="#2E2E31" width="60.798" height="86.779"/>
	</g>
</g>
<g>
	<defs>
		<line id="SVGID_69_" x1="18.808" y1="286.38" x2="63.525" y2="286.38"/>
	</defs>
	<clipPath id="SVGID_70_">
		<use xlink:href="#SVGID_69_"  overflow="visible"/>
	</clipPath>
	<g clip-path="url(#SVGID_70_)">
		<defs>
			<rect id="SVGID_71_" x="-3755.005" y="-1035.53" width="5635.249" height="3864.174"/>
		</defs>
		<clipPath id="SVGID_72_">
			<use xlink:href="#SVGID_71_"  overflow="visible"/>
		</clipPath>
		<rect x="-1.318" y="266.254" clip-path="url(#SVGID_72_)" fill="#FFFFFF" width="84.969" height="40.252"/>
	</g>
</g>
<g>
	<defs>
		<path id="SVGID_73_" d="M63.529,296.613H18.812c-5.672,0-10.275-4.577-10.275-10.233s4.603-10.234,10.275-10.234h44.717
			c5.668,0,10.271,4.578,10.271,10.234S69.197,296.613,63.529,296.613"/>
	</defs>
	<clipPath id="SVGID_74_">
		<use xlink:href="#SVGID_73_"  overflow="visible"/>
	</clipPath>
	<g clip-path="url(#SVGID_74_)">
		<defs>
			<rect id="SVGID_75_" x="-3755.005" y="-1035.53" width="5635.249" height="3864.174"/>
		</defs>
		<clipPath id="SVGID_76_">
			<use xlink:href="#SVGID_75_"  overflow="visible"/>
		</clipPath>
		<rect x="-11.589" y="256.022" clip-path="url(#SVGID_76_)" fill="#2E2E31" width="105.515" height="60.718"/>
	</g>
</g>
<g>
	<defs>
		<path id="SVGID_77_" d="M121.689,454.988l-13.695,54.258h102.485l13.699-21.049C224.178,488.197,159.59,479.186,121.689,454.988"
			/>
	</defs>
	<clipPath id="SVGID_78_">
		<use xlink:href="#SVGID_77_"  overflow="visible"/>
	</clipPath>
	<g clip-path="url(#SVGID_78_)">
		<defs>
			<rect id="SVGID_79_" x="-3755.005" y="-1035.53" width="5635.249" height="3864.174"/>
		</defs>
		<clipPath id="SVGID_80_">
			<use xlink:href="#SVGID_79_"  overflow="visible"/>
		</clipPath>
		<rect x="87.869" y="434.861" clip-path="url(#SVGID_80_)" fill="#564F47" width="156.436" height="94.51"/>
	</g>
</g>
<g>
	<defs>
		<path id="SVGID_81_" d="M501.817,454.988l13.694,54.258H413.023l-13.695-21.049C399.328,488.197,463.912,479.186,501.817,454.988"
			/>
	</defs>
	<clipPath id="SVGID_82_">
		<use xlink:href="#SVGID_81_"  overflow="visible"/>
	</clipPath>
	<g clip-path="url(#SVGID_82_)">
		<defs>
			<rect id="SVGID_83_" x="-3755.005" y="-1035.53" width="5635.249" height="3864.174"/>
		</defs>
		<clipPath id="SVGID_84_">
			<use xlink:href="#SVGID_83_"  overflow="visible"/>
		</clipPath>
		<rect x="379.203" y="434.861" clip-path="url(#SVGID_84_)" fill="#564F47" width="156.435" height="94.51"/>
	</g>
</g>
<g>
	<defs>
		<path id="SVGID_85_" d="M210.479,519.479H107.994c-3.168,0-6.152-1.453-8.098-3.943c-1.95-2.484-2.634-5.723-1.867-8.785
			l13.695-54.258c0.806-3.195,3.109-5.807,6.175-7.02c3.089-1.209,6.557-0.877,9.335,0.898
			c35.527,22.684,97.741,31.607,98.37,31.697c3.475,0.482,6.458,2.701,7.913,5.879c1.458,3.188,1.183,6.885-0.72,9.818
			l-13.695,21.047C217.205,517.725,213.965,519.479,210.479,519.479z M121.166,499.012h83.731l2.201-3.377
			c-19.108-3.725-52.068-11.549-78.739-25.1L121.166,499.012z"/>
	</defs>
	<clipPath id="SVGID_86_">
		<use xlink:href="#SVGID_85_"  overflow="visible"/>
	</clipPath>
	<g clip-path="url(#SVGID_86_)">
		<defs>
			<rect id="SVGID_87_" x="-3755.005" y="-1035.53" width="5635.249" height="3864.174"/>
		</defs>
		<clipPath id="SVGID_88_">
			<use xlink:href="#SVGID_87_"  overflow="visible"/>
		</clipPath>
		<rect x="77.593" y="424.631" clip-path="url(#SVGID_88_)" fill="#2E2E31" width="176.979" height="114.975"/>
	</g>
</g>
<g>
	<defs>
		<path id="SVGID_89_" d="M515.509,519.479H413.027c-3.487,0-6.729-1.754-8.62-4.666l-13.699-21.047
			c-1.91-2.934-2.186-6.631-0.723-9.818c1.449-3.178,4.441-5.396,7.915-5.879c0.622-0.09,62.839-9.014,98.374-31.697
			c2.783-1.775,6.25-2.107,9.323-0.898c3.066,1.213,5.37,3.824,6.18,7.02l13.695,54.258c0.771,3.062,0.083,6.301-1.862,8.785
			C521.663,518.025,518.673,519.479,515.509,519.479z M418.609,499.012h83.73l-7.189-28.477
			c-26.683,13.551-59.636,21.375-78.743,25.1L418.609,499.012z"/>
	</defs>
	<clipPath id="SVGID_90_">
		<use xlink:href="#SVGID_89_"  overflow="visible"/>
	</clipPath>
	<g clip-path="url(#SVGID_90_)">
		<defs>
			<rect id="SVGID_91_" x="-3755.005" y="-1035.53" width="5635.249" height="3864.174"/>
		</defs>
		<clipPath id="SVGID_92_">
			<use xlink:href="#SVGID_91_"  overflow="visible"/>
		</clipPath>
		<rect x="368.931" y="424.631" clip-path="url(#SVGID_92_)" fill="#2E2E31" width="176.979" height="114.975"/>
	</g>
</g>
</svg>
