<?xml version="1.0" encoding="utf-8"?>
<!-- Generator: Adobe Illustrator 16.0.0, SVG Export Plug-In . SVG Version: 6.00 Build 0)  -->
<!DOCTYPE svg PUBLIC "-//W3C//DTD SVG 1.1//EN" "http://www.w3.org/Graphics/SVG/1.1/DTD/svg11.dtd">
<svg version="1.1" id="Layer_1" xmlns="http://www.w3.org/2000/svg" xmlns:xlink="http://www.w3.org/1999/xlink" x="0px" y="0px"
	 width="560px" height="560px" viewBox="0 0 560 560" enable-background="new 0 0 560 560" xml:space="preserve">
<g>
	<defs>
		<path id="SVGID_1_" d="M181.056,374.531c0,14.223-11.548,25.753-25.807,25.753c-14.259,0-25.813-11.53-25.813-25.753
			c0-14.214,11.555-25.744,25.813-25.744C169.508,348.787,181.056,360.317,181.056,374.531z"/>
	</defs>
	<clipPath id="SVGID_2_">
		<use xlink:href="#SVGID_1_"  overflow="visible"/>
	</clipPath>
	<g clip-path="url(#SVGID_2_)">
		<defs>
			<rect id="SVGID_3_" x="-1243.231" y="-2425.171" width="5223.97" height="3582.15"/>
		</defs>
		<clipPath id="SVGID_4_">
			<use xlink:href="#SVGID_3_"  overflow="visible"/>
		</clipPath>
		<rect x="110.778" y="330.131" clip-path="url(#SVGID_4_)" fill="#FFFFFF" width="88.935" height="88.809"/>
	</g>
</g>
<g>
	<defs>
		<path id="SVGID_5_" d="M155.245,409.794c-19.485,0-35.339-15.818-35.339-35.258c0-19.449,15.854-35.259,35.339-35.259
			c19.488,0,35.339,15.81,35.339,35.259C190.584,393.976,174.733,409.794,155.245,409.794 M155.245,358.291
			c-8.979,0-16.281,7.279-16.281,16.245c0,8.955,7.302,16.243,16.281,16.243c8.979,0,16.285-7.288,16.285-16.243
			C171.53,365.57,164.224,358.291,155.245,358.291"/>
	</defs>
	<clipPath id="SVGID_6_">
		<use xlink:href="#SVGID_5_"  overflow="visible"/>
	</clipPath>
	<g clip-path="url(#SVGID_6_)">
		<defs>
			<rect id="SVGID_7_" x="-1243.231" y="-2425.171" width="5223.97" height="3582.15"/>
		</defs>
		<clipPath id="SVGID_8_">
			<use xlink:href="#SVGID_7_"  overflow="visible"/>
		</clipPath>
		<rect x="101.249" y="320.619" clip-path="url(#SVGID_8_)" fill="#2E2E31" width="107.993" height="107.832"/>
	</g>
</g>
<g>
	<defs>
		<path id="SVGID_9_" d="M218.516,333.22c0.994-30.567-6.997-51.267-13.548-62.942c-5.179-9.218-7.966-19.535-8.805-30.069
			c-3.436-43.257-16.66-138.554-16.66-138.554h-24.258h-24.258c0,0-13.221,95.297-16.649,138.554
			c-0.841,10.534-3.636,20.851-8.807,30.069c-6.552,11.676-14.543,32.375-13.544,62.942c1.261,38.882,0.55,98.311,0.131,129.703
			c-0.109,8.651,6.366,15.697,14.405,15.697h48.723h48.727c8.036,0,14.51-7.046,14.401-15.697
			C217.961,431.53,217.243,372.102,218.516,333.22"/>
	</defs>
	<clipPath id="SVGID_10_">
		<use xlink:href="#SVGID_9_"  overflow="visible"/>
	</clipPath>
	<g clip-path="url(#SVGID_10_)">
		<defs>
			<rect id="SVGID_11_" x="-1243.231" y="-2425.171" width="5223.97" height="3582.15"/>
		</defs>
		<clipPath id="SVGID_12_">
			<use xlink:href="#SVGID_11_"  overflow="visible"/>
		</clipPath>
		
			<rect x="73.242" y="82.997" clip-path="url(#SVGID_12_)" fill="#FFC100" stroke="#000000" stroke-miterlimit="10" width="164.015" height="414.281"/>
	</g>
</g>
<g>
	<defs>
		<path id="SVGID_13_" d="M119.265,192.702h71.961c-5.09-43.257-11.723-91.047-11.723-91.047h-24.258h-24.258
			C130.987,101.654,124.362,149.445,119.265,192.702"/>
	</defs>
	<clipPath id="SVGID_14_">
		<use xlink:href="#SVGID_13_"  overflow="visible"/>
	</clipPath>
	<g clip-path="url(#SVGID_14_)">
		<defs>
			<rect id="SVGID_15_" x="-1243.231" y="-2425.171" width="5223.97" height="3582.15"/>
		</defs>
		<clipPath id="SVGID_16_">
			<use xlink:href="#SVGID_15_"  overflow="visible"/>
		</clipPath>
		<rect x="100.608" y="82.997" clip-path="url(#SVGID_16_)" fill="#FFFFFF" width="109.275" height="128.362"/>
	</g>
</g>
<g>
	<defs>
		<path id="SVGID_17_" d="M218.129,443.407c-0.369-32.72-0.66-78.339,0.39-110.188c0.303-9.521-0.321-17.968-1.443-25.599
			c-9.242-4.609-37.303-17.487-62.577-17.487c-24.368,0-50.961,11.96-61.007,16.948c-1.167,7.768-1.83,16.396-1.505,26.138
			c1.042,32.016,0.743,77.93,0.368,110.686C103.905,448.577,148.832,463.199,218.129,443.407"/>
	</defs>
	<clipPath id="SVGID_18_">
		<use xlink:href="#SVGID_17_"  overflow="visible"/>
	</clipPath>
	<g clip-path="url(#SVGID_18_)">
		<defs>
			<rect id="SVGID_19_" x="-1243.231" y="-2425.171" width="5223.97" height="3582.15"/>
		</defs>
		<clipPath id="SVGID_20_">
			<use xlink:href="#SVGID_19_"  overflow="visible"/>
		</clipPath>
		<rect x="73.249" y="271.476" clip-path="url(#SVGID_20_)" fill="#9ECC59" width="164" height="200.677"/>
	</g>
</g>
<g>
	<defs>
		<path id="SVGID_21_" d="M218.516,333.22c0.994-30.567-6.997-51.267-13.548-62.942c-5.179-9.218-7.966-19.535-8.805-30.069
			c-3.436-43.257-16.66-138.554-16.66-138.554h-24.258h-4.274c0,0,13.221,95.297,16.657,138.554
			c0.834,10.534,3.629,20.851,8.807,30.069c6.548,11.676,14.543,32.375,13.544,62.942c-1.268,38.882-0.553,98.311-0.146,129.703
			c0.116,8.651-6.366,15.697-14.397,15.697h28.536c8.036,0,14.51-7.046,14.401-15.697
			C217.961,431.53,217.243,372.102,218.516,333.22"/>
	</defs>
	<clipPath id="SVGID_22_">
		<use xlink:href="#SVGID_21_"  overflow="visible"/>
	</clipPath>
	<g clip-path="url(#SVGID_22_)">
		<defs>
			<rect id="SVGID_23_" x="-1243.231" y="-2425.171" width="5223.97" height="3582.15"/>
		</defs>
		<clipPath id="SVGID_24_">
			<use xlink:href="#SVGID_23_"  overflow="visible"/>
		</clipPath>
		<rect x="132.314" y="82.997" opacity="0.3" clip-path="url(#SVGID_24_)" fill="#88451F" width="104.943" height="414.281"/>
	</g>
</g>
<g>
	<defs>
		<path id="SVGID_25_" d="M203.972,488.132h-97.45c-6.253,0-12.16-2.493-16.646-7.025c-4.715-4.767-7.372-11.438-7.288-18.311
			c0.551-41.44,1.036-93.577-0.127-129.263c-1.061-32.497,7.441-54.859,14.75-67.896c4.285-7.625,6.844-16.436,7.62-26.175
			c3.418-43.047,16.168-135.209,16.714-139.116c0.656-4.697,4.686-8.199,9.442-8.199h48.516c4.759,0,8.79,3.501,9.441,8.199
			c0.547,3.907,13.301,96.069,16.722,139.116c0.776,9.754,3.335,18.559,7.619,26.169c7.318,13.042,15.816,35.405,14.751,67.902
			c-1.301,39.873-0.48,102.516-0.13,129.263c0.08,6.873-2.573,13.544-7.288,18.311C216.131,485.639,210.221,488.132,203.972,488.132
			z M139.307,111.162c-3.262,24.028-12.688,94.688-15.473,129.793c-0.999,12.507-4.358,23.933-9.992,33.974
			c-6.125,10.921-13.256,29.861-12.334,57.981c1.177,36.079,0.692,88.497,0.142,130.134c-0.021,1.818,0.627,3.53,1.789,4.708
			c0.616,0.622,1.651,1.362,3.083,1.362h97.45c1.43,0,2.464-0.74,3.079-1.362c1.164-1.178,1.812-2.89,1.793-4.708
			c-0.35-26.882-1.177-89.82,0.146-130.134c0.922-28.12-6.205-47.061-12.331-57.987c-5.637-10.017-8.997-21.452-9.995-33.968
			c-2.788-35.103-12.219-105.765-15.476-129.793H139.307z M218.516,333.22h0.062H218.516z"/>
	</defs>
	<clipPath id="SVGID_26_">
		<use xlink:href="#SVGID_25_"  overflow="visible"/>
	</clipPath>
	<g clip-path="url(#SVGID_26_)">
		<defs>
			<rect id="SVGID_27_" x="-1243.231" y="-2425.171" width="5223.97" height="3582.15"/>
		</defs>
		<clipPath id="SVGID_28_">
			<use xlink:href="#SVGID_27_"  overflow="visible"/>
		</clipPath>
		<rect x="63.713" y="73.49" clip-path="url(#SVGID_28_)" fill="#2E2E31" width="183.072" height="433.299"/>
	</g>
</g>
<g>
	<defs>
		<path id="SVGID_29_" d="M186.919,101.65h-64.771v-8.949c0-10.78,8.759-19.514,19.561-19.514h25.65
			c10.808,0,19.561,8.734,19.561,19.514V101.65z"/>
	</defs>
	<clipPath id="SVGID_30_">
		<use xlink:href="#SVGID_29_"  overflow="visible"/>
	</clipPath>
	<g clip-path="url(#SVGID_30_)">
		<defs>
			<rect id="SVGID_31_" x="-1243.231" y="-2425.171" width="5223.97" height="3582.15"/>
		</defs>
		<clipPath id="SVGID_32_">
			<use xlink:href="#SVGID_31_"  overflow="visible"/>
		</clipPath>
		<rect x="103.49" y="54.531" clip-path="url(#SVGID_32_)" fill="#7F562C" width="102.085" height="65.776"/>
	</g>
</g>
<g>
	<defs>
		<path id="SVGID_33_" d="M186.919,111.158h-64.776c-5.261,0-9.529-4.257-9.529-9.508v-8.949c0-16.008,13.049-29.021,29.094-29.021
			h25.65c16.047,0,29.09,13.013,29.09,29.021v8.949C196.448,106.901,192.18,111.158,186.919,111.158 M131.687,92.143h45.688
			c-0.285-5.261-4.675-9.448-10.017-9.448h-25.65C136.362,82.695,131.979,86.882,131.687,92.143"/>
	</defs>
	<clipPath id="SVGID_34_">
		<use xlink:href="#SVGID_33_"  overflow="visible"/>
	</clipPath>
	<g clip-path="url(#SVGID_34_)">
		<defs>
			<rect id="SVGID_35_" x="-1243.231" y="-2425.171" width="5223.97" height="3582.15"/>
		</defs>
		<clipPath id="SVGID_36_">
			<use xlink:href="#SVGID_35_"  overflow="visible"/>
		</clipPath>
		<rect x="93.958" y="45.024" clip-path="url(#SVGID_36_)" fill="#2E2E31" width="121.147" height="84.791"/>
	</g>
</g>
<g>
	<defs>
		<line id="SVGID_37_" x1="127.267" y1="129.195" x2="183.23" y2="129.195"/>
	</defs>
	<clipPath id="SVGID_38_">
		<use xlink:href="#SVGID_37_"  overflow="visible"/>
	</clipPath>
	<g clip-path="url(#SVGID_38_)">
		<defs>
			<rect id="SVGID_39_" x="-1243.231" y="-2425.171" width="5223.97" height="3582.15"/>
		</defs>
		<clipPath id="SVGID_40_">
			<use xlink:href="#SVGID_39_"  overflow="visible"/>
		</clipPath>
		<rect x="108.61" y="110.539" clip-path="url(#SVGID_40_)" fill="#FFFFFF" width="93.277" height="37.313"/>
	</g>
</g>
<g>
	<defs>
		<path id="SVGID_41_" d="M183.227,138.702h-55.96c-5.262,0-9.53-4.26-9.53-9.507s4.268-9.507,9.53-9.507h55.96
			c5.262,0,9.529,4.26,9.529,9.507S188.489,138.702,183.227,138.702"/>
	</defs>
	<clipPath id="SVGID_42_">
		<use xlink:href="#SVGID_41_"  overflow="visible"/>
	</clipPath>
	<g clip-path="url(#SVGID_42_)">
		<defs>
			<rect id="SVGID_43_" x="-1243.231" y="-2425.171" width="5223.97" height="3582.15"/>
		</defs>
		<clipPath id="SVGID_44_">
			<use xlink:href="#SVGID_43_"  overflow="visible"/>
		</clipPath>
		<rect x="99.081" y="101.031" clip-path="url(#SVGID_44_)" fill="#2E2E31" width="112.333" height="56.328"/>
	</g>
</g>
<g>
	<defs>
		<path id="SVGID_45_" d="M181.241,370.064c0,14.146-11.504,25.624-25.687,25.624c-14.178,0-25.679-11.479-25.679-25.624
			c0-14.149,11.501-25.621,25.679-25.621C169.737,344.443,181.241,355.915,181.241,370.064"/>
	</defs>
	<clipPath id="SVGID_46_">
		<use xlink:href="#SVGID_45_"  overflow="visible"/>
	</clipPath>
	<g clip-path="url(#SVGID_46_)">
		<defs>
			<rect id="SVGID_47_" x="-1243.231" y="-2425.171" width="5223.97" height="3582.15"/>
		</defs>
		<clipPath id="SVGID_48_">
			<use xlink:href="#SVGID_47_"  overflow="visible"/>
		</clipPath>
		<rect x="111.219" y="325.786" clip-path="url(#SVGID_48_)" fill="#7F562C" width="88.679" height="88.56"/>
	</g>
</g>
<g>
	<defs>
		<path id="SVGID_49_" d="M155.555,405.196c-19.415,0-35.208-15.758-35.208-35.132c0-19.371,15.793-35.129,35.208-35.129
			c19.426,0,35.219,15.758,35.219,35.129C190.773,389.438,174.98,405.196,155.555,405.196 M155.555,353.95
			c-8.902,0-16.149,7.234-16.149,16.114c0,8.883,7.248,16.117,16.149,16.117c8.909,0,16.157-7.234,16.157-16.117
			C171.712,361.185,164.464,353.95,155.555,353.95"/>
	</defs>
	<clipPath id="SVGID_50_">
		<use xlink:href="#SVGID_49_"  overflow="visible"/>
	</clipPath>
	<g clip-path="url(#SVGID_50_)">
		<defs>
			<rect id="SVGID_51_" x="-1243.231" y="-2425.171" width="5223.97" height="3582.15"/>
		</defs>
		<clipPath id="SVGID_52_">
			<use xlink:href="#SVGID_51_"  overflow="visible"/>
		</clipPath>
		<rect x="101.69" y="316.28" clip-path="url(#SVGID_52_)" fill="#2E2E31" width="107.741" height="107.571"/>
	</g>
</g>
<g>
	<defs>
		<path id="SVGID_53_" d="M150.005,463.004c-32.136,0-53.311-7.084-61.226-10.287c-3.636-1.47-5.998-5.011-5.954-8.917
			c0.565-49.369,0.444-85.434-0.364-110.267c-0.317-9.451,0.211-18.572,1.607-27.864c0.458-3.062,2.397-5.718,5.17-7.099
			c10.866-5.393,38.975-17.943,65.263-17.943c26.889,0,55.698,12.928,66.833,18.488c2.788,1.396,4.716,4.049,5.171,7.125
			c1.33,9.08,1.837,18.01,1.534,27.293c-0.809,24.638-0.936,60.548-0.382,109.767c0.05,4.282-2.777,8.068-6.906,9.245
			C193.426,460.354,169.664,463.004,150.005,463.004 M101.963,437.266c16.048,5.16,52.852,12.765,106.552-1.104
			c-0.458-45.749-0.298-79.577,0.479-103.252c0.208-6.446-0.027-12.695-0.715-18.955c-11.011-5.099-33.717-14.313-53.778-14.313
			c-19.331,0-40.648,8.432-52.235,13.784c-0.726,6.447-0.974,12.868-0.755,19.48C102.291,356.87,102.437,391.058,101.963,437.266"/>
	</defs>
	<clipPath id="SVGID_54_">
		<use xlink:href="#SVGID_53_"  overflow="visible"/>
	</clipPath>
	<g clip-path="url(#SVGID_54_)">
		<defs>
			<rect id="SVGID_55_" x="-1243.231" y="-2425.171" width="5223.97" height="3582.15"/>
		</defs>
		<clipPath id="SVGID_56_">
			<use xlink:href="#SVGID_55_"  overflow="visible"/>
		</clipPath>
		<rect x="63.716" y="261.97" clip-path="url(#SVGID_56_)" fill="#2E2E31" width="183.065" height="219.691"/>
	</g>
</g>
<g>
	<defs>
		<path id="SVGID_57_" d="M344.825,333.22c0.998-30.567-6.997-51.267-13.545-62.942c-5.17-9.218-7.969-19.535-8.808-30.069
			c-3.436-43.257-16.66-138.554-16.66-138.554H281.56h-24.257c0,0-13.218,95.297-16.654,138.554
			c-0.839,10.534-3.633,20.851-8.808,30.069c-6.548,11.676-14.542,32.375-13.544,62.942c1.264,38.882,0.554,98.311,0.136,129.703
			c-0.11,8.651,6.365,15.697,14.4,15.697h48.728h48.724c8.037,0,14.514-7.046,14.403-15.697
			C344.271,431.53,343.555,372.102,344.825,333.22"/>
	</defs>
	<clipPath id="SVGID_58_">
		<use xlink:href="#SVGID_57_"  overflow="visible"/>
	</clipPath>
	<g clip-path="url(#SVGID_58_)">
		<defs>
			<rect id="SVGID_59_" x="-1243.231" y="-2425.171" width="5223.97" height="3582.15"/>
		</defs>
		<clipPath id="SVGID_60_">
			<use xlink:href="#SVGID_59_"  overflow="visible"/>
		</clipPath>
		
			<rect x="199.555" y="82.997" clip-path="url(#SVGID_60_)" fill="#FFC100" stroke="#000000" stroke-miterlimit="10" width="164.015" height="414.281"/>
	</g>
</g>
<g>
	<defs>
		<path id="SVGID_61_" d="M245.579,192.702h71.96c-5.09-43.257-11.727-91.047-11.727-91.047H281.56h-24.263
			C257.297,101.654,250.674,149.445,245.579,192.702"/>
	</defs>
	<clipPath id="SVGID_62_">
		<use xlink:href="#SVGID_61_"  overflow="visible"/>
	</clipPath>
	<g clip-path="url(#SVGID_62_)">
		<defs>
			<rect id="SVGID_63_" x="-1243.231" y="-2425.171" width="5223.97" height="3582.15"/>
		</defs>
		<clipPath id="SVGID_64_">
			<use xlink:href="#SVGID_63_"  overflow="visible"/>
		</clipPath>
		<rect x="226.922" y="82.997" clip-path="url(#SVGID_64_)" fill="#FFFFFF" width="109.274" height="128.362"/>
	</g>
</g>
<g>
	<defs>
		<path id="SVGID_65_" d="M344.443,443.407c-0.368-32.72-0.659-78.339,0.385-110.188c0.307-9.521-0.316-17.968-1.442-25.599
			c-9.237-4.609-37.299-17.487-62.574-17.487c-24.367,0-50.96,11.96-60.999,16.948c-1.177,7.768-1.836,16.396-1.514,26.138
			c1.043,32.016,0.744,77.93,0.369,110.686C230.22,448.577,275.146,463.199,344.443,443.407"/>
	</defs>
	<clipPath id="SVGID_66_">
		<use xlink:href="#SVGID_65_"  overflow="visible"/>
	</clipPath>
	<g clip-path="url(#SVGID_66_)">
		<defs>
			<rect id="SVGID_67_" x="-1243.231" y="-2425.171" width="5223.97" height="3582.15"/>
		</defs>
		<clipPath id="SVGID_68_">
			<use xlink:href="#SVGID_67_"  overflow="visible"/>
		</clipPath>
		<rect x="199.56" y="271.476" clip-path="url(#SVGID_68_)" fill="#9ECC59" width="164.002" height="200.677"/>
	</g>
</g>
<g>
	<defs>
		<path id="SVGID_69_" d="M344.825,333.22c0.998-30.567-6.997-51.267-13.545-62.942c-5.17-9.218-7.969-19.535-8.808-30.069
			c-3.436-43.257-16.66-138.554-16.66-138.554H281.56h-4.279c0,0,13.225,95.297,16.66,138.554
			c0.832,10.534,3.63,20.851,8.805,30.069c6.552,11.676,14.546,32.375,13.548,62.942c-1.272,38.882-0.554,98.311-0.146,129.703
			c0.112,8.651-6.365,15.697-14.396,15.697h28.532c8.037,0,14.514-7.046,14.403-15.697
			C344.271,431.53,343.555,372.102,344.825,333.22"/>
	</defs>
	<clipPath id="SVGID_70_">
		<use xlink:href="#SVGID_69_"  overflow="visible"/>
	</clipPath>
	<g clip-path="url(#SVGID_70_)">
		<defs>
			<rect id="SVGID_71_" x="-1243.231" y="-2425.171" width="5223.97" height="3582.15"/>
		</defs>
		<clipPath id="SVGID_72_">
			<use xlink:href="#SVGID_71_"  overflow="visible"/>
		</clipPath>
		<rect x="258.625" y="82.997" opacity="0.3" clip-path="url(#SVGID_72_)" fill="#88451F" width="104.945" height="414.281"/>
	</g>
</g>
<g>
	<defs>
		<path id="SVGID_73_" d="M330.283,488.132h-97.452c-6.253,0-12.16-2.493-16.645-7.025c-4.714-4.767-7.368-11.438-7.288-18.311
			c0.554-41.44,1.035-93.577-0.124-129.263c-1.065-32.497,7.437-54.859,14.75-67.896c4.282-7.625,6.844-16.436,7.616-26.175
			c3.425-43.047,16.173-135.209,16.712-139.108c0.663-4.705,4.689-8.206,9.45-8.206h48.51c4.76,0,8.79,3.501,9.446,8.199
			c0.546,3.907,13.296,96.069,16.722,139.116c0.777,9.739,3.333,18.55,7.616,26.169c7.319,13.042,15.814,35.405,14.755,67.902
			c-1.306,39.873-0.485,102.516-0.136,129.263c0.084,6.873-2.573,13.544-7.284,18.311
			C342.442,485.639,336.536,488.132,330.283,488.132z M265.616,111.162c-3.256,24.028-12.681,94.691-15.468,129.793
			c-0.998,12.507-4.358,23.933-9.995,33.974c-6.126,10.921-13.253,29.861-12.335,57.981c1.177,36.079,0.693,88.497,0.142,130.134
			c-0.018,1.818,0.631,3.53,1.79,4.708c0.619,0.622,1.654,1.362,3.082,1.362h97.452c1.432,0,2.466-0.74,3.082-1.362
			c1.162-1.178,1.812-2.89,1.79-4.708c-0.347-26.882-1.174-89.82,0.148-130.134c0.918-28.12-6.21-47.061-12.336-57.987
			c-5.632-10.035-8.992-21.461-9.991-33.968c-2.791-35.103-12.217-105.765-15.479-129.793H265.616z M344.825,333.22h0.065H344.825z"
			/>
	</defs>
	<clipPath id="SVGID_74_">
		<use xlink:href="#SVGID_73_"  overflow="visible"/>
	</clipPath>
	<g clip-path="url(#SVGID_74_)">
		<defs>
			<rect id="SVGID_75_" x="-1243.231" y="-2425.171" width="5223.97" height="3582.15"/>
		</defs>
		<clipPath id="SVGID_76_">
			<use xlink:href="#SVGID_75_"  overflow="visible"/>
		</clipPath>
		<rect x="190.027" y="73.49" clip-path="url(#SVGID_76_)" fill="#2E2E31" width="183.069" height="433.299"/>
	</g>
</g>
<g>
	<defs>
		<path id="SVGID_77_" d="M313.232,101.65H248.46v-8.949c0-10.78,8.761-19.514,19.562-19.514h25.649
			c10.809,0,19.562,8.734,19.562,19.514V101.65z"/>
	</defs>
	<clipPath id="SVGID_78_">
		<use xlink:href="#SVGID_77_"  overflow="visible"/>
	</clipPath>
	<g clip-path="url(#SVGID_78_)">
		<defs>
			<rect id="SVGID_79_" x="-1243.231" y="-2425.171" width="5223.97" height="3582.15"/>
		</defs>
		<clipPath id="SVGID_80_">
			<use xlink:href="#SVGID_79_"  overflow="visible"/>
		</clipPath>
		<rect x="229.805" y="54.531" clip-path="url(#SVGID_80_)" fill="#7F562C" width="102.086" height="65.776"/>
	</g>
</g>
<g>
	<defs>
		<path id="SVGID_81_" d="M313.232,111.158h-64.775c-5.262,0-9.533-4.257-9.533-9.508v-8.949c0-16.008,13.054-29.021,29.094-29.021
			h25.649c16.049,0,29.093,13.013,29.093,29.021v8.949C322.761,106.901,318.489,111.158,313.232,111.158 M258,92.143h45.685
			c-0.283-5.261-4.675-9.448-10.017-9.448h-25.649C262.676,82.695,258.293,86.882,258,92.143"/>
	</defs>
	<clipPath id="SVGID_82_">
		<use xlink:href="#SVGID_81_"  overflow="visible"/>
	</clipPath>
	<g clip-path="url(#SVGID_82_)">
		<defs>
			<rect id="SVGID_83_" x="-1243.231" y="-2425.171" width="5223.97" height="3582.15"/>
		</defs>
		<clipPath id="SVGID_84_">
			<use xlink:href="#SVGID_83_"  overflow="visible"/>
		</clipPath>
		<rect x="220.269" y="45.024" clip-path="url(#SVGID_84_)" fill="#2E2E31" width="121.149" height="84.791"/>
	</g>
</g>
<g>
	<defs>
		<line id="SVGID_85_" x1="253.58" y1="129.195" x2="309.544" y2="129.195"/>
	</defs>
	<clipPath id="SVGID_86_">
		<use xlink:href="#SVGID_85_"  overflow="visible"/>
	</clipPath>
	<g clip-path="url(#SVGID_86_)">
		<defs>
			<rect id="SVGID_87_" x="-1243.231" y="-2425.171" width="5223.97" height="3582.15"/>
		</defs>
		<clipPath id="SVGID_88_">
			<use xlink:href="#SVGID_87_"  overflow="visible"/>
		</clipPath>
		<rect x="234.924" y="110.539" clip-path="url(#SVGID_88_)" fill="#FFFFFF" width="93.278" height="37.313"/>
	</g>
</g>
<g>
	<defs>
		<path id="SVGID_89_" d="M309.541,138.702H253.58c-5.26,0-9.531-4.26-9.531-9.507s4.271-9.507,9.531-9.507h55.961
			c5.259,0,9.529,4.26,9.529,9.507S314.8,138.702,309.541,138.702"/>
	</defs>
	<clipPath id="SVGID_90_">
		<use xlink:href="#SVGID_89_"  overflow="visible"/>
	</clipPath>
	<g clip-path="url(#SVGID_90_)">
		<defs>
			<rect id="SVGID_91_" x="-1243.231" y="-2425.171" width="5223.97" height="3582.15"/>
		</defs>
		<clipPath id="SVGID_92_">
			<use xlink:href="#SVGID_91_"  overflow="visible"/>
		</clipPath>
		<rect x="225.392" y="101.031" clip-path="url(#SVGID_92_)" fill="#2E2E31" width="112.335" height="56.328"/>
	</g>
</g>
<g>
	<defs>
		<path id="SVGID_93_" d="M307.556,370.064c0,14.146-11.509,25.624-25.687,25.624c-14.182,0-25.679-11.479-25.679-25.624
			c0-14.149,11.497-25.621,25.679-25.621C296.047,344.443,307.556,355.915,307.556,370.064"/>
	</defs>
	<clipPath id="SVGID_94_">
		<use xlink:href="#SVGID_93_"  overflow="visible"/>
	</clipPath>
	<g clip-path="url(#SVGID_94_)">
		<defs>
			<rect id="SVGID_95_" x="-1243.231" y="-2425.171" width="5223.97" height="3582.15"/>
		</defs>
		<clipPath id="SVGID_96_">
			<use xlink:href="#SVGID_95_"  overflow="visible"/>
		</clipPath>
		<rect x="237.533" y="325.786" clip-path="url(#SVGID_96_)" fill="#7F562C" width="88.68" height="88.56"/>
	</g>
</g>
<g>
	<defs>
		<path id="SVGID_97_" d="M281.869,405.196c-19.416,0-35.212-15.758-35.212-35.132c0-19.371,15.796-35.129,35.212-35.129
			c19.421,0,35.219,15.758,35.219,35.129C317.088,389.438,301.29,405.196,281.869,405.196 M281.869,353.95
			c-8.903,0-16.151,7.234-16.151,16.114c0,8.883,7.248,16.117,16.151,16.117c8.909,0,16.156-7.234,16.156-16.117
			C298.025,361.185,290.778,353.95,281.869,353.95"/>
	</defs>
	<clipPath id="SVGID_98_">
		<use xlink:href="#SVGID_97_"  overflow="visible"/>
	</clipPath>
	<g clip-path="url(#SVGID_98_)">
		<defs>
			<rect id="SVGID_99_" x="-1243.231" y="-2425.171" width="5223.97" height="3582.15"/>
		</defs>
		<clipPath id="SVGID_100_">
			<use xlink:href="#SVGID_99_"  overflow="visible"/>
		</clipPath>
		<rect x="228" y="316.28" clip-path="url(#SVGID_100_)" fill="#2E2E31" width="107.744" height="107.571"/>
	</g>
</g>
<g>
	<defs>
		<path id="SVGID_101_" d="M276.319,463.004c-32.137,0-53.312-7.084-61.229-10.287c-3.633-1.47-5.999-5.011-5.955-8.917
			c0.566-49.369,0.449-85.434-0.36-110.267c-0.316-9.47,0.211-18.591,1.614-27.869c0.464-3.061,2.394-5.713,5.172-7.094
			c10.859-5.393,38.954-17.943,65.256-17.943c26.888,0,55.693,12.928,66.833,18.488c2.788,1.396,4.711,4.049,5.17,7.125
			c1.331,9.08,1.837,18.01,1.532,27.293c-0.806,24.638-0.935,60.548-0.38,109.767c0.052,4.282-2.776,8.068-6.91,9.245
			C319.737,460.354,295.975,463.004,276.319,463.004 M228.273,437.266c16.049,5.16,52.864,12.765,106.554-1.104
			c-0.456-45.749-0.3-79.577,0.477-103.252c0.208-6.446-0.025-12.695-0.711-18.955c-11.012-5.099-33.718-14.313-53.776-14.313
			c-19.347,0-40.657,8.432-52.232,13.784c-0.73,6.447-0.978,12.864-0.762,19.48C228.606,356.87,228.751,391.058,228.273,437.266"/>
	</defs>
	<clipPath id="SVGID_102_">
		<use xlink:href="#SVGID_101_"  overflow="visible"/>
	</clipPath>
	<g clip-path="url(#SVGID_102_)">
		<defs>
			<rect id="SVGID_103_" x="-1243.231" y="-2425.171" width="5223.97" height="3582.15"/>
		</defs>
		<clipPath id="SVGID_104_">
			<use xlink:href="#SVGID_103_"  overflow="visible"/>
		</clipPath>
		<rect x="190.03" y="261.97" clip-path="url(#SVGID_104_)" fill="#2E2E31" width="183.065" height="219.691"/>
	</g>
</g>
<g>
	<defs>
		<path id="SVGID_105_" d="M471.519,333.22c0.997-30.567-6.997-51.267-13.548-62.942c-5.172-9.218-7.966-19.535-8.805-30.069
			c-3.436-43.257-16.652-138.554-16.652-138.554h-24.258h-24.258c0,0-13.221,95.297-16.66,138.554
			c-0.838,10.534-3.633,20.851-8.805,30.069c-6.551,11.676-14.542,32.375-13.547,62.942c1.271,38.882,0.554,98.311,0.142,129.703
			c-0.108,8.651,6.365,15.697,14.396,15.697h48.731h48.724c8.031,0,14.514-7.046,14.403-15.697
			C470.964,431.53,470.254,372.102,471.519,333.22"/>
	</defs>
	<clipPath id="SVGID_106_">
		<use xlink:href="#SVGID_105_"  overflow="visible"/>
	</clipPath>
	<g clip-path="url(#SVGID_106_)">
		<defs>
			<rect id="SVGID_107_" x="-1243.231" y="-2425.171" width="5223.97" height="3582.15"/>
		</defs>
		<clipPath id="SVGID_108_">
			<use xlink:href="#SVGID_107_"  overflow="visible"/>
		</clipPath>
		
			<rect x="326.248" y="82.997" clip-path="url(#SVGID_108_)" fill="#FFC100" stroke="#000000" stroke-miterlimit="10" width="164.012" height="414.281"/>
	</g>
</g>
<g>
	<defs>
		<path id="SVGID_109_" d="M372.275,192.702h71.953c-5.09-43.257-11.715-91.047-11.715-91.047h-24.258h-24.258
			C383.998,101.654,377.365,149.445,372.275,192.702"/>
	</defs>
	<clipPath id="SVGID_110_">
		<use xlink:href="#SVGID_109_"  overflow="visible"/>
	</clipPath>
	<g clip-path="url(#SVGID_110_)">
		<defs>
			<rect id="SVGID_111_" x="-1243.231" y="-2425.171" width="5223.97" height="3582.15"/>
		</defs>
		<clipPath id="SVGID_112_">
			<use xlink:href="#SVGID_111_"  overflow="visible"/>
		</clipPath>
		<rect x="353.618" y="82.997" clip-path="url(#SVGID_112_)" fill="#FFFFFF" width="109.268" height="128.362"/>
	</g>
</g>
<g>
	<defs>
		<path id="SVGID_113_" d="M471.14,443.407c-0.368-32.72-0.663-78.339,0.379-110.188c0.306-9.521-0.316-17.968-1.436-25.599
			c-9.241-4.609-37.3-17.487-62.575-17.487c-24.363,0-50.96,11.96-61.007,16.948c-1.174,7.768-1.828,16.396-1.509,26.138
			c1.047,32.016,0.74,77.93,0.372,110.686C356.908,448.577,401.843,463.199,471.14,443.407"/>
	</defs>
	<clipPath id="SVGID_114_">
		<use xlink:href="#SVGID_113_"  overflow="visible"/>
	</clipPath>
	<g clip-path="url(#SVGID_114_)">
		<defs>
			<rect id="SVGID_115_" x="-1243.231" y="-2425.171" width="5223.97" height="3582.15"/>
		</defs>
		<clipPath id="SVGID_116_">
			<use xlink:href="#SVGID_115_"  overflow="visible"/>
		</clipPath>
		<rect x="326.257" y="271.476" clip-path="url(#SVGID_116_)" fill="#9ECC59" width="163.999" height="200.677"/>
	</g>
</g>
<g>
	<defs>
		<path id="SVGID_117_" d="M471.519,333.22c0.997-30.567-6.997-51.267-13.548-62.942c-5.172-9.218-7.966-19.535-8.805-30.069
			c-3.436-43.257-16.652-138.554-16.652-138.554h-24.258h-4.273c0,0,13.213,95.297,16.651,138.554
			c0.839,10.534,3.633,20.851,8.805,30.069c6.551,11.676,14.542,32.375,13.548,62.942c-1.272,38.882-0.555,98.311-0.149,129.703
			c0.124,8.651-6.367,15.697-14.39,15.697h28.532c8.031,0,14.514-7.046,14.403-15.697
			C470.964,431.53,470.254,372.102,471.519,333.22"/>
	</defs>
	<clipPath id="SVGID_118_">
		<use xlink:href="#SVGID_117_"  overflow="visible"/>
	</clipPath>
	<g clip-path="url(#SVGID_118_)">
		<defs>
			<rect id="SVGID_119_" x="-1243.231" y="-2425.171" width="5223.97" height="3582.15"/>
		</defs>
		<clipPath id="SVGID_120_">
			<use xlink:href="#SVGID_119_"  overflow="visible"/>
		</clipPath>
		<rect x="385.324" y="82.997" opacity="0.3" clip-path="url(#SVGID_120_)" fill="#88451F" width="104.936" height="414.281"/>
	</g>
</g>
<g>
	<defs>
		<path id="SVGID_121_" d="M456.982,488.135h-97.458c-6.253,0-12.159-2.496-16.638-7.028c-4.715-4.767-7.372-11.435-7.288-18.308
			c0.35-26.754,1.17-89.393-0.134-129.27c-1.062-32.493,7.434-54.855,14.753-67.893c4.282-7.625,6.845-16.436,7.616-26.18
			c3.419-43.042,16.18-135.208,16.726-139.111c0.652-4.697,4.676-8.203,9.431-8.203h48.523c4.759,0,8.788,3.506,9.441,8.21
			c0.539,3.895,13.293,96.062,16.71,139.104c0.777,9.744,3.342,18.555,7.625,26.171c7.312,13.045,15.814,35.408,14.753,67.901
			c-1.165,35.687-0.688,87.826-0.134,129.27c0.087,6.873-2.565,13.541-7.281,18.308
			C469.143,485.639,463.229,488.135,456.982,488.135z M392.312,111.158c-3.265,24.027-12.684,94.694-15.478,129.8
			c-0.991,12.503-4.355,23.93-9.989,33.97c-6.132,10.927-13.253,29.858-12.335,57.981c1.322,40.313,0.495,103.252,0.15,130.137
			c-0.026,1.818,0.626,3.531,1.781,4.705c0.626,0.619,1.654,1.369,3.082,1.369h97.458c1.422,0,2.46-0.75,3.079-1.369
			c1.162-1.181,1.812-2.89,1.786-4.705c-0.554-41.643-1.027-94.058,0.146-130.137c0.917-28.123-6.207-47.055-12.34-57.99
			c-5.627-10.032-8.993-21.458-9.984-33.961c-2.791-35.112-12.214-105.773-15.472-129.8H392.312z"/>
	</defs>
	<clipPath id="SVGID_122_">
		<use xlink:href="#SVGID_121_"  overflow="visible"/>
	</clipPath>
	<g clip-path="url(#SVGID_122_)">
		<defs>
			<rect id="SVGID_123_" x="-1243.231" y="-2425.171" width="5223.97" height="3582.15"/>
		</defs>
		<clipPath id="SVGID_124_">
			<use xlink:href="#SVGID_123_"  overflow="visible"/>
		</clipPath>
		<rect x="316.717" y="73.486" clip-path="url(#SVGID_124_)" fill="#2E2E31" width="183.07" height="433.307"/>
	</g>
</g>
<g>
	<defs>
		<path id="SVGID_125_" d="M439.929,101.65h-64.771v-8.949c0-10.78,8.753-19.514,19.562-19.514h25.648
			c10.803,0,19.562,8.734,19.562,19.514V101.65z"/>
	</defs>
	<clipPath id="SVGID_126_">
		<use xlink:href="#SVGID_125_"  overflow="visible"/>
	</clipPath>
	<g clip-path="url(#SVGID_126_)">
		<defs>
			<rect id="SVGID_127_" x="-1243.231" y="-2425.171" width="5223.97" height="3582.15"/>
		</defs>
		<clipPath id="SVGID_128_">
			<use xlink:href="#SVGID_127_"  overflow="visible"/>
		</clipPath>
		<rect x="356.501" y="54.531" clip-path="url(#SVGID_128_)" fill="#7F562C" width="102.086" height="65.776"/>
	</g>
</g>
<g>
	<defs>
		<path id="SVGID_129_" d="M439.926,111.158h-64.772c-5.262,0-9.527-4.257-9.527-9.508v-8.949c0-16.008,13.049-29.021,29.093-29.021
			h25.646c16.049,0,29.093,13.013,29.093,29.021v8.949C449.457,106.901,445.188,111.158,439.926,111.158 M384.698,92.143h45.688
			c-0.288-5.261-4.676-9.448-10.021-9.448h-25.646C389.373,82.695,384.989,86.882,384.698,92.143"/>
	</defs>
	<clipPath id="SVGID_130_">
		<use xlink:href="#SVGID_129_"  overflow="visible"/>
	</clipPath>
	<g clip-path="url(#SVGID_130_)">
		<defs>
			<rect id="SVGID_131_" x="-1243.231" y="-2425.171" width="5223.97" height="3582.15"/>
		</defs>
		<clipPath id="SVGID_132_">
			<use xlink:href="#SVGID_131_"  overflow="visible"/>
		</clipPath>
		<rect x="346.968" y="45.024" clip-path="url(#SVGID_132_)" fill="#2E2E31" width="121.146" height="84.791"/>
	</g>
</g>
<g>
	<defs>
		<line id="SVGID_133_" x1="380.273" y1="129.195" x2="436.234" y2="129.195"/>
	</defs>
	<clipPath id="SVGID_134_">
		<use xlink:href="#SVGID_133_"  overflow="visible"/>
	</clipPath>
	<g clip-path="url(#SVGID_134_)">
		<defs>
			<rect id="SVGID_135_" x="-1243.231" y="-2425.171" width="5223.97" height="3582.15"/>
		</defs>
		<clipPath id="SVGID_136_">
			<use xlink:href="#SVGID_135_"  overflow="visible"/>
		</clipPath>
		<rect x="361.617" y="110.539" clip-path="url(#SVGID_136_)" fill="#FFFFFF" width="93.274" height="37.313"/>
	</g>
</g>
<g>
	<defs>
		<path id="SVGID_137_" d="M436.23,138.702H380.27c-5.262,0-9.527-4.26-9.527-9.507s4.266-9.507,9.527-9.507h55.961
			c5.263,0,9.531,4.26,9.531,9.507S441.493,138.702,436.23,138.702"/>
	</defs>
	<clipPath id="SVGID_138_">
		<use xlink:href="#SVGID_137_"  overflow="visible"/>
	</clipPath>
	<g clip-path="url(#SVGID_138_)">
		<defs>
			<rect id="SVGID_139_" x="-1243.231" y="-2425.171" width="5223.97" height="3582.15"/>
		</defs>
		<clipPath id="SVGID_140_">
			<use xlink:href="#SVGID_139_"  overflow="visible"/>
		</clipPath>
		<rect x="352.085" y="101.031" clip-path="url(#SVGID_140_)" fill="#2E2E31" width="112.335" height="56.328"/>
	</g>
</g>
<g>
	<defs>
		<path id="SVGID_141_" d="M434.248,370.064c0,14.146-11.5,25.624-25.682,25.624c-14.183,0-25.688-11.479-25.688-25.624
			c0-14.149,11.505-25.621,25.688-25.621C422.748,344.443,434.248,355.915,434.248,370.064"/>
	</defs>
	<clipPath id="SVGID_142_">
		<use xlink:href="#SVGID_141_"  overflow="visible"/>
	</clipPath>
	<g clip-path="url(#SVGID_142_)">
		<defs>
			<rect id="SVGID_143_" x="-1243.231" y="-2425.171" width="5223.97" height="3582.15"/>
		</defs>
		<clipPath id="SVGID_144_">
			<use xlink:href="#SVGID_143_"  overflow="visible"/>
		</clipPath>
		<rect x="364.223" y="325.786" clip-path="url(#SVGID_144_)" fill="#7F562C" width="88.682" height="88.56"/>
	</g>
</g>
<g>
	<defs>
		<path id="SVGID_145_" d="M408.566,405.196c-19.423,0-35.216-15.758-35.216-35.132c0-19.371,15.793-35.129,35.216-35.129
			c19.414,0,35.21,15.758,35.21,35.129C443.776,389.438,427.98,405.196,408.566,405.196 M408.566,353.95
			c-8.907,0-16.158,7.234-16.158,16.114c0,8.883,7.251,16.117,16.158,16.117c8.901,0,16.149-7.234,16.149-16.117
			C424.716,361.185,417.468,353.95,408.566,353.95"/>
	</defs>
	<clipPath id="SVGID_146_">
		<use xlink:href="#SVGID_145_"  overflow="visible"/>
	</clipPath>
	<g clip-path="url(#SVGID_146_)">
		<defs>
			<rect id="SVGID_147_" x="-1243.231" y="-2425.171" width="5223.97" height="3582.15"/>
		</defs>
		<clipPath id="SVGID_148_">
			<use xlink:href="#SVGID_147_"  overflow="visible"/>
		</clipPath>
		<rect x="354.693" y="316.28" clip-path="url(#SVGID_148_)" fill="#2E2E31" width="107.74" height="107.571"/>
	</g>
</g>
<g>
	<defs>
		<path id="SVGID_149_" d="M403.016,463.004c-32.149,0-53.318-7.084-61.229-10.287c-3.633-1.47-5.998-5.011-5.95-8.917
			c0.55-49.599,0.438-85.663-0.371-110.267c-0.31-9.506,0.218-18.625,1.613-27.869c0.468-3.061,2.397-5.713,5.176-7.094
			c10.862-5.393,38.967-17.943,65.263-17.943c26.862,0,55.686,12.928,66.829,18.488c2.791,1.396,4.715,4.057,5.176,7.133
			c1.325,9.094,1.828,18.02,1.521,27.285c-0.801,24.647-0.93,60.556-0.375,109.767c0.052,4.282-2.776,8.068-6.904,9.245
			C446.437,460.354,422.668,463.004,403.016,463.004 M354.971,437.266c16.055,5.163,52.887,12.772,106.556-1.104
			c-0.459-45.736-0.298-79.565,0.468-103.252c0.211-6.431-0.022-12.681-0.712-18.955c-11.015-5.099-33.729-14.313-53.766-14.313
			c-19.343,0-40.66,8.432-52.241,13.784c-0.725,6.429-0.979,12.841-0.76,19.484C355.294,356.662,355.439,390.842,354.971,437.266"/>
	</defs>
	<clipPath id="SVGID_150_">
		<use xlink:href="#SVGID_149_"  overflow="visible"/>
	</clipPath>
	<g clip-path="url(#SVGID_150_)">
		<defs>
			<rect id="SVGID_151_" x="-1243.231" y="-2425.171" width="5223.97" height="3582.15"/>
		</defs>
		<clipPath id="SVGID_152_">
			<use xlink:href="#SVGID_151_"  overflow="visible"/>
		</clipPath>
		<rect x="316.724" y="261.97" clip-path="url(#SVGID_152_)" fill="#2E2E31" width="183.063" height="219.691"/>
	</g>
</g>
<g>
	<defs>
		<rect id="SVGID_153_" x="61.101" y="331.519" width="445.834" height="91.908"/>
	</defs>
	<clipPath id="SVGID_154_">
		<use xlink:href="#SVGID_153_"  overflow="visible"/>
	</clipPath>
	<g clip-path="url(#SVGID_154_)">
		<defs>
			<rect id="SVGID_155_" x="-1243.231" y="-2425.171" width="5223.97" height="3582.15"/>
		</defs>
		<clipPath id="SVGID_156_">
			<use xlink:href="#SVGID_155_"  overflow="visible"/>
		</clipPath>
		<rect x="42.443" y="312.861" clip-path="url(#SVGID_156_)" fill="#B3804C" width="483.148" height="129.221"/>
	</g>
</g>
<g>
	<defs>
		<rect id="SVGID_157_" x="61.101" y="331.519" width="445.834" height="183.811"/>
	</defs>
	<clipPath id="SVGID_158_">
		<use xlink:href="#SVGID_157_"  overflow="visible"/>
	</clipPath>
	<g clip-path="url(#SVGID_158_)">
		<defs>
			<rect id="SVGID_159_" x="-1243.231" y="-2425.171" width="5223.97" height="3582.15"/>
		</defs>
		<clipPath id="SVGID_160_">
			<use xlink:href="#SVGID_159_"  overflow="visible"/>
		</clipPath>
		<rect x="42.443" y="312.861" clip-path="url(#SVGID_160_)" fill="#B3804C" width="483.148" height="221.126"/>
	</g>
</g>
<g>
	<defs>
		<path id="SVGID_161_" d="M506.935,515.329V331.519h-62.579c-0.455,0.579-0.917,1.122-1.369,1.704
			c0,0-14.525,176.329-347.116,182.106H506.935z"/>
	</defs>
	<clipPath id="SVGID_162_">
		<use xlink:href="#SVGID_161_"  overflow="visible"/>
	</clipPath>
	<g clip-path="url(#SVGID_162_)">
		<defs>
			<rect id="SVGID_163_" x="-1243.231" y="-2425.171" width="5223.97" height="3582.15"/>
		</defs>
		<clipPath id="SVGID_164_">
			<use xlink:href="#SVGID_163_"  overflow="visible"/>
		</clipPath>
		<rect x="77.214" y="312.861" opacity="0.3" clip-path="url(#SVGID_164_)" fill="#1B1A1A" width="448.377" height="221.126"/>
	</g>
</g>
<g>
	<defs>
		<path id="SVGID_165_" d="M506.935,524.837H61.101c-5.262,0-9.533-4.259-9.533-9.508v-91.902c0-5.252,4.271-9.508,9.533-9.508
			h445.834c5.257,0,9.528,4.256,9.528,9.508v91.902C516.463,520.578,512.191,524.837,506.935,524.837z M70.629,505.823h426.776
			v-72.891H70.629V505.823z"/>
	</defs>
	<clipPath id="SVGID_166_">
		<use xlink:href="#SVGID_165_"  overflow="visible"/>
	</clipPath>
	<g clip-path="url(#SVGID_166_)">
		<defs>
			<rect id="SVGID_167_" x="-1243.231" y="-2425.171" width="5223.97" height="3582.15"/>
		</defs>
		<clipPath id="SVGID_168_">
			<use xlink:href="#SVGID_167_"  overflow="visible"/>
		</clipPath>
		<rect x="32.911" y="395.263" clip-path="url(#SVGID_168_)" fill="#2E2E31" width="502.209" height="148.232"/>
	</g>
</g>
<g>
	<defs>
		<path id="SVGID_169_" d="M506.935,432.933H61.101c-5.262,0-9.533-4.259-9.533-9.506v-91.908c0-5.247,4.271-9.508,9.533-9.508
			h445.834c5.257,0,9.528,4.261,9.528,9.508v91.908C516.463,428.674,512.191,432.933,506.935,432.933z M70.629,413.919h426.776
			v-72.894H70.629V413.919z"/>
	</defs>
	<clipPath id="SVGID_170_">
		<use xlink:href="#SVGID_169_"  overflow="visible"/>
	</clipPath>
	<g clip-path="url(#SVGID_170_)">
		<defs>
			<rect id="SVGID_171_" x="-1243.231" y="-2425.171" width="5223.97" height="3582.15"/>
		</defs>
		<clipPath id="SVGID_172_">
			<use xlink:href="#SVGID_171_"  overflow="visible"/>
		</clipPath>
		<rect x="32.911" y="303.355" clip-path="url(#SVGID_172_)" fill="#2E2E31" width="502.209" height="148.235"/>
	</g>
</g>
<g>
	<defs>
		<line id="SVGID_173_" x1="61.101" y1="377.473" x2="84.651" y2="377.473"/>
	</defs>
	<clipPath id="SVGID_174_">
		<use xlink:href="#SVGID_173_"  overflow="visible"/>
	</clipPath>
	<g clip-path="url(#SVGID_174_)">
		<defs>
			<rect id="SVGID_175_" x="-1243.231" y="-2425.171" width="5223.97" height="3582.15"/>
		</defs>
		<clipPath id="SVGID_176_">
			<use xlink:href="#SVGID_175_"  overflow="visible"/>
		</clipPath>
		<rect x="42.443" y="358.815" clip-path="url(#SVGID_176_)" fill="#FFFFFF" width="60.865" height="37.314"/>
	</g>
</g>
<g>
	<defs>
		<path id="SVGID_177_" d="M84.651,386.979h-23.55c-5.262,0-9.533-4.259-9.533-9.506s4.271-9.508,9.533-9.508h23.55
			c5.258,0,9.529,4.261,9.529,9.508S89.909,386.979,84.651,386.979"/>
	</defs>
	<clipPath id="SVGID_178_">
		<use xlink:href="#SVGID_177_"  overflow="visible"/>
	</clipPath>
	<g clip-path="url(#SVGID_178_)">
		<defs>
			<rect id="SVGID_179_" x="-1243.231" y="-2425.171" width="5223.97" height="3582.15"/>
		</defs>
		<clipPath id="SVGID_180_">
			<use xlink:href="#SVGID_179_"  overflow="visible"/>
		</clipPath>
		<rect x="32.911" y="349.309" clip-path="url(#SVGID_180_)" fill="#2E2E31" width="79.926" height="56.328"/>
	</g>
</g>
<g>
	<defs>
		<line id="SVGID_181_" x1="61.101" y1="469.377" x2="84.651" y2="469.377"/>
	</defs>
	<clipPath id="SVGID_182_">
		<use xlink:href="#SVGID_181_"  overflow="visible"/>
	</clipPath>
	<g clip-path="url(#SVGID_182_)">
		<defs>
			<rect id="SVGID_183_" x="-1243.231" y="-2425.171" width="5223.97" height="3582.15"/>
		</defs>
		<clipPath id="SVGID_184_">
			<use xlink:href="#SVGID_183_"  overflow="visible"/>
		</clipPath>
		<rect x="42.443" y="450.72" clip-path="url(#SVGID_184_)" fill="#FFFFFF" width="60.865" height="37.313"/>
	</g>
</g>
<g>
	<defs>
		<path id="SVGID_185_" d="M84.651,478.884h-23.55c-5.262,0-9.533-4.256-9.533-9.507c0-5.248,4.271-9.508,9.533-9.508h23.55
			c5.258,0,9.529,4.26,9.529,9.508C94.18,474.628,89.909,478.884,84.651,478.884"/>
	</defs>
	<clipPath id="SVGID_186_">
		<use xlink:href="#SVGID_185_"  overflow="visible"/>
	</clipPath>
	<g clip-path="url(#SVGID_186_)">
		<defs>
			<rect id="SVGID_187_" x="-1243.231" y="-2425.171" width="5223.97" height="3582.15"/>
		</defs>
		<clipPath id="SVGID_188_">
			<use xlink:href="#SVGID_187_"  overflow="visible"/>
		</clipPath>
		<rect x="32.911" y="441.212" clip-path="url(#SVGID_188_)" fill="#2E2E31" width="79.926" height="56.329"/>
	</g>
</g>
<g>
	<defs>
		<line id="SVGID_189_" x1="506.935" y1="377.473" x2="483.384" y2="377.473"/>
	</defs>
	<clipPath id="SVGID_190_">
		<use xlink:href="#SVGID_189_"  overflow="visible"/>
	</clipPath>
	<g clip-path="url(#SVGID_190_)">
		<defs>
			<rect id="SVGID_191_" x="-1243.231" y="-2425.171" width="5223.97" height="3582.15"/>
		</defs>
		<clipPath id="SVGID_192_">
			<use xlink:href="#SVGID_191_"  overflow="visible"/>
		</clipPath>
		<rect x="464.726" y="358.815" clip-path="url(#SVGID_192_)" fill="#FFFFFF" width="60.865" height="37.314"/>
	</g>
</g>
<g>
	<defs>
		<path id="SVGID_193_" d="M506.935,386.979h-23.551c-5.263,0-9.533-4.259-9.533-9.506s4.271-9.508,9.533-9.508h23.551
			c5.257,0,9.528,4.261,9.528,9.508S512.191,386.979,506.935,386.979"/>
	</defs>
	<clipPath id="SVGID_194_">
		<use xlink:href="#SVGID_193_"  overflow="visible"/>
	</clipPath>
	<g clip-path="url(#SVGID_194_)">
		<defs>
			<rect id="SVGID_195_" x="-1243.231" y="-2425.171" width="5223.97" height="3582.15"/>
		</defs>
		<clipPath id="SVGID_196_">
			<use xlink:href="#SVGID_195_"  overflow="visible"/>
		</clipPath>
		<rect x="455.193" y="349.309" clip-path="url(#SVGID_196_)" fill="#2E2E31" width="79.927" height="56.328"/>
	</g>
</g>
<g>
	<defs>
		<line id="SVGID_197_" x1="506.935" y1="469.377" x2="483.384" y2="469.377"/>
	</defs>
	<clipPath id="SVGID_198_">
		<use xlink:href="#SVGID_197_"  overflow="visible"/>
	</clipPath>
	<g clip-path="url(#SVGID_198_)">
		<defs>
			<rect id="SVGID_199_" x="-1243.231" y="-2425.171" width="5223.97" height="3582.15"/>
		</defs>
		<clipPath id="SVGID_200_">
			<use xlink:href="#SVGID_199_"  overflow="visible"/>
		</clipPath>
		<rect x="464.726" y="450.72" clip-path="url(#SVGID_200_)" fill="#FFFFFF" width="60.865" height="37.313"/>
	</g>
</g>
<g>
	<defs>
		<path id="SVGID_201_" d="M506.935,478.884h-23.551c-5.263,0-9.533-4.256-9.533-9.507c0-5.248,4.271-9.508,9.533-9.508h23.551
			c5.257,0,9.528,4.26,9.528,9.508C516.463,474.628,512.191,478.884,506.935,478.884"/>
	</defs>
	<clipPath id="SVGID_202_">
		<use xlink:href="#SVGID_201_"  overflow="visible"/>
	</clipPath>
	<g clip-path="url(#SVGID_202_)">
		<defs>
			<rect id="SVGID_203_" x="-1243.231" y="-2425.171" width="5223.97" height="3582.15"/>
		</defs>
		<clipPath id="SVGID_204_">
			<use xlink:href="#SVGID_203_"  overflow="visible"/>
		</clipPath>
		<rect x="455.193" y="441.212" clip-path="url(#SVGID_204_)" fill="#2E2E31" width="79.927" height="56.329"/>
	</g>
</g>
</svg>
