<?xml version="1.0" encoding="utf-8"?>
<!-- Generator: Adobe Illustrator 16.0.0, SVG Export Plug-In . SVG Version: 6.00 Build 0)  -->
<!DOCTYPE svg PUBLIC "-//W3C//DTD SVG 1.1//EN" "http://www.w3.org/Graphics/SVG/1.1/DTD/svg11.dtd">
<svg version="1.1" id="Layer_1" xmlns="http://www.w3.org/2000/svg" xmlns:xlink="http://www.w3.org/1999/xlink" x="0px" y="0px"
	 width="560px" height="560px" viewBox="0 0 560 560" enable-background="new 0 0 560 560" xml:space="preserve">
<g>
	<defs>
		<polygon id="SVGID_1_" points="280.577,511.053 370.534,511.053 412.38,136.484 280.577,136.484 148.777,136.484 190.624,511.053 
					"/>
	</defs>
	<clipPath id="SVGID_2_">
		<use xlink:href="#SVGID_1_"  overflow="visible"/>
	</clipPath>
	<g clip-path="url(#SVGID_2_)">
		<defs>
			<rect id="SVGID_3_" x="-2153.012" y="-1859.459" width="5608.271" height="3845.672"/>
		</defs>
		<clipPath id="SVGID_4_">
			<use xlink:href="#SVGID_3_"  overflow="visible"/>
		</clipPath>
		
			<rect x="128.748" y="116.455" clip-path="url(#SVGID_4_)" fill="#FFC100" stroke="#000000" stroke-miterlimit="10" width="303.663" height="414.627"/>
	</g>
</g>
<g>
	<defs>
		<polygon id="SVGID_5_" points="280.577,177.831 407.765,177.831 412.38,136.484 280.577,136.484 148.777,136.484 153.393,177.831 
					"/>
	</defs>
	<clipPath id="SVGID_6_">
		<use xlink:href="#SVGID_5_"  overflow="visible"/>
	</clipPath>
	<g clip-path="url(#SVGID_6_)">
		<defs>
			<rect id="SVGID_7_" x="-2153.012" y="-1859.459" width="5608.271" height="3845.672"/>
		</defs>
		<clipPath id="SVGID_8_">
			<use xlink:href="#SVGID_7_"  overflow="visible"/>
		</clipPath>
		<rect x="128.748" y="116.455" clip-path="url(#SVGID_8_)" fill="#FFFFFF" width="303.663" height="81.405"/>
	</g>
</g>
<g>
	<defs>
		<polygon id="SVGID_9_" points="186.528,474.369 190.628,511.049 280.581,511.049 370.53,511.049 374.63,474.369 280.581,474.369 
					"/>
	</defs>
	<clipPath id="SVGID_10_">
		<use xlink:href="#SVGID_9_"  overflow="visible"/>
	</clipPath>
	<g clip-path="url(#SVGID_10_)">
		<defs>
			<rect id="SVGID_11_" x="-2153.012" y="-1859.459" width="5608.271" height="3845.672"/>
		</defs>
		<clipPath id="SVGID_12_">
			<use xlink:href="#SVGID_11_"  overflow="visible"/>
		</clipPath>
		<rect x="166.499" y="454.344" clip-path="url(#SVGID_12_)" fill="#FFFFFF" width="228.157" height="76.734"/>
	</g>
</g>
<g>
	<defs>
		<polygon id="SVGID_13_" points="370.761,136.484 328.91,511.053 370.534,511.053 412.38,136.484 		"/>
	</defs>
	<clipPath id="SVGID_14_">
		<use xlink:href="#SVGID_13_"  overflow="visible"/>
	</clipPath>
	<g clip-path="url(#SVGID_14_)">
		<defs>
			<rect id="SVGID_15_" x="-2153.012" y="-1859.459" width="5608.271" height="3845.672"/>
		</defs>
		<clipPath id="SVGID_16_">
			<use xlink:href="#SVGID_15_"  overflow="visible"/>
		</clipPath>
		<rect x="308.881" y="116.455" opacity="0.3" clip-path="url(#SVGID_16_)" fill="#88451F" width="123.529" height="414.627"/>
	</g>
</g>
<g>
	<defs>
		<path id="SVGID_17_" d="M370.534,521.389H190.624c-5.296,0-9.752-3.963-10.343-9.201l-41.847-374.557
			c-0.329-2.93,0.614-5.849,2.594-8.036c1.972-2.19,4.784-3.446,7.75-3.446H412.38c2.966,0,5.783,1.256,7.754,3.446
			c1.976,2.187,2.919,5.105,2.591,8.036l-41.851,374.557C380.286,517.426,375.83,521.389,370.534,521.389z M199.943,500.717h161.273
			l39.538-353.896H160.4L199.943,500.717z"/>
	</defs>
	<clipPath id="SVGID_18_">
		<use xlink:href="#SVGID_17_"  overflow="visible"/>
	</clipPath>
	<g clip-path="url(#SVGID_18_)">
		<defs>
			<rect id="SVGID_19_" x="-2153.012" y="-1859.459" width="5608.271" height="3845.672"/>
		</defs>
		<clipPath id="SVGID_20_">
			<use xlink:href="#SVGID_19_"  overflow="visible"/>
		</clipPath>
		<rect x="118.338" y="106.119" clip-path="url(#SVGID_20_)" fill="#2E2E31" width="324.482" height="435.299"/>
	</g>
</g>
<g>
	<defs>
		<path id="SVGID_21_" d="M370.396,91.281c-1.882,0-3.701,0.27-5.504,0.551c0-0.188,0.027-0.368,0.027-0.551
			c0-21.035-17.166-38.083-38.338-38.083c-1.764,0-3.478,0.158-5.175,0.385c-7.508-14.864-22.944-25.09-40.826-25.09
			c-17.875,0-33.319,10.226-40.818,25.09c-1.702-0.227-3.42-0.385-5.18-0.385c-21.176,0-38.334,17.048-38.334,38.083
			c0,0.184,0.012,0.364,0.02,0.551c-1.804-0.281-3.615-0.551-5.508-0.551c-19.357,0-35.048,15.589-35.048,34.821
			c0,3.63,0.626,7.104,1.675,10.39h37.637v55.66c0,10.782,8.798,19.521,19.654,19.521s19.658-8.739,19.658-19.521v-55.66h169.406
			c1.04-3.293,1.705-6.752,1.705-10.39C405.448,106.871,389.754,91.281,370.396,91.281"/>
	</defs>
	<clipPath id="SVGID_22_">
		<use xlink:href="#SVGID_21_"  overflow="visible"/>
	</clipPath>
	<g clip-path="url(#SVGID_22_)">
		<defs>
			<rect id="SVGID_23_" x="-2153.012" y="-1859.459" width="5608.271" height="3845.672"/>
		</defs>
		<clipPath id="SVGID_24_">
			<use xlink:href="#SVGID_23_"  overflow="visible"/>
		</clipPath>
		<rect x="135.684" y="8.464" clip-path="url(#SVGID_24_)" fill="#FFFFFF" width="289.795" height="223.239"/>
	</g>
</g>
<g>
	<defs>
		<path id="SVGID_25_" d="M214.675,222.012c-16.579,0-30.056-13.395-30.056-29.855V146.82h-27.235c-4.53,0-8.54-2.911-9.913-7.207
			c-1.443-4.482-2.164-9.033-2.164-13.52c0-23.613,18.34-43.044,41.617-44.996c4.683-21.647,23.981-37.978,47.093-38.234
			c10.343-15.394,27.619-24.703,46.561-24.703c18.945,0,36.225,9.309,46.568,24.703c23.116,0.262,42.414,16.587,47.097,38.241
			c23.27,1.945,41.608,21.384,41.608,44.989c0,4.432-0.72,8.849-2.184,13.493c-1.368,4.307-5.386,7.233-9.928,7.233H244.743v45.336
			C244.743,208.618,231.258,222.012,214.675,222.012z M166.119,126.149h28.906c5.743,0,10.406,4.624,10.406,10.335v55.672
			c0,5.058,4.146,9.185,9.244,9.185c5.102,0,9.256-4.127,9.256-9.185v-55.672c0-5.711,4.664-10.335,10.406-10.335h160.706v-0.055
			c0-13.497-11.06-24.481-24.65-24.481c-1.317,0-2.594,0.226-3.857,0.43c-2.983,0.453-6.075-0.383-8.39-2.348
			c-2.32-1.964-3.658-4.843-3.658-7.859c0-0.255,0.019-0.787,0.042-1.041c-0.015-14.814-12.542-27.267-27.951-27.267
			c-1.295,0-2.555,0.132-3.802,0.298c-4.37,0.571-8.686-1.674-10.676-5.61c-6.032-11.963-18.113-19.382-31.523-19.382
			c-13.406,0-25.476,7.419-31.516,19.382c-1.987,3.936-6.337,6.182-10.672,5.61c-1.259-0.166-2.511-0.298-3.81-0.298
			c-15.398,0-27.928,12.453-27.928,27.749c0.106,3.094-1.166,6.161-3.497,8.207c-2.328,2.046-5.446,3.052-8.517,2.559
			c-1.271-0.204-2.547-0.43-3.873-0.43c-13.591,0-24.646,10.984-24.646,24.481V126.149z"/>
	</defs>
	<clipPath id="SVGID_26_">
		<use xlink:href="#SVGID_25_"  overflow="visible"/>
	</clipPath>
	<g clip-path="url(#SVGID_26_)">
		<defs>
			<rect id="SVGID_27_" x="-2153.012" y="-1859.459" width="5608.271" height="3845.672"/>
		</defs>
		<clipPath id="SVGID_28_">
			<use xlink:href="#SVGID_27_"  overflow="visible"/>
		</clipPath>
		<rect x="125.278" y="-1.868" clip-path="url(#SVGID_28_)" fill="#2E2E31" width="310.603" height="243.912"/>
	</g>
</g>
<g>
	<defs>
		<line id="SVGID_29_" x1="191.289" y1="474.369" x2="369.118" y2="474.369"/>
	</defs>
	<clipPath id="SVGID_30_">
		<use xlink:href="#SVGID_29_"  overflow="visible"/>
	</clipPath>
	<g clip-path="url(#SVGID_30_)">
		<defs>
			<rect id="SVGID_31_" x="-2153.012" y="-1859.459" width="5608.271" height="3845.672"/>
		</defs>
		<clipPath id="SVGID_32_">
			<use xlink:href="#SVGID_31_"  overflow="visible"/>
		</clipPath>
		<rect x="171.26" y="454.34" clip-path="url(#SVGID_32_)" fill="#FFFFFF" width="217.887" height="40.061"/>
	</g>
</g>
<g>
	<defs>
		<path id="SVGID_33_" d="M369.113,484.709H191.289c-5.743,0-10.406-4.633-10.406-10.34c0-5.703,4.664-10.334,10.406-10.334h177.824
			c5.743,0,10.407,4.631,10.407,10.334C379.521,480.076,374.856,484.709,369.113,484.709"/>
	</defs>
	<clipPath id="SVGID_34_">
		<use xlink:href="#SVGID_33_"  overflow="visible"/>
	</clipPath>
	<g clip-path="url(#SVGID_34_)">
		<defs>
			<rect id="SVGID_35_" x="-2153.012" y="-1859.459" width="5608.271" height="3845.672"/>
		</defs>
		<clipPath id="SVGID_36_">
			<use xlink:href="#SVGID_35_"  overflow="visible"/>
		</clipPath>
		<rect x="160.854" y="444.004" clip-path="url(#SVGID_36_)" fill="#2E2E31" width="238.695" height="60.734"/>
	</g>
</g>
</svg>
