<?xml version="1.0" encoding="utf-8"?>
<!-- Generator: Adobe Illustrator 16.0.0, SVG Export Plug-In . SVG Version: 6.00 Build 0)  -->
<!DOCTYPE svg PUBLIC "-//W3C//DTD SVG 1.1//EN" "http://www.w3.org/Graphics/SVG/1.1/DTD/svg11.dtd">
<svg version="1.1" id="Layer_1" xmlns="http://www.w3.org/2000/svg" xmlns:xlink="http://www.w3.org/1999/xlink" x="0px" y="0px"
	 width="461px" height="303px" viewBox="0 0 461 303" enable-background="new 0 0 461 303" xml:space="preserve">
<g>
	<path fill-rule="evenodd" clip-rule="evenodd" fill="#FFB517" d="M11.515,227.531c2.21-9.543,4.558-17.489,5.769-25.605
		c0.969-6.497,4.61-9.606,10.107-12.13c21.363-9.807,43.857-11.664,66.868-9.926c30.842,2.33,59.739,12.336,88.555,22.676
		c18.453,6.621,36.983,13.09,56.624,15.293c16.334,1.832,31.795-0.083,45.553-10.287c14.432-10.705,29.234-20.908,43.705-31.563
		c2.844-2.095,4.617-1.961,7.354,0.045c14.494,10.627,29.139,21.048,43.74,31.526c0.781,0.562,1.656,0.993,3.434,2.046
		c-0.723-2.743-1.104-4.589-1.695-6.363c-5.469-16.383-10.893-32.783-16.543-49.104c-1.078-3.111,0.18-4.419,2.428-6.015
		c15.451-10.972,30.826-22.049,46.154-34.201c-4.695,0-9.391-0.019-14.086,0.004c-14.16,0.065-28.326-0.037-42.479,0.336
		c-4.246,0.112-5.752-1.621-6.922-5.274c-5.623-17.553-11.473-35.032-17.584-53.579c-1.207,3.051-2.18,5.205-2.922,7.436
		c-5.078,15.298-10.352,30.539-15.006,45.966c-1.434,4.749-3.873,5.991-8.211,5.566c-2.443-0.238-4.908-0.241-7.639-0.361
		c0.105-1.338-0.012-2.35,0.279-3.227c9.537-28.702,19.113-57.393,28.686-86.084c0.826-2.48,1.248-6.014,4.748-5.137
		c1.816,0.456,3.725,3.065,4.414,5.101c7.842,23.141,15.551,46.328,23.047,69.582c1.387,4.297,3.32,6.092,8.072,6.043
		c23.658-0.241,47.318-0.115,70.979-0.116c1.666-0.001,3.426-0.32,4.975,0.109c2.037,0.564,3.906,1.727,5.848,2.632
		c-1.045,1.884-1.652,4.32-3.213,5.552c-5.609,4.43-11.539,8.453-17.35,12.628c-14.725,10.579-29.346,21.311-44.254,31.628
		c-3.689,2.554-4.045,4.95-2.764,8.77c7.986,23.781,15.895,47.59,23.602,71.462c0.625,1.938-0.457,4.426-0.746,6.658
		c-2.074-0.481-4.553-0.392-6.16-1.53c-20.641-14.623-41.199-29.363-61.664-44.233c-3.33-2.42-5.904-2.687-9.328-0.165
		c-15.141,11.157-30.586,21.904-45.637,33.179c-18.443,13.815-39.168,18.035-61.703,16.269
		c-28.754-2.254-55.968-11.118-83.458-18.854c-26.017-7.321-52.542-10.333-79.485-8.539c-13.804,0.92-27.273,3.993-40.062,9.558
		C16.079,225.937,14.545,226.416,11.515,227.531z"/>
	<path fill-rule="evenodd" clip-rule="evenodd" fill="#FFB517" d="M26.395,163.325c2.048-8.371,3.746-15.91,5.851-23.333
		c0.353-1.241,2.366-2.197,3.796-2.92c14.65-7.406,30.417-10.65,46.621-11.608c31.915-1.888,62.424,4.874,92.352,15.391
		c23.381,8.217,47.154,15.219,71.845,18.267c17.596,2.173,34.898,1.188,50.986-7.499c0.535-0.289,1.174-0.388,2.531-0.817
		c-2.211,6.369-2.9,12.1-9.348,15.988c-22.273,13.436-45.957,15.978-70.703,10.239c-22.306-5.172-44.429-11.137-66.595-16.897
		c-27.872-7.244-56.036-11.524-84.905-8.502c-13.289,1.392-26.213,4.357-38.308,10.311
		C29.558,162.415,28.476,162.638,26.395,163.325z"/>
	<path fill-rule="evenodd" clip-rule="evenodd" fill="#FFB517" d="M272.463,132.234c-4.135,0-8.465,0.801-12.375-0.141
		c-15.469-3.725-30.884-7.72-46.172-12.126c-23.282-6.71-46.226-14.711-69.712-20.563c-24.895-6.204-50.421-6.968-75.789-2.414
		c-7.939,1.425-15.555,4.666-23.304,7.122c-1.366,0.433-2.659,1.096-5.366,2.23c1.538-6.234,2.589-11.341,4.164-16.28
		c0.394-1.233,2.36-2.187,3.8-2.832c14.805-6.639,30.563-9.086,46.573-9.742c34.855-1.43,67.821,7.215,100.235,19.063
		c17.607,6.436,35.594,11.827,53.324,17.937c3.373,1.162,6.467,3.304,9.484,5.303c5.225,3.46,10.289,7.161,15.422,10.762
		C272.652,131.113,272.559,131.674,272.463,132.234z"/>
</g>
</svg>
