<?xml version="1.0" encoding="utf-8"?>
<!-- Generator: Adobe Illustrator 16.0.0, SVG Export Plug-In . SVG Version: 6.00 Build 0)  -->
<!DOCTYPE svg PUBLIC "-//W3C//DTD SVG 1.1//EN" "http://www.w3.org/Graphics/SVG/1.1/DTD/svg11.dtd">
<svg version="1.1" id="Layer_1" xmlns="http://www.w3.org/2000/svg" xmlns:xlink="http://www.w3.org/1999/xlink" x="0px" y="0px"
	 width="382px" height="226px" viewBox="88.14 301.445 382 226" enable-background="new 88.14 301.445 382 226"
	 xml:space="preserve">
<g>
	<path d="M183.237,429.951c-1.72,0-3.439-0.004-5.159,0.002c-0.794,0.002-1.275-0.289-1.341-1.17
		c-0.186-2.521-1.506-4.396-3.881-4.955c-3.878-0.908-7.724-0.846-11.207,1.455c-2.789,1.84-4.215,4.629-5.061,7.748
		c-0.365,1.35-0.667,2.725-0.861,4.105c-0.568,4.061,1.551,7.104,5.601,7.814c4.005,0.703,7.86,0.287,10.973-2.674
		c0.896-0.854,1.556-2.006,2.133-3.119c0.406-0.783,0.867-1.189,1.729-1.189c3.479,0.004,6.959-0.021,10.438,0.006
		c1.193,0.012,1.497,0.521,1.024,1.629c-0.826,1.936-1.535,3.945-2.585,5.754c-1.67,2.879-4.271,4.812-7.24,6.26
		c-7.705,3.748-15.773,4.436-24.07,2.697c-3.125-0.654-6.021-1.971-8.227-4.4c-1.934-2.129-2.739-4.697-2.853-7.568
		c-0.237-6.066,1.051-11.77,4.043-17.037c1.738-3.057,4.157-5.531,7.164-7.43c7.317-4.621,15.342-5.032,23.605-4.047
		c3.135,0.373,6.095,1.326,8.686,3.157c2.691,1.901,4.322,4.47,4.307,7.876c-0.005,1.117-0.074,2.24-0.224,3.348
		c-0.194,1.439-0.57,1.727-2.074,1.744c-1.641,0.021-3.28,0.006-4.921,0.006C183.237,429.957,183.237,429.955,183.237,429.951z"/>
	<path d="M213.731,414.082c3.878,0,7.758-0.091,11.632,0.033c2.545,0.081,5.078,0.379,7.441,1.561
		c2.26,1.13,3.434,2.917,3.318,5.361c-0.178,3.753-0.938,7.357-3.428,10.394c-1.388,1.691-3.032,2.93-5.154,3.504
		c-0.077,0.021-0.172,0.02-0.229,0.064c-0.372,0.303-0.735,0.615-1.103,0.926c0.392,0.271,0.758,0.6,1.182,0.807
		c0.598,0.291,1.315,0.383,1.851,0.752c2.395,1.654,3.107,3.605,2.447,6.443c-0.426,1.828-0.91,3.646-1.283,5.484
		c-0.252,1.246-0.381,2.52-0.518,3.785c-0.087,0.801-0.306,1.416-1.26,1.416c-2.317-0.004-4.635,0.008-6.952-0.012
		c-1.419-0.012-1.812-0.475-1.511-1.861c0.539-2.498,1.127-4.984,1.689-7.479c0.633-2.803-0.507-4.715-3.293-5.398
		c-0.846-0.207-1.738-0.297-2.61-0.309c-3.638-0.047-7.275-0.021-10.913-0.064c-1.159-0.014-1.721,0.467-1.969,1.611
		c-0.86,3.98-1.823,7.941-2.696,11.92c-0.249,1.135-0.825,1.619-1.989,1.596c-2.118-0.045-4.237,0.002-6.356-0.016
		c-1.326-0.01-1.521-0.355-1.218-1.611c1.193-4.926,2.351-9.861,3.512-14.797c1.218-5.168,2.438-10.338,3.632-15.514
		c0.502-2.178,0.976-4.365,1.399-6.56c0.366-1.887,0.716-2.15,2.628-2.13c3.917,0.042,7.833,0.012,11.75,0.012
		C213.731,414.029,213.731,414.055,213.731,414.082z M212.935,432.375c0-0.012,0-0.023,0-0.035c1.799,0,3.601,0.021,5.398-0.004
		c4.585-0.068,7.269-2.482,7.622-7.033c0.062-0.805-0.363-1.799-0.876-2.465c-1.085-1.407-2.802-1.429-4.397-1.456
		c-3.638-0.06-7.278-0.034-10.917-0.04c-1.88-0.003-2.189,0.351-2.572,2.24c-0.45,2.229-0.974,4.451-1.594,6.639
		c-0.449,1.582-0.119,2.146,1.578,2.15C209.096,432.378,211.015,432.375,212.935,432.375z"/>
	<path d="M283.023,413.315c2.782,0.47,5.604,0.776,8.338,1.443c5.281,1.288,8.81,5.818,9.114,11.307
		c0.194,3.49-0.577,6.826-1.451,10.16c-0.934,3.559-2.403,6.848-4.646,9.783c-2.286,2.996-5.218,5.125-8.65,6.623
		c-5.068,2.211-10.362,2.891-15.828,2.289c-3.917-0.432-7.594-1.518-10.543-4.336c-2.476-2.365-3.501-5.412-3.395-8.68
		c0.1-3.047,0.552-6.129,1.245-9.104c0.931-3.994,2.604-7.711,5.34-10.873c2.293-2.648,5.062-4.651,8.276-5.976
		c4.585-1.89,7.125-2.311,12.143-2.314C282.987,413.532,283.005,413.423,283.023,413.315z M265.563,438.791
		c0.146,1.008,0.152,2.117,0.479,3.121c1.134,3.5,3.693,5.287,7.277,5.678c4.435,0.482,8.476-0.482,11.701-3.691
		c4.396-4.373,5.835-9.908,5.591-15.904c-0.102-2.506-1.397-4.65-3.733-5.793c-4.778-2.334-9.488-1.719-13.781,1.133
		C267.663,426.943,266.23,432.664,265.563,438.791z"/>
	<path d="M365.579,414.144c0.96,0,1.946-0.135,2.87,0.049c0.606,0.12,1.408,0.576,1.633,1.095c2.356,5.418,4.606,10.882,6.901,16.33
		c1.895,4.49,3.794,8.979,5.734,13.447c0.174,0.398,0.669,0.66,1.015,0.984c0.222-0.387,0.559-0.748,0.646-1.162
		c0.546-2.535,0.99-5.094,1.553-7.625c1.1-4.957,2.251-9.9,3.384-14.852c0.525-2.296,1.079-4.587,1.576-6.891
		c0.225-1.04,0.755-1.486,1.846-1.394c0.952,0.081,1.918,0.019,2.877,0.005c1.23-0.017,1.554,0.309,1.298,1.496
		c-0.418,1.954-0.894,3.896-1.344,5.84c-1.208,5.215-2.409,10.432-3.626,15.645c-1.271,5.447-2.558,10.893-3.842,16.338
		c-0.18,0.76-0.663,1.154-1.461,1.152c-1.84,0-3.68,0.006-5.521,0.012c-0.875,0.002-1.386-0.463-1.718-1.242
		c-2.913-6.834-5.845-13.66-8.758-20.494c-1.363-3.195-2.685-6.408-4.068-9.596c-0.146-0.338-0.582-0.549-0.884-0.818
		c-0.213,0.309-0.552,0.59-0.619,0.928c-0.708,3.561-1.297,7.145-2.064,10.688c-1.278,5.898-2.663,11.771-4.004,17.658
		c-0.062,0.271-0.128,0.545-0.202,0.814c-0.548,2.006-0.601,2.043-2.714,2.049c-0.88,0.004-1.762,0.029-2.641,0
		c-0.896-0.027-1.178-0.549-0.98-1.381c1.688-7.148,3.383-14.297,5.063-21.447c1.254-5.33,2.507-10.661,3.724-16
		c0.262-1.149,0.775-1.775,2.047-1.636c0.751,0.082,1.519,0.016,2.277,0.016C365.579,414.148,365.579,414.146,365.579,414.144z"/>
	<path d="M364.627,390.624c6.907,0.203,12.65,1.81,18.323,3.843c3.979,1.426,7.928,2.958,12.166,3.575
		c4.307,0.626,8.144-0.087,11.563-2.939c2.082-1.736,4.373-3.221,6.548-4.849c0.784-0.587,1.455-0.63,2.266-0.011
		c2.441,1.866,4.914,3.693,7.406,5.492c0.306,0.221,0.802,0.178,1.21,0.258c0.041-0.441,0.226-0.928,0.101-1.316
		c-0.756-2.354-1.581-4.685-2.384-7.023c-0.025-0.076-0.047-0.153-0.071-0.229c-0.878-2.597-0.873-2.591,1.474-4.235
		c2.025-1.42,4.059-2.832,6.044-4.308c0.354-0.262,0.487-0.816,0.723-1.235c-0.42-0.145-0.841-0.417-1.26-0.414
		c-2.876,0.019-5.753,0.072-8.628,0.163c-1.246,0.039-1.944-0.344-2.308-1.675c-0.759-2.771-1.718-5.488-2.635-8.214
		c-0.108-0.326-0.467-0.569-0.71-0.85c-0.323,0.3-0.819,0.542-0.944,0.91c-0.938,2.759-1.772,5.553-2.713,8.311
		c-0.19,0.559-0.622,1.103-1.086,1.473c-0.253,0.201-0.925,0.173-1.191-0.032c-0.244-0.186-0.363-0.806-0.253-1.142
		c1.369-4.17,2.797-8.321,4.193-12.483c0.354-1.06,0.596-2.16,0.997-3.199c0.164-0.424,0.616-0.736,0.938-1.099
		c0.256,0.353,0.616,0.67,0.751,1.064c1.505,4.42,2.995,8.845,4.439,13.285c0.33,1.018,0.95,1.368,1.958,1.358
		c4.678-0.044,9.354-0.074,14.032-0.069c0.464,0,0.928,0.27,1.391,0.415c-0.284,0.431-0.478,0.99-0.868,1.272
		c-3.562,2.569-7.17,5.073-10.74,7.631c-1.765,1.265-1.785,1.655-1.066,3.721c1.221,3.507,2.347,7.046,3.526,10.566
		c0.202,0.604,0.546,1.164,0.708,1.775c0.109,0.414,0.019,0.882,0.016,1.326c-0.447-0.05-0.987,0.042-1.327-0.176
		c-1.106-0.709-2.138-1.535-3.201-2.311c-2.873-2.095-5.75-4.185-8.622-6.281c-0.887-0.647-1.623-0.295-2.394,0.268
		c-3.063,2.238-6.134,4.47-9.229,6.666c-3.342,2.371-7.139,3.337-11.133,2.757c-4.136-0.601-8.263-1.447-12.293-2.549
		c-5.569-1.523-11.136-2.979-16.941-2.943c-3.431,0.021-6.87,0.293-10.094,1.719c-0.356,0.158-0.821,0.068-1.236,0.095
		c-0.015-0.414-0.091-0.836-0.031-1.239c0.102-0.669,0.346-1.319,0.428-1.989c0.232-1.905,1.373-3.025,3.102-3.582
		C358.783,391.14,362.057,390.426,364.627,390.624z"/>
	<path d="M316.96,454.617c-4.6,0-9.198,0-13.797,0c-1.628,0-1.899-0.361-1.525-1.957c1.378-5.873,2.75-11.746,4.118-17.621
		c1.539-6.613,3.078-13.227,4.6-19.843c0.186-0.808,0.637-1.13,1.437-1.123c1.76,0.016,3.52-0.019,5.277,0.008
		c1.071,0.016,1.311,0.414,1.061,1.459c-1.253,5.242-2.483,10.49-3.732,15.734c-1.212,5.088-2.424,10.178-3.663,15.26
		c-0.369,1.512-0.038,1.992,1.524,1.988c6.599-0.01,13.196-0.02,19.796-0.029c1.814-0.002,2.043,0.332,1.499,2.053
		c-0.252,0.797-0.436,1.623-0.57,2.449c-0.214,1.301-1.021,1.646-2.226,1.639c-4.6-0.029-9.197-0.012-13.797-0.012
		C316.96,454.619,316.96,454.619,316.96,454.617z"/>
	<path d="M421.878,413.998c0.879,0,1.761,0.045,2.637-0.012c0.959-0.063,1.515,0.283,1.688,1.259
		c0.538,3.028,1.109,6.05,1.649,9.079c1.694,9.518,3.38,19.037,5.072,28.557c0.205,1.15-0.105,1.537-1.291,1.568
		c-2.93,0.076-3.021-0.076-3.463-3.062c-0.469-3.16-1.064-6.301-1.636-9.443c-0.151-0.842-0.707-1.373-1.551-0.943
		c-4.41,2.238-9.003,1.73-13.606,0.967c-1.768-0.295-3.494-0.838-5.266-1.08c-0.523-0.07-1.333,0.348-1.673,0.797
		c-1.03,1.365-1.893,2.859-2.826,4.301c-1.562,2.412-3.11,4.838-4.708,7.229c-0.717,1.072-3.004,1.691-4.172,1.186
		c-0.763-0.33-0.525-0.84-0.182-1.363c2.098-3.207,4.203-6.412,6.276-9.635c5.121-7.957,10.226-15.926,15.339-23.887
		c0.949-1.479,1.96-2.92,2.861-4.427c0.475-0.794,1.104-1.094,1.971-1.082c0.959,0.013,1.918,0.003,2.877,0.003
		C421.878,414.003,421.878,414,421.878,413.998z M421.42,438.576c0.246-0.012,0.646-0.01,1.044-0.051
		c2.793-0.293,3.146-0.723,2.699-3.438c-0.892-5.436-1.805-10.867-2.715-16.3c-0.135-0.806-0.323-1.78-1.291-1.74
		c-0.611,0.025-1.389,0.568-1.761,1.107c-1.062,1.542-1.909,3.228-2.921,4.806c-2.348,3.662-4.741,7.293-7.118,10.938
		c-0.671,1.027-0.503,1.562,0.659,1.992c0.523,0.195,1.061,0.354,1.592,0.523C414.763,437.425,417.897,438.523,421.42,438.576z"/>
	<path d="M241.28,454.601c-1.119,0-2.238,0.023-3.357-0.006c-1.13-0.029-1.377-0.451-1.119-1.529c0.79-3.299,1.53-6.607,2.305-9.908
		c1.187-5.051,2.397-10.096,3.571-15.148c0.886-3.812,1.729-7.633,2.594-11.45c0.106-0.467,0.242-0.928,0.35-1.396
		c0.188-0.828,0.704-1.199,1.547-1.194c2.236,0.015,4.475,0.008,6.712,0.011c0.986,0.001,1.377,0.429,1.141,1.439
		c-1.917,8.201-3.826,16.402-5.721,24.607c-0.917,3.971-1.799,7.949-2.699,11.924c-0.088,0.391-0.209,0.773-0.28,1.166
		c-0.193,1.084-0.808,1.57-1.925,1.516c-1.037-0.051-2.078-0.01-3.117-0.01C241.28,454.617,241.28,454.609,241.28,454.601z"/>
	<path d="M342.673,454.605c-0.879,0-1.76,0.014-2.639-0.004c-0.934-0.02-1.302-0.514-1.087-1.416
		c1.725-7.264,3.475-14.52,5.172-21.787c1.19-5.092,2.319-10.198,3.463-15.299c0.415-1.854,0.607-2.021,2.467-2.009
		c1.438,0.008,2.877-0.031,4.313-0.007c1.176,0.019,1.435,0.36,1.168,1.491c-2.023,8.63-4.064,17.255-6.08,25.888
		c-0.854,3.654-1.631,7.328-2.488,10.98c-0.503,2.143-0.603,2.176-2.852,2.172c-0.479,0-0.959,0-1.438,0
		C342.673,454.611,342.673,454.609,342.673,454.605z"/>
	<path d="M366.126,379.931c6.186,0.144,11.056,1.064,15.83,2.651c6.249,2.076,12.479,4.382,19.204,4.184
		c1.756-0.052,3.492-0.7,5.24-1.059c0.318-0.065,0.651-0.058,0.979-0.085c-0.054,0.329-0.002,0.739-0.183,0.968
		c-0.355,0.455-0.794,0.881-1.277,1.195c-4.451,2.875-9.329,2.847-14.236,1.788c-4.208-0.908-8.344-2.148-12.513-3.235
		c-6.086-1.586-12.245-2.369-18.508-1.357c-1.596,0.258-3.118,0.952-4.687,1.408c-0.346,0.101-0.737,0.045-1.107,0.062
		c-0.004-0.339-0.027-0.679-0.008-1.016c0.168-2.742,2.062-3.813,4.377-4.299C361.888,380.58,364.572,380.197,366.126,379.931z"/>
	<path d="M400.619,381.233c-2.346-0.647-4.748-1.243-7.107-1.975c-6.245-1.938-12.322-4.556-18.876-5.274
		c-3.509-0.384-7.093-0.317-10.627-0.141c-1.831,0.091-3.625,0.875-5.443,1.318c-0.311,0.076-0.792,0.149-0.949-0.013
		c-0.193-0.2-0.231-0.672-0.161-0.986c0.258-1.124,1.078-1.711,2.121-2.072c4.161-1.438,8.445-1.667,12.787-1.307
		c5.505,0.457,10.725,2.005,15.854,3.995c3.046,1.181,6.229,2.006,9.297,3.134c1.289,0.474,2.455,1.297,3.645,2.016
		c0.211,0.127,0.412,0.571,0.345,0.778C401.434,380.915,401.023,381.009,400.619,381.233z"/>
	<path d="M207.636,406.199c-0.131,0.144-0.348,0.38-0.563,0.616c-0.248-0.317-0.667-0.611-0.716-0.956
		c-0.251-1.779-0.403-3.571-0.597-5.358c-0.146-1.35-0.333-2.696-0.443-4.048c-0.082-1.008-0.722-1.091-1.508-1.089
		c-4.476,0.01-8.952,0.005-13.428,0.006c-0.439,0-0.884,0.041-1.317-0.011c-1.064-0.129-1.605,0.442-2.005,1.33
		c-1.356,3.022-2.741,6.032-4.118,9.045c-0.083,0.181-0.153,0.398-0.299,0.513c-0.278,0.217-0.604,0.371-0.912,0.551
		c0.001-0.354-0.112-0.764,0.021-1.057c3.186-6.924,6.395-13.837,9.607-20.748c2.761-5.935,5.528-11.865,8.3-17.794
		c0.457-0.978,1.324-1.247,2.774-0.969c0.928,0.178,0.873,0.872,0.948,1.554c0.877,8.019,1.765,16.036,2.651,24.054
		c0.513,4.644,1.027,9.288,1.543,13.931C207.583,405.845,207.596,405.924,207.636,406.199z M188.269,394.241
		c0.647,0.063,1.031,0.133,1.415,0.134c4.553,0.007,9.106,0.002,13.659,0.003c1.76,0,1.821-0.109,1.616-1.843
		c-0.513-4.319-0.995-8.642-1.47-12.965c-0.412-3.769-0.784-7.542-1.221-11.308c-0.041-0.346-0.405-0.904-0.647-0.919
		c-0.389-0.025-0.817,0.293-1.19,0.528c-0.14,0.088-0.169,0.35-0.253,0.53c-3.222,6.986-6.444,13.973-9.666,20.959
		C189.798,390.909,189.088,392.458,188.269,394.241z"/>
	<path d="M283.408,366.485c-0.245,0.413-0.453,0.855-0.742,1.235c-4.429,5.818-8.878,11.618-13.275,17.459
		c-0.291,0.387-0.412,1.154-0.239,1.6c1.925,4.948,3.922,9.868,5.902,14.794c0.521,1.296,1.083,2.577,1.559,3.889
		c0.142,0.389,0.057,0.861,0.074,1.295c-0.374-0.27-0.934-0.458-1.093-0.822c-1.646-3.77-3.288-7.544-4.807-11.366
		c-0.955-2.401-1.669-4.896-2.569-7.319c-0.142-0.384-0.685-0.863-1.057-0.877c-2.276-0.083-4.557-0.043-6.834-0.047
		c-0.852-0.001-1.05,0.6-1.162,1.263c-0.963,5.63-1.92,11.262-2.886,16.894c-0.094,0.551-0.166,1.118-0.363,1.634
		c-0.103,0.266-0.459,0.433-0.701,0.645c-0.118-0.297-0.378-0.618-0.332-0.886c0.731-4.253,1.517-8.497,2.26-12.748
		c0.715-4.09,1.377-8.188,2.096-12.277c0.788-4.483,1.598-8.963,2.45-13.434c0.073-0.386,0.554-0.694,0.845-1.039
		c0.072,0.426,0.271,0.874,0.201,1.276c-0.954,5.469-1.929,10.935-2.941,16.394c-0.189,1.02,0.098,1.385,1.136,1.363
		c2.078-0.043,4.16,0.034,6.236-0.034c0.481-0.016,1.172-0.283,1.394-0.656c3.197-5.39,7.503-9.94,11.223-14.931
		c0.739-0.993,1.515-1.961,2.312-2.908c0.25-0.298,0.627-0.49,0.946-0.731C283.16,366.261,283.284,366.373,283.408,366.485z"/>
	<path d="M163.211,390.061c-1.561,0-3.124,0.068-4.678-0.022c-1.146-0.066-1.56,0.451-1.733,1.479
		c-0.796,4.688-1.627,9.371-2.449,14.055c-0.047,0.272-0.067,0.57-0.199,0.801c-0.101,0.177-0.438,0.412-0.526,0.363
		c-0.204-0.115-0.456-0.394-0.445-0.591c0.035-0.675,0.162-1.347,0.278-2.016c0.721-4.13,1.443-8.26,2.176-12.388
		c0.977-5.508,1.96-11.016,2.942-16.524c0.448-2.518,0.942-5.028,1.333-7.554c0.155-1.009,0.549-1.496,1.61-1.478
		c3.6,0.061,7.204-0.032,10.794,0.167c1.47,0.082,2.98,0.595,4.337,1.21c1.899,0.86,2.915,2.611,2.977,4.618
		c0.127,4.229-0.5,8.404-2.278,12.262c-1.602,3.478-4.732,4.969-8.389,5.38c-1.903,0.214-3.829,0.22-5.745,0.321
		C163.214,390.116,163.213,390.088,163.211,390.061z M167.1,367.046c-0.007,0.071-0.014,0.143-0.021,0.213
		c-1.599,0-3.197,0.023-4.794-0.01c-0.812-0.016-1.23,0.26-1.381,1.11c-1.155,6.524-2.348,13.042-3.527,19.562
		c-0.175,0.97,0.419,1.195,1.195,1.183c3.235-0.048,6.476-0.009,9.702-0.195c4.016-0.232,7.351-1.928,8.585-5.93
		c0.967-3.131,1.383-6.472,1.689-9.752c0.267-2.853-1.509-4.935-4.342-5.421C171.864,367.404,169.471,367.289,167.1,367.046z"/>
	<path d="M219.176,397.662c0.552-3.347,1.052-6.704,1.671-10.04c0.75-4.041,1.388-8.12,2.457-12.079
		c1.664-6.167,6.764-9.745,13.148-9.554c1.351,0.041,2.74,0.126,4.034,0.48c3.175,0.868,5.179,3.32,5.219,6.672
		c0.024,2.131-0.451,4.271-0.765,6.398c-0.043,0.293-0.441,0.534-0.677,0.798c-0.11-0.346-0.341-0.703-0.309-1.036
		c0.187-1.943,0.613-3.88,0.624-5.821c0.017-3.451-2.049-5.713-5.452-6.219c-4.096-0.608-7.988-0.271-11.273,2.636
		c-2.158,1.911-3.319,4.416-3.918,7.13c-0.842,3.819-1.479,7.684-2.149,11.539c-0.472,2.713-0.926,5.434-1.235,8.168
		c-0.132,1.169,0.008,2.403,0.223,3.571c0.585,3.186,2.808,5.11,6.007,5.663c2.897,0.5,5.681,0.257,8.301-0.997
		c3.362-1.609,5.063-4.513,5.754-8.076c0.266-1.374,0.458-2.762,0.753-4.128c0.057-0.264,0.441-0.456,0.676-0.681
		c0.129,0.253,0.402,0.529,0.367,0.757c-0.467,3-0.83,6.058-2.466,8.705c-2.86,4.626-7.283,5.911-12.4,5.56
		c-1.771-0.122-3.473-0.499-4.976-1.538C220.009,403.649,219.291,400.853,219.176,397.662z"/>
	<path d="M330.055,482.267c0.978-7.17,2.597-14.242,3.411-21.562c-0.224,0.207-0.502,0.379-0.659,0.627
		c-4.164,6.566-8.3,13.152-12.493,19.699c-0.438,0.682-1.208,1.15-1.824,1.719c-0.356-0.705-0.832-1.373-1.053-2.117
		c-1.603-5.393-3.159-10.799-4.715-16.205c-0.275-0.957-0.448-1.943-0.728-2.9c-0.11-0.381-0.382-0.715-0.58-1.07
		c-0.093,0.045-0.186,0.088-0.278,0.131c-1.265,7.285-2.526,14.57-3.79,21.855c-0.178-0.016-0.355-0.031-0.533-0.047
		c-0.025-0.268-0.111-0.547-0.066-0.803c1.15-6.486,2.316-12.971,3.473-19.457c0.099-0.551,0.041-1.146,0.229-1.654
		c0.155-0.42,0.57-0.742,0.87-1.107c0.347,0.332,0.867,0.604,1.008,1.008c0.485,1.393,0.837,2.828,1.239,4.25
		c1.534,5.414,3.063,10.828,4.613,16.238c0.1,0.35,0.354,0.654,0.67,1.215c0.865-1.344,1.597-2.465,2.315-3.594
		c3.26-5.115,6.515-10.232,9.773-15.348c0.644-1.008,1.244-2.053,1.977-2.992c0.292-0.373,0.892-0.508,1.35-0.748
		c0.066,0.43,0.253,0.881,0.185,1.289c-0.889,5.314-1.802,10.629-2.735,15.938c-0.336,1.906-0.745,3.799-1.121,5.697
		C330.41,482.308,330.232,482.289,330.055,482.267z"/>
	<path d="M395.104,474.32c-0.1,0.76-0.135,1.221-0.224,1.67c-0.612,3.086,1.062,5.432,4.142,5.984
		c3.137,0.564,6.202,0.408,9.221-0.588c2.463-0.811,4.646-4.633,3.988-7.09c-0.474-1.768-1.968-2.484-3.576-2.805
		c-2.426-0.482-4.887-0.781-7.326-1.193c-0.979-0.166-1.979-0.328-2.909-0.66c-2.056-0.729-2.698-2.842-1.918-5.207
		c1.025-3.111,3.372-4.434,6.327-4.906c2.688-0.43,5.399-0.555,8.062,0.32c3.594,1.182,4.045,4.021,3.317,7.258
		c-0.019,0.082-0.184,0.131-0.518,0.35c0-0.553-0.053-0.947,0.008-1.32c0.515-3.174-0.669-5.078-3.836-5.84
		c-3.258-0.785-6.517-0.664-9.634,0.643c-1.979,0.83-3.676,3.711-3.29,5.783c0.15,0.812,0.914,1.689,1.642,2.166
		c0.792,0.52,1.851,0.705,2.82,0.859c2.557,0.408,5.179,0.508,7.682,1.119c3.751,0.914,4.575,2.725,3.377,6.811
		c-0.711,2.428-2.552,3.816-5.007,4.514c-3.477,0.986-6.916,1.232-10.311-0.191c-2.371-0.996-3.202-2.486-3.066-5.117
		C394.166,475.123,394.166,475.123,395.104,474.32z"/>
	<path d="M299.758,482.63c-0.312,0.064-0.621,0.182-0.933,0.184c-4.356,0.01-8.713-0.018-13.068,0.02
		c-1.052,0.01-1.465-0.311-1.277-1.395c0.609-3.5,1.163-7.012,1.771-10.514c0.58-3.336,1.233-6.662,1.786-10.004
		c0.188-1.141,0.625-1.627,1.864-1.604c4.275,0.076,8.553,0.037,12.829,0.049c0.367,0,0.734,0.051,1.103,0.078
		c0.007,0.119,0.013,0.238,0.019,0.357c-0.35,0.059-0.699,0.164-1.049,0.164c-3.957,0.008-7.914,0.004-11.87-0.006
		c-1.919-0.006-1.951,0.029-2.285,1.896c-0.414,2.316-0.854,4.629-1.297,6.939c-0.271,1.412-0.152,1.57,1.344,1.572
		c3.718,0.004,7.435-0.006,11.151,0c0.455,0,0.909,0.055,1.364,0.084c0.012,0.125,0.021,0.25,0.033,0.373
		c-0.411,0.068-0.822,0.195-1.232,0.195c-3.717,0.008-7.434-0.004-11.151-0.016c-1.792-0.008-1.94,0.145-2.223,1.898
		c-0.417,2.598-0.882,5.188-1.331,7.781c-0.21,1.217-0.058,1.412,1.181,1.412c4.037-0.004,8.074-0.021,12.11-0.02
		c0.388,0,0.774,0.109,1.161,0.168C299.758,482.375,299.758,482.503,299.758,482.63z"/>
	<path d="M389.273,482.57c-0.408-1.432-0.817-2.861-1.222-4.293c-0.043-0.152-0.058-0.314-0.091-0.471
		c-0.462-2.072-0.462-2.072-2.585-2.072c-3.92,0-7.84,0.029-11.758-0.023c-1.059-0.014-1.67,0.355-2.182,1.279
		c-0.941,1.703-2.014,3.334-3.05,4.982c-0.17,0.271-0.435,0.484-0.877,0.598c0.014-0.17-0.03-0.377,0.049-0.508
		c4.487-7.26,8.997-14.508,13.465-21.779c0.507-0.824,1.191-1.18,1.977-0.869c0.512,0.203,1.054,0.83,1.201,1.369
		c1.318,4.811,2.546,9.645,3.813,14.469c0.517,1.965,1.075,3.918,1.588,5.885c0.11,0.426,0.103,0.881,0.148,1.322
		C389.593,482.496,389.433,482.533,389.273,482.57z M379.943,475.181c0,0.02,0,0.039,0,0.061c1.96,0,3.92-0.037,5.877,0.014
		c1.012,0.027,1.296-0.412,1.123-1.314c-0.06-0.312-0.123-0.627-0.204-0.938c-1.033-3.895-2.048-7.793-3.131-11.674
		c-0.137-0.49-0.605-1.189-0.98-1.229c-0.418-0.045-1.064,0.453-1.337,0.889c-2.688,4.293-5.323,8.617-7.954,12.945
		c-0.167,0.275-0.319,0.738-0.198,0.959c0.112,0.203,0.602,0.271,0.927,0.275C376.023,475.193,377.984,475.181,379.943,475.181z"/>
	<path d="M415.013,482.47c0.087-0.254,0.131-0.535,0.269-0.76c4.331-7.023,8.656-14.053,13.037-21.045
		c0.355-0.568,1.042-1.084,1.682-1.281c0.852-0.266,1.413,0.154,1.679,1.172c1.534,5.902,3.161,11.779,4.736,17.67
		c0.365,1.363,0.66,2.748,0.987,4.123c-0.101,0.059-0.202,0.115-0.304,0.172c-0.167-0.186-0.426-0.346-0.487-0.562
		c-0.45-1.566-0.894-3.139-1.271-4.725c-0.261-1.092-0.766-1.561-1.986-1.533c-3.954,0.082-7.912,0.064-11.867-0.006
		c-1.263-0.021-2.054,0.312-2.658,1.498c-0.828,1.629-1.885,3.143-2.862,4.691c-0.176,0.279-0.45,0.494-0.68,0.738
		C415.195,482.574,415.104,482.521,415.013,482.47z M427.519,475.263c1.956,0,3.912-0.006,5.868,0.002
		c0.821,0.004,1.372-0.242,1.124-1.195c-1.145-4.4-2.284-8.801-3.465-13.189c-0.284-1.053-1.134-1.205-1.894-0.393
		c-0.27,0.289-0.479,0.639-0.687,0.979c-2.513,4.111-5.023,8.225-7.518,12.35c-0.188,0.312-0.438,0.904-0.315,1.027
		c0.256,0.26,0.738,0.396,1.133,0.404C423.683,475.285,425.601,475.263,427.519,475.263z"/>
	<path d="M367.25,467.666c-0.098-0.496-0.221-0.781-0.195-1.055c0.312-3.502-1.971-5.785-5.004-6.395
		c-4.592-0.922-8.579-0.023-11.695,3.621c-1.998,2.338-2.646,5.244-3.016,8.195c-0.162,1.301-0.133,2.633-0.088,3.947
		c0.097,2.896,1.661,4.814,4.309,5.729c3.947,1.359,9.702,0.562,12.375-3.258c0.648-0.928,1.049-2.031,1.554-3.061
		c0.143-0.289,0.248-0.594,0.572-0.822c0.221,1.268-0.303,2.369-0.908,3.355c-2.012,3.271-5.218,4.582-8.849,4.973
		c-2.036,0.219-4.031-0.031-5.951-0.957c-1.998-0.963-3.148-2.5-3.692-4.566c-0.675-2.562-0.204-5.078,0.438-7.562
		c0.355-1.385,0.711-2.797,1.306-4.086c1.276-2.766,3.425-4.682,6.311-5.689c3.337-1.168,6.652-1.176,9.896,0.387
		c2.368,1.143,3.751,4.145,3.062,6.668C367.634,467.222,367.498,467.332,367.25,467.666z"/>
</g>
</svg>
