<?xml version="1.0" encoding="utf-8"?>
<!-- Generator: Adobe Illustrator 16.0.0, SVG Export Plug-In . SVG Version: 6.00 Build 0)  -->
<!DOCTYPE svg PUBLIC "-//W3C//DTD SVG 1.1//EN" "http://www.w3.org/Graphics/SVG/1.1/DTD/svg11.dtd">
<svg version="1.1" id="Layer_1" xmlns="http://www.w3.org/2000/svg" xmlns:xlink="http://www.w3.org/1999/xlink" x="0px" y="0px"
	 width="382px" height="226px" viewBox="0 0 382 226" enable-background="new 0 0 382 226" xml:space="preserve">
<g>
	<path d="M87.885,121.755c-1.72,0-3.439-0.004-5.159,0.002c-0.794,0.002-1.275-0.289-1.341-1.17
		c-0.186-2.521-1.506-4.396-3.881-4.955c-3.878-0.908-7.724-0.846-11.207,1.455c-2.789,1.84-4.215,4.629-5.061,7.748
		c-0.365,1.35-0.667,2.725-0.861,4.104c-0.568,4.062,1.551,7.104,5.601,7.814c4.005,0.703,7.86,0.287,10.973-2.674
		c0.896-0.854,1.556-2.007,2.133-3.119c0.406-0.783,0.867-1.189,1.729-1.189c3.479,0.004,6.959-0.021,10.438,0.006
		c1.193,0.013,1.497,0.521,1.024,1.629c-0.826,1.937-1.535,3.945-2.585,5.755c-1.67,2.879-4.271,4.812-7.24,6.26
		c-7.705,3.748-15.773,4.436-24.07,2.697c-3.125-0.654-6.021-1.972-8.227-4.4c-1.934-2.129-2.739-4.697-2.853-7.568
		c-0.237-6.065,1.051-11.77,4.043-17.037c1.738-3.057,4.157-5.53,7.164-7.43c7.317-4.621,15.342-5.032,23.605-4.047
		c3.135,0.373,6.095,1.326,8.686,3.157c2.691,1.9,4.322,4.47,4.307,7.876c-0.005,1.117-0.074,2.24-0.224,3.348
		c-0.194,1.439-0.57,1.728-2.074,1.744c-1.641,0.021-3.28,0.006-4.921,0.006C87.885,121.761,87.885,121.759,87.885,121.755z"/>
	<path d="M118.379,105.886c3.879,0,7.758-0.091,11.633,0.033c2.545,0.081,5.078,0.379,7.441,1.561
		c2.26,1.13,3.434,2.917,3.317,5.361c-0.179,3.753-0.938,7.356-3.429,10.394c-1.387,1.691-3.031,2.931-5.153,3.504
		c-0.077,0.021-0.172,0.021-0.229,0.064c-0.371,0.303-0.734,0.615-1.103,0.926c0.392,0.271,0.758,0.601,1.183,0.808
		c0.598,0.291,1.314,0.383,1.851,0.752c2.396,1.653,3.106,3.604,2.446,6.442c-0.426,1.828-0.91,3.646-1.283,5.484
		c-0.252,1.246-0.381,2.52-0.518,3.785c-0.087,0.801-0.306,1.416-1.26,1.416c-2.316-0.004-4.635,0.008-6.952-0.013
		c-1.419-0.012-1.812-0.475-1.511-1.86c0.539-2.498,1.127-4.984,1.689-7.479c0.633-2.803-0.508-4.715-3.293-5.397
		c-0.847-0.207-1.738-0.297-2.61-0.31c-3.638-0.047-7.275-0.021-10.913-0.063c-1.159-0.015-1.721,0.467-1.969,1.61
		c-0.86,3.98-1.823,7.941-2.696,11.92c-0.249,1.136-0.825,1.619-1.989,1.597c-2.117-0.045-4.236,0.002-6.355-0.017
		c-1.326-0.01-1.521-0.354-1.218-1.61c1.193-4.926,2.351-9.861,3.511-14.797c1.219-5.168,2.438-10.338,3.633-15.515
		c0.502-2.178,0.977-4.364,1.398-6.56c0.366-1.887,0.717-2.15,2.629-2.13c3.916,0.042,7.832,0.012,11.75,0.012
		C118.379,105.833,118.379,105.858,118.379,105.886z M117.584,124.179c0-0.012,0-0.023,0-0.035c1.799,0,3.601,0.021,5.397-0.004
		c4.585-0.068,7.269-2.482,7.622-7.033c0.062-0.805-0.363-1.799-0.876-2.465c-1.085-1.407-2.802-1.429-4.397-1.456
		c-3.638-0.06-7.277-0.034-10.916-0.04c-1.881-0.003-2.189,0.352-2.572,2.24c-0.45,2.229-0.975,4.451-1.594,6.639
		c-0.449,1.582-0.119,2.146,1.577,2.15C113.744,124.182,115.664,124.179,117.584,124.179z"/>
	<path d="M187.672,105.119c2.781,0.47,5.604,0.775,8.338,1.442c5.281,1.288,8.81,5.818,9.113,11.308
		c0.194,3.489-0.576,6.825-1.451,10.159c-0.934,3.56-2.402,6.849-4.646,9.783c-2.286,2.996-5.218,5.125-8.649,6.623
		c-5.068,2.211-10.362,2.891-15.828,2.289c-3.918-0.432-7.594-1.518-10.543-4.336c-2.477-2.365-3.502-5.412-3.396-8.68
		c0.101-3.047,0.552-6.129,1.245-9.104c0.932-3.994,2.604-7.711,5.34-10.873c2.293-2.647,5.062-4.65,8.276-5.976
		c4.585-1.891,7.125-2.312,12.143-2.314C187.635,105.336,187.653,105.227,187.672,105.119z M170.211,130.595
		c0.146,1.008,0.152,2.117,0.479,3.121c1.134,3.5,3.692,5.287,7.276,5.678c4.436,0.482,8.477-0.481,11.701-3.69
		c4.396-4.373,5.836-9.908,5.592-15.904c-0.103-2.506-1.397-4.65-3.733-5.793c-4.778-2.334-9.487-1.719-13.78,1.133
		C172.312,118.747,170.879,124.468,170.211,130.595z"/>
	<path d="M270.228,105.947c0.96,0,1.946-0.135,2.87,0.05c0.605,0.12,1.408,0.575,1.633,1.095c2.355,5.418,4.605,10.882,6.901,16.33
		c1.895,4.49,3.794,8.979,5.733,13.447c0.174,0.397,0.669,0.659,1.016,0.983c0.222-0.387,0.559-0.748,0.646-1.162
		c0.546-2.535,0.99-5.094,1.553-7.625c1.101-4.957,2.251-9.899,3.385-14.852c0.524-2.296,1.079-4.587,1.575-6.891
		c0.226-1.04,0.756-1.486,1.847-1.395c0.952,0.081,1.918,0.02,2.877,0.005c1.229-0.017,1.554,0.31,1.298,1.496
		c-0.418,1.954-0.895,3.896-1.344,5.84c-1.208,5.215-2.409,10.433-3.626,15.646c-1.271,5.446-2.559,10.893-3.843,16.338
		c-0.18,0.76-0.662,1.154-1.461,1.151c-1.84,0-3.68,0.007-5.521,0.013c-0.875,0.002-1.386-0.463-1.718-1.242
		c-2.913-6.834-5.846-13.66-8.759-20.494c-1.362-3.195-2.685-6.408-4.067-9.596c-0.146-0.338-0.582-0.549-0.884-0.818
		c-0.214,0.31-0.553,0.59-0.619,0.928c-0.708,3.562-1.297,7.146-2.064,10.688c-1.277,5.897-2.663,11.771-4.004,17.658
		c-0.062,0.271-0.128,0.545-0.202,0.813c-0.548,2.006-0.601,2.043-2.714,2.049c-0.88,0.005-1.762,0.029-2.641,0
		c-0.896-0.026-1.178-0.549-0.98-1.381c1.688-7.147,3.383-14.297,5.063-21.446c1.254-5.33,2.507-10.661,3.724-16
		c0.262-1.149,0.775-1.775,2.047-1.637c0.751,0.082,1.52,0.017,2.277,0.017C270.228,105.952,270.228,105.95,270.228,105.947z"/>
	<path d="M269.275,82.428c6.907,0.203,12.65,1.81,18.323,3.843c3.979,1.426,7.928,2.958,12.166,3.575
		c4.307,0.626,8.144-0.087,11.562-2.938c2.082-1.736,4.373-3.222,6.548-4.85c0.784-0.587,1.455-0.63,2.267-0.011
		c2.44,1.866,4.914,3.692,7.406,5.491c0.306,0.222,0.802,0.179,1.21,0.259c0.041-0.441,0.226-0.929,0.101-1.316
		c-0.756-2.354-1.581-4.685-2.384-7.022c-0.025-0.076-0.047-0.153-0.071-0.229c-0.878-2.597-0.873-2.591,1.474-4.235
		c2.025-1.42,4.06-2.832,6.045-4.308c0.354-0.262,0.486-0.815,0.723-1.235c-0.42-0.145-0.841-0.416-1.26-0.414
		c-2.876,0.02-5.753,0.072-8.628,0.164c-1.246,0.039-1.944-0.345-2.309-1.676c-0.759-2.771-1.718-5.488-2.635-8.214
		c-0.108-0.325-0.467-0.569-0.71-0.85c-0.323,0.3-0.819,0.542-0.944,0.909c-0.938,2.76-1.771,5.554-2.713,8.312
		c-0.189,0.56-0.622,1.103-1.086,1.474c-0.253,0.2-0.925,0.172-1.191-0.033c-0.243-0.186-0.362-0.805-0.253-1.142
		c1.369-4.17,2.798-8.321,4.193-12.483c0.354-1.06,0.596-2.159,0.997-3.198c0.164-0.425,0.616-0.736,0.938-1.099
		c0.257,0.353,0.616,0.67,0.751,1.063c1.506,4.42,2.995,8.845,4.439,13.285c0.33,1.019,0.95,1.368,1.958,1.358
		c4.678-0.045,9.354-0.074,14.032-0.069c0.464,0,0.928,0.271,1.391,0.415c-0.284,0.431-0.478,0.99-0.868,1.271
		c-3.562,2.569-7.17,5.073-10.739,7.631c-1.766,1.266-1.785,1.655-1.066,3.722c1.221,3.507,2.347,7.046,3.526,10.565
		c0.201,0.604,0.546,1.164,0.708,1.775c0.108,0.414,0.019,0.882,0.016,1.326c-0.447-0.05-0.987,0.042-1.327-0.176
		c-1.105-0.709-2.138-1.535-3.201-2.312c-2.873-2.095-5.75-4.185-8.622-6.28c-0.887-0.647-1.623-0.296-2.394,0.268
		c-3.063,2.238-6.134,4.47-9.229,6.666c-3.342,2.371-7.139,3.337-11.133,2.757c-4.136-0.602-8.263-1.447-12.293-2.549
		c-5.568-1.523-11.136-2.979-16.94-2.943c-3.432,0.021-6.87,0.293-10.095,1.719c-0.355,0.158-0.82,0.068-1.235,0.096
		c-0.016-0.414-0.091-0.836-0.031-1.239c0.102-0.669,0.346-1.319,0.428-1.989c0.232-1.905,1.373-3.024,3.103-3.582
		C263.432,82.944,266.705,82.229,269.275,82.428z"/>
	<path d="M221.608,146.421c-4.6,0-9.198,0-13.797,0c-1.628,0-1.899-0.361-1.524-1.957c1.377-5.873,2.75-11.746,4.117-17.621
		c1.539-6.613,3.078-13.227,4.601-19.843c0.186-0.809,0.637-1.13,1.437-1.123c1.76,0.016,3.521-0.02,5.277,0.008
		c1.07,0.016,1.311,0.414,1.061,1.459c-1.253,5.242-2.482,10.49-3.731,15.734c-1.212,5.088-2.425,10.178-3.663,15.26
		c-0.369,1.512-0.038,1.992,1.523,1.988c6.6-0.011,13.196-0.021,19.796-0.029c1.814-0.002,2.043,0.332,1.499,2.053
		c-0.252,0.797-0.436,1.623-0.569,2.449c-0.214,1.301-1.021,1.646-2.227,1.639c-4.6-0.028-9.196-0.012-13.797-0.012
		C221.608,146.423,221.608,146.423,221.608,146.421z"/>
	<path d="M326.526,105.802c0.879,0,1.761,0.045,2.637-0.012c0.959-0.063,1.516,0.282,1.688,1.259
		c0.538,3.028,1.108,6.05,1.648,9.079c1.694,9.518,3.381,19.037,5.072,28.557c0.205,1.15-0.104,1.537-1.291,1.568
		c-2.93,0.076-3.021-0.076-3.463-3.062c-0.469-3.16-1.064-6.301-1.636-9.442c-0.151-0.843-0.707-1.373-1.551-0.943
		c-4.41,2.238-9.003,1.73-13.606,0.967c-1.768-0.295-3.494-0.838-5.266-1.08c-0.523-0.069-1.333,0.349-1.674,0.797
		c-1.029,1.365-1.893,2.859-2.825,4.302c-1.562,2.412-3.11,4.838-4.708,7.229c-0.718,1.072-3.004,1.691-4.172,1.187
		c-0.764-0.33-0.525-0.841-0.183-1.363c2.099-3.207,4.203-6.412,6.276-9.635c5.121-7.957,10.226-15.927,15.339-23.888
		c0.949-1.479,1.96-2.92,2.861-4.427c0.475-0.794,1.104-1.094,1.971-1.082c0.959,0.013,1.918,0.003,2.877,0.003
		C326.526,105.807,326.526,105.804,326.526,105.802z M326.068,130.38c0.246-0.012,0.646-0.01,1.044-0.051
		c2.793-0.293,3.146-0.724,2.699-3.438c-0.892-5.436-1.805-10.867-2.715-16.3c-0.135-0.806-0.323-1.78-1.291-1.74
		c-0.611,0.025-1.39,0.568-1.761,1.107c-1.062,1.542-1.909,3.228-2.922,4.806c-2.348,3.662-4.74,7.293-7.117,10.938
		c-0.671,1.026-0.503,1.562,0.658,1.991c0.523,0.195,1.062,0.354,1.593,0.523C319.411,129.229,322.546,130.327,326.068,130.38z"/>
	<path d="M145.928,146.404c-1.118,0-2.237,0.023-3.356-0.006c-1.13-0.028-1.377-0.451-1.118-1.528
		c0.789-3.3,1.529-6.607,2.305-9.908c1.187-5.051,2.396-10.096,3.57-15.148c0.887-3.812,1.729-7.633,2.594-11.45
		c0.106-0.467,0.242-0.928,0.351-1.396c0.188-0.828,0.704-1.199,1.547-1.194c2.236,0.016,4.476,0.008,6.712,0.012
		c0.986,0.001,1.377,0.429,1.141,1.438c-1.916,8.201-3.825,16.402-5.721,24.607c-0.916,3.971-1.799,7.948-2.699,11.924
		c-0.088,0.391-0.209,0.772-0.279,1.166c-0.193,1.084-0.809,1.569-1.926,1.516c-1.037-0.051-2.078-0.01-3.116-0.01
		C145.928,146.421,145.928,146.413,145.928,146.404z"/>
	<path d="M247.321,146.409c-0.879,0-1.76,0.014-2.639-0.005c-0.935-0.02-1.302-0.514-1.087-1.416
		c1.725-7.264,3.475-14.52,5.172-21.786c1.189-5.093,2.318-10.198,3.463-15.3c0.415-1.854,0.607-2.021,2.467-2.009
		c1.438,0.008,2.877-0.031,4.313-0.007c1.176,0.019,1.435,0.36,1.168,1.491c-2.023,8.63-4.064,17.255-6.08,25.888
		c-0.854,3.654-1.631,7.328-2.488,10.98c-0.503,2.143-0.603,2.176-2.852,2.172c-0.479,0-0.959,0-1.438,0
		C247.321,146.415,247.321,146.413,247.321,146.409z"/>
	<path d="M270.774,71.735c6.187,0.144,11.056,1.063,15.83,2.65c6.249,2.076,12.479,4.382,19.204,4.184
		c1.756-0.052,3.492-0.699,5.24-1.059c0.317-0.064,0.65-0.059,0.979-0.085c-0.054,0.329-0.002,0.739-0.183,0.968
		c-0.355,0.455-0.794,0.881-1.277,1.195c-4.451,2.875-9.329,2.847-14.236,1.788c-4.208-0.908-8.344-2.148-12.513-3.235
		c-6.086-1.586-12.245-2.369-18.508-1.357c-1.596,0.259-3.118,0.953-4.688,1.408c-0.346,0.102-0.736,0.045-1.106,0.062
		c-0.004-0.34-0.027-0.68-0.008-1.016c0.168-2.742,2.062-3.813,4.377-4.299C266.536,72.384,269.221,72.001,270.774,71.735z"/>
	<path d="M305.268,73.036c-2.346-0.646-4.748-1.242-7.107-1.975c-6.245-1.938-12.321-4.556-18.876-5.273
		c-3.509-0.385-7.093-0.317-10.627-0.142c-1.831,0.091-3.625,0.875-5.442,1.318c-0.312,0.075-0.792,0.149-0.949-0.013
		c-0.193-0.2-0.231-0.672-0.161-0.986c0.258-1.124,1.078-1.711,2.121-2.072c4.161-1.438,8.444-1.667,12.787-1.307
		c5.505,0.457,10.725,2.005,15.854,3.994c3.046,1.182,6.229,2.007,9.297,3.135c1.289,0.475,2.455,1.297,3.646,2.016
		c0.211,0.127,0.412,0.571,0.345,0.778C306.082,72.719,305.672,72.812,305.268,73.036z"/>
	<path d="M112.285,98.003c-0.132,0.144-0.349,0.38-0.563,0.616c-0.248-0.317-0.667-0.611-0.716-0.956
		c-0.252-1.779-0.403-3.571-0.598-5.358c-0.146-1.35-0.333-2.696-0.443-4.048c-0.082-1.008-0.721-1.092-1.508-1.089
		c-4.476,0.01-8.951,0.005-13.428,0.006c-0.439,0-0.884,0.041-1.317-0.011c-1.064-0.129-1.605,0.441-2.005,1.33
		c-1.356,3.021-2.741,6.031-4.118,9.045c-0.083,0.181-0.153,0.397-0.299,0.513c-0.278,0.217-0.604,0.371-0.912,0.551
		c0.001-0.354-0.112-0.764,0.021-1.057c3.186-6.924,6.395-13.837,9.607-20.748c2.761-5.935,5.529-11.865,8.3-17.794
		c0.457-0.979,1.324-1.247,2.773-0.969c0.928,0.178,0.873,0.871,0.948,1.554c0.877,8.019,1.765,16.036,2.651,24.054
		c0.513,4.645,1.027,9.288,1.543,13.931C112.231,97.648,112.244,97.728,112.285,98.003z M92.917,86.045
		c0.647,0.063,1.031,0.133,1.415,0.134c4.552,0.007,9.106,0.002,13.659,0.003c1.761,0,1.821-0.108,1.616-1.843
		c-0.514-4.319-0.995-8.643-1.471-12.965c-0.411-3.77-0.783-7.543-1.221-11.309c-0.041-0.346-0.404-0.904-0.646-0.919
		c-0.389-0.024-0.816,0.293-1.189,0.528c-0.141,0.088-0.17,0.35-0.254,0.529c-3.222,6.986-6.443,13.974-9.666,20.959
		C94.446,82.713,93.736,84.262,92.917,86.045z"/>
	<path d="M188.057,58.288c-0.245,0.414-0.453,0.855-0.742,1.235c-4.43,5.818-8.878,11.618-13.275,17.459
		c-0.291,0.388-0.412,1.154-0.238,1.601c1.925,4.947,3.922,9.867,5.902,14.794c0.521,1.296,1.082,2.577,1.559,3.889
		c0.142,0.389,0.057,0.861,0.074,1.295c-0.375-0.27-0.935-0.458-1.094-0.822c-1.646-3.77-3.287-7.544-4.807-11.366
		c-0.955-2.4-1.669-4.896-2.569-7.318c-0.142-0.384-0.685-0.863-1.057-0.877c-2.276-0.083-4.558-0.043-6.834-0.047
		c-0.853-0.001-1.05,0.6-1.162,1.263c-0.963,5.63-1.92,11.262-2.886,16.895c-0.094,0.551-0.166,1.117-0.363,1.634
		c-0.104,0.266-0.459,0.433-0.701,0.645c-0.117-0.297-0.378-0.618-0.332-0.886c0.73-4.253,1.518-8.497,2.26-12.748
		c0.715-4.09,1.377-8.188,2.096-12.276c0.789-4.483,1.599-8.963,2.451-13.435c0.072-0.386,0.554-0.694,0.845-1.039
		c0.071,0.427,0.271,0.874,0.2,1.276c-0.953,5.469-1.928,10.935-2.94,16.394c-0.188,1.021,0.099,1.386,1.136,1.363
		c2.078-0.043,4.16,0.034,6.236-0.034c0.48-0.016,1.172-0.283,1.395-0.656c3.196-5.39,7.502-9.939,11.223-14.931
		c0.738-0.993,1.515-1.961,2.312-2.908c0.25-0.298,0.628-0.489,0.946-0.731C187.809,58.064,187.933,58.177,188.057,58.288z"/>
	<path d="M67.859,81.864c-1.561,0-3.124,0.068-4.678-0.021c-1.146-0.066-1.56,0.451-1.733,1.479
		C60.652,88.01,59.821,92.692,59,97.377c-0.047,0.271-0.067,0.569-0.199,0.801c-0.101,0.177-0.438,0.412-0.526,0.363
		c-0.204-0.115-0.456-0.395-0.445-0.591c0.035-0.676,0.162-1.348,0.278-2.017c0.721-4.13,1.443-8.26,2.176-12.388
		c0.977-5.508,1.96-11.016,2.942-16.524c0.448-2.518,0.942-5.028,1.333-7.554c0.155-1.009,0.549-1.496,1.61-1.479
		c3.6,0.062,7.204-0.031,10.794,0.168c1.47,0.082,2.98,0.595,4.337,1.209c1.899,0.86,2.915,2.611,2.977,4.619
		c0.127,4.229-0.5,8.403-2.278,12.262c-1.602,3.478-4.732,4.969-8.389,5.38c-1.903,0.214-3.829,0.22-5.745,0.321
		C67.862,81.92,67.861,81.892,67.859,81.864z M71.749,58.85c-0.007,0.071-0.014,0.144-0.021,0.213c-1.599,0-3.197,0.023-4.794-0.01
		c-0.812-0.017-1.23,0.26-1.381,1.11c-1.155,6.523-2.348,13.041-3.527,19.562c-0.175,0.97,0.419,1.195,1.195,1.183
		c3.235-0.047,6.476-0.008,9.702-0.194c4.016-0.232,7.351-1.929,8.585-5.931c0.967-3.131,1.383-6.472,1.689-9.752
		c0.267-2.853-1.509-4.935-4.342-5.42C76.512,59.208,74.12,59.093,71.749,58.85z"/>
	<path d="M123.824,89.466c0.553-3.348,1.053-6.704,1.672-10.04c0.75-4.041,1.387-8.12,2.457-12.079
		c1.663-6.167,6.764-9.745,13.147-9.555c1.351,0.041,2.739,0.127,4.034,0.48c3.175,0.868,5.179,3.32,5.219,6.672
		c0.023,2.131-0.451,4.271-0.766,6.398c-0.043,0.293-0.44,0.534-0.676,0.798c-0.111-0.346-0.342-0.703-0.31-1.036
		c0.187-1.943,0.612-3.88,0.624-5.82c0.017-3.451-2.049-5.713-5.452-6.22c-4.097-0.608-7.987-0.271-11.272,2.636
		c-2.158,1.912-3.319,4.416-3.918,7.131c-0.843,3.818-1.479,7.684-2.149,11.539c-0.472,2.713-0.927,5.434-1.235,8.168
		c-0.132,1.169,0.008,2.402,0.223,3.57c0.586,3.187,2.809,5.11,6.008,5.663c2.896,0.5,5.681,0.257,8.301-0.997
		c3.361-1.608,5.062-4.513,5.754-8.076c0.266-1.373,0.458-2.762,0.753-4.127c0.058-0.265,0.44-0.457,0.677-0.682
		c0.129,0.253,0.401,0.529,0.366,0.757c-0.467,3-0.83,6.059-2.466,8.705c-2.859,4.626-7.283,5.911-12.4,5.561
		c-1.771-0.122-3.473-0.499-4.976-1.538C124.657,95.453,123.939,92.656,123.824,89.466z"/>
	<path d="M234.703,174.07c0.979-7.17,2.598-14.241,3.411-21.562c-0.224,0.207-0.502,0.379-0.659,0.627
		c-4.164,6.566-8.3,13.152-12.492,19.699c-0.438,0.682-1.208,1.149-1.824,1.719c-0.356-0.705-0.832-1.373-1.054-2.117
		c-1.603-5.393-3.158-10.799-4.715-16.205c-0.274-0.957-0.447-1.942-0.728-2.899c-0.11-0.381-0.382-0.715-0.58-1.07
		c-0.093,0.045-0.187,0.088-0.278,0.131c-1.265,7.285-2.525,14.57-3.79,21.855c-0.178-0.017-0.354-0.031-0.533-0.047
		c-0.024-0.269-0.11-0.548-0.065-0.804c1.149-6.485,2.315-12.971,3.473-19.457c0.1-0.551,0.041-1.146,0.229-1.653
		c0.154-0.42,0.569-0.742,0.87-1.107c0.347,0.332,0.866,0.604,1.008,1.008c0.484,1.394,0.837,2.828,1.239,4.25
		c1.533,5.414,3.062,10.828,4.612,16.238c0.101,0.35,0.354,0.654,0.67,1.215c0.865-1.344,1.598-2.465,2.315-3.594
		c3.26-5.115,6.515-10.232,9.773-15.348c0.644-1.009,1.243-2.054,1.977-2.992c0.292-0.373,0.892-0.508,1.35-0.748
		c0.066,0.43,0.253,0.881,0.186,1.289c-0.89,5.313-1.802,10.629-2.735,15.938c-0.336,1.906-0.745,3.799-1.121,5.697
		C235.059,174.111,234.881,174.093,234.703,174.07z"/>
	<path d="M299.752,166.124c-0.1,0.76-0.135,1.221-0.224,1.67c-0.612,3.086,1.062,5.432,4.143,5.983
		c3.137,0.564,6.201,0.408,9.221-0.588c2.463-0.811,4.646-4.633,3.988-7.09c-0.475-1.768-1.969-2.483-3.576-2.805
		c-2.426-0.482-4.888-0.781-7.326-1.193c-0.979-0.166-1.979-0.328-2.909-0.66c-2.056-0.729-2.698-2.842-1.918-5.207
		c1.025-3.11,3.372-4.434,6.327-4.905c2.688-0.431,5.399-0.556,8.062,0.319c3.595,1.183,4.046,4.021,3.317,7.259
		c-0.019,0.081-0.184,0.131-0.518,0.35c0-0.553-0.054-0.947,0.008-1.32c0.515-3.174-0.669-5.078-3.836-5.84
		c-3.258-0.785-6.518-0.664-9.634,0.643c-1.979,0.83-3.677,3.712-3.29,5.783c0.149,0.812,0.913,1.689,1.642,2.166
		c0.792,0.521,1.851,0.705,2.82,0.859c2.557,0.408,5.179,0.508,7.682,1.119c3.751,0.914,4.575,2.725,3.377,6.811
		c-0.711,2.428-2.552,3.816-5.007,4.515c-3.478,0.985-6.916,1.231-10.312-0.191c-2.37-0.996-3.201-2.486-3.065-5.117
		C298.814,166.927,298.814,166.927,299.752,166.124z"/>
	<path d="M204.406,174.434c-0.312,0.064-0.621,0.183-0.933,0.185c-4.356,0.01-8.714-0.019-13.068,0.02
		c-1.052,0.01-1.465-0.311-1.276-1.395c0.608-3.5,1.162-7.013,1.771-10.515c0.58-3.336,1.233-6.662,1.786-10.004
		c0.188-1.141,0.625-1.627,1.863-1.604c4.275,0.075,8.554,0.036,12.83,0.049c0.367,0,0.733,0.051,1.103,0.078
		c0.007,0.118,0.013,0.237,0.019,0.356c-0.35,0.06-0.699,0.164-1.049,0.164c-3.957,0.008-7.914,0.004-11.869-0.006
		c-1.92-0.006-1.951,0.029-2.285,1.896c-0.414,2.315-0.854,4.629-1.297,6.938c-0.271,1.412-0.152,1.57,1.344,1.572
		c3.718,0.004,7.435-0.006,11.15,0c0.455,0,0.909,0.055,1.364,0.084c0.013,0.125,0.021,0.25,0.033,0.373
		c-0.411,0.067-0.822,0.194-1.231,0.194c-3.718,0.009-7.435-0.004-11.152-0.016c-1.791-0.008-1.939,0.145-2.223,1.898
		c-0.416,2.598-0.882,5.188-1.33,7.78c-0.211,1.218-0.059,1.412,1.18,1.412c4.037-0.004,8.074-0.021,12.111-0.02
		c0.387,0,0.773,0.108,1.16,0.168C204.406,174.179,204.406,174.307,204.406,174.434z"/>
	<path d="M293.922,174.374c-0.408-1.433-0.817-2.861-1.223-4.293c-0.043-0.152-0.058-0.314-0.091-0.472
		c-0.462-2.071-0.462-2.071-2.585-2.071c-3.92,0-7.84,0.028-11.758-0.023c-1.06-0.014-1.67,0.355-2.183,1.279
		c-0.94,1.703-2.014,3.334-3.05,4.981c-0.17,0.271-0.435,0.484-0.877,0.599c0.015-0.17-0.029-0.377,0.049-0.509
		c4.487-7.26,8.997-14.508,13.466-21.778c0.507-0.824,1.19-1.181,1.977-0.869c0.512,0.203,1.054,0.83,1.201,1.369
		c1.317,4.811,2.546,9.645,3.812,14.469c0.518,1.965,1.075,3.918,1.588,5.885c0.11,0.426,0.104,0.881,0.148,1.322
		C294.241,174.3,294.081,174.337,293.922,174.374z M284.592,166.984c0,0.021,0,0.039,0,0.062c1.96,0,3.92-0.037,5.877,0.014
		c1.012,0.027,1.296-0.412,1.123-1.313c-0.061-0.312-0.123-0.627-0.204-0.938c-1.033-3.895-2.048-7.793-3.131-11.674
		c-0.138-0.49-0.605-1.189-0.98-1.229c-0.418-0.045-1.063,0.453-1.337,0.89c-2.688,4.293-5.323,8.617-7.954,12.944
		c-0.167,0.275-0.319,0.738-0.198,0.96c0.112,0.202,0.603,0.271,0.928,0.274C280.672,166.997,282.633,166.984,284.592,166.984z"/>
	<path d="M319.661,174.273c0.087-0.254,0.131-0.535,0.27-0.76c4.331-7.023,8.656-14.053,13.037-21.045
		c0.354-0.568,1.042-1.084,1.682-1.281c0.852-0.266,1.413,0.154,1.679,1.172c1.534,5.902,3.161,11.779,4.736,17.67
		c0.365,1.363,0.66,2.748,0.987,4.123c-0.102,0.06-0.202,0.115-0.305,0.172c-0.167-0.186-0.426-0.346-0.486-0.562
		c-0.45-1.566-0.895-3.139-1.271-4.725c-0.261-1.093-0.766-1.562-1.985-1.533c-3.954,0.082-7.912,0.063-11.867-0.006
		c-1.264-0.021-2.055,0.312-2.658,1.498c-0.828,1.629-1.885,3.143-2.862,4.69c-0.176,0.279-0.45,0.494-0.68,0.738
		C319.844,174.378,319.752,174.325,319.661,174.273z M332.167,167.066c1.956,0,3.912-0.006,5.868,0.002
		c0.821,0.004,1.372-0.241,1.124-1.194c-1.145-4.4-2.284-8.802-3.465-13.189c-0.284-1.053-1.134-1.205-1.894-0.393
		c-0.271,0.289-0.479,0.639-0.688,0.979c-2.513,4.111-5.022,8.226-7.518,12.351c-0.188,0.312-0.438,0.903-0.315,1.026
		c0.256,0.261,0.738,0.396,1.133,0.404C328.331,167.089,330.249,167.066,332.167,167.066z"/>
	<path d="M271.898,159.47c-0.098-0.496-0.221-0.781-0.195-1.055c0.312-3.502-1.971-5.785-5.004-6.396
		c-4.592-0.922-8.579-0.022-11.694,3.621c-1.998,2.338-2.646,5.244-3.017,8.195c-0.162,1.301-0.133,2.633-0.088,3.946
		c0.097,2.896,1.661,4.814,4.309,5.729c3.947,1.359,9.702,0.562,12.375-3.258c0.648-0.928,1.05-2.031,1.555-3.062
		c0.143-0.289,0.248-0.594,0.571-0.821c0.222,1.268-0.303,2.368-0.907,3.354c-2.013,3.271-5.219,4.582-8.85,4.973
		c-2.036,0.22-4.03-0.03-5.951-0.956c-1.997-0.964-3.147-2.5-3.691-4.566c-0.675-2.562-0.204-5.078,0.438-7.562
		c0.355-1.385,0.711-2.797,1.307-4.086c1.275-2.766,3.425-4.682,6.311-5.688c3.337-1.168,6.652-1.176,9.896,0.387
		c2.368,1.144,3.751,4.146,3.062,6.668C272.282,159.025,272.146,159.136,271.898,159.47z"/>
</g>
</svg>
